<?xml version="1.0" encoding="iso-8859-1"?>
<!-- Generator: Adobe Illustrator 19.0.0, SVG Export Plug-In . SVG Version: 6.00 Build 0)  -->
<svg version="1.1" id="Layer_1" xmlns="http://www.w3.org/2000/svg" xmlns:xlink="http://www.w3.org/1999/xlink" x="0px" y="0px"
	 viewBox="0 0 512 512" style="enable-background:new 0 0 512 512;" xml:space="preserve">
<g>
	<path style="fill:#C8A27D;" d="M409.934,8.017h-34.205c-4.722,0-8.551,3.829-8.551,8.551v145.37h51.307V16.568
		C418.485,11.845,414.656,8.017,409.934,8.017z"/>
	<path style="fill:#C8A27D;" d="M136.297,8.017h-34.205c-4.722,0-8.551,3.829-8.551,8.551v145.37h51.307V16.568
		C144.848,11.845,141.019,8.017,136.297,8.017z"/>
</g>
<g>
	<path style="fill:#DCB991;" d="M119.169,161.937H93.541V16.568c0-4.722,3.829-8.551,8.551-8.551h17.077V161.937z"/>
	<path style="fill:#DCB991;" d="M418.485,161.937h-25.679V8.017h17.128c4.722,0,8.551,3.829,8.551,8.551V161.937z"/>
	<path style="fill:#DCB991;" d="M67.862,298.756c-9.445,0-17.102,7.656-17.102,17.102v136.818c0,9.445,7.658,17.102,17.102,17.102
		h17.102V298.756H67.862z"/>
</g>
<rect x="50.762" y="350.063" style="fill:#C8A27D;" width="34.205" height="25.653"/>
<path style="fill:#DCB991;" d="M444.112,298.756H427.01v171.023h17.102c9.445,0,17.102-7.658,17.102-17.102V315.858
	C461.215,306.412,453.557,298.756,444.112,298.756z"/>
<rect x="427.012" y="350.063" style="fill:#C8A27D;" width="34.205" height="25.653"/>
<path style="fill:#EBC9A0;" d="M392.831,503.983H119.194c-18.891,0-34.205-15.314-34.205-34.205V161.937
	c0-56.672,45.942-102.614,102.614-102.614h136.818c56.672,0,102.614,45.942,102.614,102.614v307.841
	C427.036,488.669,411.722,503.983,392.831,503.983z"/>
<path style="fill:#DCB991;" d="M401.382,94.222c-18.804-21.354-46.27-34.898-76.961-34.898H187.603
	c-30.689,0-58.154,13.544-76.959,34.897v67.717c0,61.297,49.868,111.165,111.165,111.165h68.409
	c61.297,0,111.165-49.868,111.165-111.165V94.222z"/>
<path style="fill:#F5DCB4;" d="M367.178,469.779h-222.33c-9.446,0-17.102-7.656-17.102-17.102V315.858
	c0-9.446,7.656-17.102,17.102-17.102h222.33c9.446,0,17.102,7.656,17.102,17.102v136.818
	C384.28,462.122,376.624,469.779,367.178,469.779z"/>
<path style="fill:#C8A27D;" d="M367.178,298.756h-222.33c-9.446,0-17.102,7.656-17.102,17.102v34.205H384.28v-34.205
	C384.28,306.412,376.624,298.756,367.178,298.756z"/>
<path style="fill:#F5DCB4;" d="M358.627,59.324H153.399c-9.445,0-17.102,7.656-17.102,17.102v85.511
	c0,47.227,38.285,85.511,85.511,85.511h68.409c47.227,0,85.512-38.285,85.512-85.511V76.426
	C375.729,66.98,368.071,59.324,358.627,59.324z"/>
<g>
	<path style="fill:#C8A27D;" d="M256.013,264.551L256.013,264.551c-9.446,0-17.102-7.656-17.102-17.102v-34.205h34.205v34.205
		C273.115,256.895,265.459,264.551,256.013,264.551z"/>
	<circle style="fill:#C8A27D;" cx="307.318" cy="392.818" r="17.102"/>
</g>
<path d="M367.165,290.739h-222.33c-13.851,0-25.119,11.268-25.119,25.119v136.818c0,13.851,11.268,25.119,25.119,25.119h222.33
	c13.851,0,25.119-11.268,25.119-25.119V315.858C392.284,302.007,381.016,290.739,367.165,290.739z M376.251,452.676
	c0,5.01-4.076,9.086-9.086,9.086h-222.33c-5.01,0-9.086-4.076-9.086-9.086V315.858c0-5.01,4.076-9.086,9.086-9.086h222.33
	c5.01,0,9.086,4.076,9.086,9.086V452.676z"/>
<path d="M350.063,342.046H161.937c-4.427,0-8.017,3.589-8.017,8.017c0,4.427,3.589,8.017,8.017,8.017H299.29v10.939
	c-9.93,3.354-17.102,12.752-17.102,23.8c0,13.851,11.268,25.119,25.119,25.119c13.851,0,25.119-11.268,25.119-25.119
	c0-11.048-7.172-20.446-17.102-23.8v-10.939h34.739c4.427,0,8.017-3.589,8.017-8.017
	C358.079,345.635,354.49,342.046,350.063,342.046z M307.307,401.904c-5.01,0-9.086-4.076-9.086-9.086s4.076-9.086,9.086-9.086
	s9.086,4.076,9.086,9.086S312.317,401.904,307.307,401.904z"/>
<path d="M444.125,290.739h-9.086V161.937c0-14.813-3.003-29.249-8.562-42.548c0.002-0.069,0.011-0.138,0.011-0.207V16.568
	C426.489,7.432,419.057,0,409.921,0h-34.205c-9.136,0-16.568,7.432-16.568,16.568v34.753c-0.178-0.003-0.355-0.014-0.534-0.014
	h-34.739V33.67c0-18.566-15.105-33.67-33.67-33.67h-68.409c-18.566,0-33.67,15.105-33.67,33.67v17.637h-34.739
	c-0.18,0-0.356,0.01-0.534,0.014V16.568C152.852,7.432,145.42,0,136.284,0h-34.205c-9.136,0-16.568,7.432-16.568,16.568v102.614
	c0,0.069,0.009,0.137,0.011,0.206c-5.559,13.299-8.562,27.736-8.562,42.549v128.802h-9.086c-13.851,0-25.119,11.268-25.119,25.119
	v136.818c0,13.851,11.268,25.119,25.119,25.119h9.858C81.49,497.255,98.642,512,119.182,512h273.637
	c20.54,0,37.691-14.745,41.448-34.205h9.858c13.851,0,25.119-11.268,25.119-25.119V315.858
	C469.244,302.007,457.976,290.739,444.125,290.739z M444.125,306.772c5.01,0,9.086,4.076,9.086,9.086v26.188H435.04v-35.273H444.125
	z M375.182,16.568c0-0.295,0.239-0.534,0.534-0.534h34.205c0.295,0,0.534,0.239,0.534,0.534v75.916
	c-7.859-9.76-17.405-18.24-28.351-24.946c-1.469-3.869-3.867-7.282-6.922-9.97V16.568z M204.159,33.67
	c0-9.725,7.912-17.637,17.637-17.637h68.409c9.725,0,17.637,7.912,17.637,17.637v17.637H204.159V33.67z M358.614,67.34
	c5.01,0,9.086,4.076,9.086,9.086v85.511c0,42.731-34.764,77.495-77.495,77.495h-9.086v-26.188c0-4.427-3.589-8.017-8.017-8.017
	h-34.205c-4.427,0-8.017,3.589-8.017,8.017v26.188h-9.086c-42.731,0-77.495-34.764-77.495-77.495V76.426
	c0-5.01,4.076-9.086,9.086-9.086H358.614z M265.086,247.438c0,0.003,0,0.006,0,0.011c0,0.002,0,0.003,0,0.005
	c-0.003,5.008-4.077,9.08-9.086,9.08c-5.01,0-9.086-4.076-9.086-9.086v-26.188h18.171V247.438z M101.545,16.568
	c0-0.295,0.239-0.534,0.534-0.534h34.205c0.295,0,0.534,0.239,0.534,0.534v41.001c-3.055,2.687-5.453,6.1-6.922,9.97
	c-10.947,6.706-20.493,15.186-28.351,24.946V16.568z M67.875,306.772h9.086v35.273H58.789v-26.188
	C58.789,310.848,62.865,306.772,67.875,306.772z M58.789,452.676v-94.597H76.96v103.683h-9.086
	C62.865,461.762,58.789,457.686,58.789,452.676z M392.818,495.967H119.182c-14.44,0-26.188-11.748-26.188-26.188V161.937
	c0-28.758,13.233-55.853,35.273-73.665v73.665c0,51.572,41.956,93.528,93.528,93.528H232.2c3.354,9.93,12.752,17.102,23.8,17.102
	c11.048,0,20.446-7.172,23.8-17.102h10.405c51.572,0,93.528-41.956,93.528-93.528V88.272c22.041,17.812,35.273,44.907,35.273,73.665
	v307.841C419.006,484.218,407.258,495.967,392.818,495.967z M444.125,461.762h-9.086V358.079h18.171v94.597
	C453.211,457.686,449.135,461.762,444.125,461.762z"/>
<g>
</g>
<g>
</g>
<g>
</g>
<g>
</g>
<g>
</g>
<g>
</g>
<g>
</g>
<g>
</g>
<g>
</g>
<g>
</g>
<g>
</g>
<g>
</g>
<g>
</g>
<g>
</g>
<g>
</g>
</svg>
