<?xml version="1.0" encoding="iso-8859-1"?>
<!-- Generator: Adobe Illustrator 19.0.0, SVG Export Plug-In . SVG Version: 6.00 Build 0)  -->
<svg version="1.1" id="Layer_1" xmlns="http://www.w3.org/2000/svg" xmlns:xlink="http://www.w3.org/1999/xlink" x="0px" y="0px"
	 viewBox="0 0 512 512" style="enable-background:new 0 0 512 512;" xml:space="preserve">
<path style="fill:#FF5A64;" d="M350.063,8.017c0,0,8.551,76.959,51.307,128.266l-17.102,162.476v205.224H127.733V298.758
	L110.63,136.282C153.386,84.975,161.937,8.016,161.937,8.016h188.125V8.017z"/>
<path style="fill:#D5DCED;" d="M170.489,8.017c0,47.226,38.285,85.511,85.511,85.511s85.512-38.286,85.512-85.511H170.489z"/>
<path style="fill:#C8414B;" d="M204.693,8.017c0,28.336,22.971,51.307,51.307,51.307c28.336,0,51.307-22.971,51.307-51.307H204.693z
	"/>
<path d="M407.529,131.151C366.934,82.438,358.14,8.101,358.03,7.132C357.579,3.072,354.148,0,350.063,0H161.937
	c-4.085,0-7.516,3.072-7.968,7.132c-0.083,0.745-8.756,75.13-49.498,124.019c-1.386,1.664-2.041,3.818-1.814,5.972l17.058,162.056
	v204.804c0,4.428,3.589,8.017,8.017,8.017h256.534c4.427,0,8.017-3.588,8.017-8.017V299.179l17.058-162.055
	C409.569,134.97,408.915,132.815,407.529,131.151z M256,67.34c29.991,0,54.84-22.376,58.767-51.307h18.313
	c-4.024,38.978-37.056,69.478-77.081,69.478s-73.056-30.5-77.081-69.478h18.313C201.16,44.964,226.009,67.34,256,67.34z
	 M213.467,16.033h85.068c-3.772,20.052-21.404,35.273-42.533,35.273C234.871,51.307,217.238,36.086,213.467,16.033z
	 M376.294,297.919c-0.029,0.279-0.044,0.558-0.044,0.839v197.209H135.749V298.758c0-0.281-0.015-0.56-0.044-0.839l-16.753-159.154
	c27.841-34.822,41.009-79.232,46.825-106.09c10.847,39.645,47.183,68.87,90.222,68.87c43.039,0,79.375-29.225,90.223-68.87
	c5.816,26.858,18.982,71.267,46.825,106.09L376.294,297.919z"/>
<path d="M226.071,205.224c-20.924,0-37.946,17.022-37.946,37.946v4.279c0,4.428,3.589,8.017,8.017,8.017s8.017-3.588,8.017-8.017
	v-4.279c0-12.083,9.83-21.912,21.912-21.912c12.083,0,21.912,9.83,21.912,21.912v9.582c0,5.155-2.245,10.037-6.159,13.391
	l-41.943,35.951c-7.473,6.405-11.758,15.723-11.757,25.567l0.001,5.302c0.001,4.426,3.589,8.015,8.017,8.015H256
	c4.427,0,8.017-3.588,8.017-8.017c0-4.428-3.589-8.017-8.017-8.017h-51.634c0.64-4.126,2.73-7.917,5.948-10.676l41.944-35.951
	c7.473-6.405,11.758-15.722,11.758-25.565v-9.582C264.017,222.246,246.995,205.224,226.071,205.224z"/>
<path d="M324.409,324.944h-9.086V213.244c0-4.428-3.589-8.017-8.017-8.017c-4.427,0-8.017,3.588-8.017,8.017
	c0,5.01-4.076,9.086-9.086,9.086c-4.427,0-8.017,3.588-8.017,8.017s3.589,8.017,8.017,8.017c3.203,0,6.266-0.609,9.086-1.708v88.288
	h-9.086c-4.427,0-8.017,3.588-8.017,8.017c0,4.428,3.589,8.017,8.017,8.017h34.205c4.427,0,8.017-3.588,8.017-8.017
	C332.426,328.532,328.837,324.944,324.409,324.944z"/>
<g>
</g>
<g>
</g>
<g>
</g>
<g>
</g>
<g>
</g>
<g>
</g>
<g>
</g>
<g>
</g>
<g>
</g>
<g>
</g>
<g>
</g>
<g>
</g>
<g>
</g>
<g>
</g>
<g>
</g>
</svg>
