<?xml version="1.0" encoding="iso-8859-1"?>
<!-- Generator: Adobe Illustrator 19.0.0, SVG Export Plug-In . SVG Version: 6.00 Build 0)  -->
<svg version="1.1" id="Layer_1" xmlns="http://www.w3.org/2000/svg" xmlns:xlink="http://www.w3.org/1999/xlink" x="0px" y="0px"
	 viewBox="0 0 512 512" style="enable-background:new 0 0 512 512;" xml:space="preserve">
<path style="fill:#FF9BA9;" d="M307.307,256l42.756-34.205V63.361c0-12.956-7.32-24.799-18.908-30.594l-15.297-7.648L298.756,8.017
	h-85.511l-17.102,17.102l-15.297,7.648c-11.588,5.794-18.908,17.638-18.908,30.594v158.435L204.693,256H307.307z"/>
<g>
	<polygon style="fill:#FF8B9B;" points="223.667,226.708 161.937,180.408 161.937,221.795 204.667,256 	"/>
	<polygon style="fill:#FF8B9B;" points="288.333,226.708 350.063,180.408 350.063,221.795 307.307,256 	"/>
</g>
<path style="fill:#FFAAB9;" d="M323.012,85.509c0.925-6.007,2.908-11.803,5.861-17.116l14.225-25.605
	c-3.12-4.133-7.135-7.617-11.942-10.021l-15.298-7.648L298.756,8.017h-85.511l-17.102,17.102l-15.297,7.648
	c-4.807,2.404-8.822,5.887-11.942,10.021l14.225,25.605c2.952,5.313,4.936,11.109,5.861,17.116l15.704,102.081v34.205l-4.83,27.872
	c-8.16,32.641-12.977,66.027-14.379,99.642l-6.444,154.673H332.96l-6.444-154.673c-1.401-33.616-6.218-67.001-14.379-99.642
	l-4.83-27.872v-34.205L323.012,85.509z"/>
<path style="fill:#FF9BA9;" d="M234.321,82.476c-8.02,8.02-11.457,19.967-11.457,31.31v23.567l14.965,0.059v-23.574
	c0-6.804,3.772-14.456,8.582-19.267l69.448-69.451L298.756,8.017h-85.511l-17.102,17.102l47.768,47.768L234.321,82.476z"/>
<g>
	<rect x="204.693" y="187.591" style="fill:#FF8B9B;" width="102.614" height="34.205"/>
	<polygon style="fill:#FF8B9B;" points="256,50.772 298.73,8.017 213.219,8.017 	"/>
</g>
<path d="M334.74,25.597l-14.133-7.066L304.424,2.348C302.858,0.781,300.806,0,298.753,0h-85.506c-2.052,0-4.106,0.781-5.672,2.348
	L191.392,18.53l-14.133,7.066c-14.395,7.198-23.338,21.669-23.338,37.764v158.435c0,2.523,1.188,4.899,3.207,6.413l33.58,25.185
	c-7.442,31.314-11.894,63.439-13.234,95.583l-6.444,154.673c-0.091,2.183,0.713,4.307,2.224,5.883S176.856,512,179.04,512H332.96
	c2.184,0,4.273-0.891,5.786-2.467c1.513-1.576,2.315-3.701,2.224-5.883l-6.444-154.673c-1.339-32.144-5.791-64.267-13.233-95.583
	l33.579-25.185c2.019-1.515,3.207-3.891,3.207-6.413V63.361C358.079,47.265,349.136,32.796,334.74,25.597z M310.19,30.787
	c0.609,0.609,1.313,1.116,2.083,1.502l15.297,7.649c8.93,4.465,14.476,13.44,14.476,23.423V176.4l-26.722,20.043v-8.129
	l16.973-93.351c0.792-4.356-2.097-8.53-6.453-9.322c-4.356-0.793-8.53,2.097-9.322,6.453l-15.905,87.48h-62.253v-88.98
	c0-6.995,2.724-13.571,7.67-18.518l15.623-15.623c0.004-0.004,0.009-0.009,0.013-0.013s0.009-0.007,0.013-0.012l37.074-37.076
	L310.19,30.787z M212.71,213.779v-18.171h86.58v18.171H212.71z M279.402,16.033L256,39.436l-23.402-23.402H279.402z M184.43,39.938
	l15.297-7.649c0.771-0.385,1.474-0.893,2.083-1.502l11.434-11.434l31.419,31.419l-9.966,9.966
	c-7.975,7.975-12.367,18.577-12.367,29.855v88.98h-10.947l-15.905-87.48c-0.792-4.356-4.964-7.245-9.322-6.453
	c-4.356,0.792-7.245,4.966-6.453,9.322l16.973,93.351v8.129L169.954,176.4V63.361C169.954,53.378,175.501,44.403,184.43,39.938z
	 M169.954,196.441l26.722,20.043v4.621l-2.564,14.8l-24.158-18.118V196.441z M193.494,349.644
	c1.376-33.002,6.134-65.985,14.146-98.031c0.048-0.19,0.089-0.382,0.122-0.575l3.678-21.225h10.89v266.154h-34.933L193.494,349.644z
	 M238.363,495.967V229.812h26.722v68.944c0,4.427,3.589,8.017,8.017,8.017c4.427,0,8.017-3.589,8.017-8.017v-68.944h19.441
	l3.678,21.225c0.033,0.193,0.074,0.385,0.122,0.576c8.011,32.046,12.771,65.029,14.146,98.031l6.097,146.322H238.363z
	 M317.888,235.905l-2.564-14.8v-4.621l26.722-20.043v21.346L317.888,235.905z"/>
<g>
</g>
<g>
</g>
<g>
</g>
<g>
</g>
<g>
</g>
<g>
</g>
<g>
</g>
<g>
</g>
<g>
</g>
<g>
</g>
<g>
</g>
<g>
</g>
<g>
</g>
<g>
</g>
<g>
</g>
</svg>
