<?xml version="1.0" encoding="iso-8859-1"?>
<!-- Generator: Adobe Illustrator 19.0.0, SVG Export Plug-In . SVG Version: 6.00 Build 0)  -->
<svg version="1.1" id="Layer_1" xmlns="http://www.w3.org/2000/svg" xmlns:xlink="http://www.w3.org/1999/xlink" x="0px" y="0px"
	 viewBox="0 0 512 512" style="enable-background:new 0 0 512 512;" xml:space="preserve">
<path style="fill:#5B5D6E;" d="M495.432,307.307H16.568c-4.722,0-8.551-3.829-8.551-8.551v-85.511c0-4.722,3.829-8.551,8.551-8.551
	h478.864c4.722,0,8.551,3.829,8.551,8.551v85.511C503.983,303.478,500.155,307.307,495.432,307.307z"/>
<g>
	<rect x="204.693" y="221.795" style="fill:#464655;" width="102.614" height="25.653"/>
	<path style="fill:#464655;" d="M495.432,204.693H384.267c18.891,0,34.205,15.314,34.205,34.205v34.205
		c0,18.891-15.314,34.205-34.205,34.205h111.165c4.722,0,8.551-3.829,8.551-8.551v-85.511
		C503.983,208.522,500.155,204.693,495.432,204.693z"/>
</g>
<path style="fill:#F5DCB4;" d="M315.858,187.591H196.142c-14.168,0-25.653,11.485-25.653,25.653v85.511
	c0,14.168,11.485,25.653,25.653,25.653h119.716c14.168,0,25.653-11.485,25.653-25.653v-85.511
	C341.511,199.076,330.026,187.591,315.858,187.591z M307.307,290.205H204.693v-68.409h102.614V290.205z"/>
<path d="M247.449,247.983h-0.086c-4.428,0-7.974,3.588-7.974,8.017c0,4.428,3.631,8.017,8.059,8.017
	c4.428,0,8.017-3.588,8.017-8.017C255.466,251.572,251.877,247.983,247.449,247.983z"/>
<path d="M119.267,247.983h-0.086c-4.428,0-7.974,3.588-7.974,8.017c0,4.428,3.631,8.017,8.059,8.017s8.017-3.588,8.017-8.017
	C127.284,251.572,123.696,247.983,119.267,247.983z"/>
<path d="M452.676,247.983h-0.086c-4.428,0-7.974,3.588-7.974,8.017c0,4.428,3.631,8.017,8.059,8.017s8.017-3.588,8.017-8.017
	C460.693,251.572,457.105,247.983,452.676,247.983z"/>
<path d="M59.409,247.983h-0.086c-4.428,0-7.974,3.588-7.974,8.017c0,4.428,3.631,8.017,8.059,8.017s8.017-3.588,8.017-8.017
	C67.426,251.572,63.838,247.983,59.409,247.983z"/>
<path d="M495.432,196.676h-150.28c-5.792-10.2-16.749-17.102-29.294-17.102H196.142c-12.546,0-23.502,6.902-29.294,17.102H16.568
	C7.432,196.676,0,204.108,0,213.244v85.511c0,9.136,7.432,16.568,16.568,16.568h150.28c5.792,10.2,16.748,17.102,29.294,17.102
	h119.716c12.546,0,23.502-6.902,29.294-17.102h150.28c9.136,0,16.568-7.432,16.568-16.568v-85.511
	C512,204.108,504.568,196.676,495.432,196.676z M16.568,299.29c-0.294,0-0.534-0.241-0.534-0.534v-85.511
	c0-0.294,0.241-0.534,0.534-0.534h145.918c-0.003,0.179-0.014,0.355-0.014,0.534v85.511c0,0.18,0.011,0.356,0.014,0.534H16.568z
	 M315.858,316.392H196.142c-9.725,0-17.637-7.912-17.637-17.637v-85.511c0-9.725,7.912-17.637,17.637-17.637h119.716
	c9.725,0,17.637,7.912,17.637,17.637v34.739h-18.171v-26.188c0-4.428-3.588-8.017-8.017-8.017H204.693
	c-4.428,0-8.017,3.588-8.017,8.017v68.409c0,4.428,3.588,8.017,8.017,8.017h102.614c4.428,0,8.017-3.588,8.017-8.017v-26.188h18.171
	v34.739C333.495,308.481,325.583,316.392,315.858,316.392z M290.205,264.017h9.086v18.171h-86.58v-52.376h86.58v18.171h-9.086
	c-4.428,0-8.017,3.588-8.017,8.017C282.188,260.428,285.776,264.017,290.205,264.017z M349.528,298.756v-85.511
	c0-0.18-0.011-0.356-0.014-0.534h34.753c14.441,0,26.188,11.747,26.188,26.188v34.205c0,14.441-11.747,26.188-26.188,26.188h-34.753
	C349.517,299.112,349.528,298.935,349.528,298.756z M495.967,298.756c0,0.294-0.241,0.534-0.534,0.534h-78.084
	c5.714-7.203,9.14-16.301,9.14-26.188v-34.205c0-9.887-3.426-18.985-9.14-26.188h78.084c0.294,0,0.534,0.24,0.534,0.534V298.756z"/>
<g>
</g>
<g>
</g>
<g>
</g>
<g>
</g>
<g>
</g>
<g>
</g>
<g>
</g>
<g>
</g>
<g>
</g>
<g>
</g>
<g>
</g>
<g>
</g>
<g>
</g>
<g>
</g>
<g>
</g>
</svg>
