<?xml version="1.0" encoding="iso-8859-1"?>
<!-- Generator: Adobe Illustrator 19.0.0, SVG Export Plug-In . SVG Version: 6.00 Build 0)  -->
<svg version="1.1" id="Layer_1" xmlns="http://www.w3.org/2000/svg" xmlns:xlink="http://www.w3.org/1999/xlink" x="0px" y="0px"
	 viewBox="0 0 512 512" style="enable-background:new 0 0 512 512;" xml:space="preserve">
<path style="fill:#7F8499;" d="M409.922,25.12l-34.205-8.552H136.285L102.08,25.12c0,76.96-34.205,128.266-34.205,128.266
	c25.653,171.023,42.756,350.597,42.756,350.597h290.739c0,0,17.102-179.574,42.756-350.597
	C444.126,153.386,409.922,102.079,409.922,25.12z"/>
<path style="fill:#707487;" d="M136.286,8.017c-0.001,46.2,35.628,85.249,84.613,98.109l0.897-1.196v399.053h68.409V104.93
	l0.898,1.197c48.984-12.862,84.614-51.911,84.614-98.111H136.286z"/>
<path style="fill:#5B5D6E;" d="M170.489,8.017c0,28.336,38.286,51.307,85.511,51.307c47.228,0,85.511-22.971,85.511-51.307H170.489z
	"/>
<g>
	<path style="fill:#707487;" d="M127.729,18.707l-25.649,6.413c0,76.96-34.205,128.266-34.205,128.266
		c1.897,12.652,3.743,25.348,5.545,38.018c5.433-7.873,10.717-15.804,15.799-23.788c1.57-2.359,38.513-58.73,38.513-142.513
		L127.729,18.707z"/>
	<path style="fill:#707487;" d="M384.246,18.707l25.649,6.413c0,76.96,34.205,128.266,34.205,128.266
		c-1.897,12.652-3.743,25.348-5.545,38.018c-5.433-7.873-10.717-15.804-15.799-23.788c-1.57-2.359-38.513-58.73-38.513-142.513
		L384.246,18.707z"/>
</g>
<path d="M450.802,148.948c-0.328-0.496-32.864-50.427-32.864-123.829c0-3.678-2.503-6.885-6.072-7.777l-28.185-7.046
	c0.018-0.76,0.052-1.517,0.052-2.279c0-4.427-3.589-8.017-8.017-8.017H136.284c-4.427,0-8.017,3.589-8.017,8.017
	c0,0.762,0.035,1.519,0.052,2.279l-28.185,7.046c-3.568,0.893-6.072,4.099-6.072,7.777c0,73.402-32.535,123.333-32.858,123.821
	c-1.105,1.657-1.553,3.666-1.258,5.635c25.326,168.84,42.532,348.375,42.703,350.168c0.392,4.114,3.848,7.257,7.98,7.257H401.37
	c4.133,0,7.589-3.143,7.98-7.257c0.171-1.794,17.375-181.312,42.703-350.168C452.348,152.612,451.898,150.603,450.802,148.948z
	 M348.69,16.033h18.616c-1.723,17.489-9.088,34.033-21.556,48.256c-13.016,14.847-31.169,26.302-51.544,32.614l-22.76-30.347
	C312.202,62.427,343.35,42.157,348.69,16.033z M163.31,16.033c5.341,26.124,36.488,46.393,77.245,50.523l-22.76,30.347
	c-20.375-6.311-38.528-17.767-51.544-32.614c-12.469-14.224-19.833-30.767-21.556-48.256H163.31z M247.983,495.967h-130.08
	c-3.47-35.121-19.388-191.69-41.66-340.832c6.935-11.453,32.247-57.636,33.781-123.738l19.988-4.997
	c3.362,17.552,11.55,34.051,24.182,48.458c15.105,17.231,36.114,30.443,59.585,37.577v357.344c0,4.427,3.589,8.017,8.017,8.017
	s8.017-3.589,8.017-8.017V107.602l18.17-24.229V495.967z M179.922,16.033h152.159c-6.952,19.793-38.961,35.273-76.08,35.273
	S186.874,35.826,179.922,16.033z M394.098,495.967H264.017V83.374l18.171,24.229v362.176c0,4.427,3.589,8.017,8.017,8.017
	s8.017-3.589,8.017-8.017V112.435c23.472-7.134,44.48-20.347,59.585-37.577c12.631-14.408,20.82-30.906,24.182-48.458l19.988,4.997
	c1.534,66.103,26.846,112.284,33.781,123.738C413.486,304.277,397.568,460.846,394.098,495.967z"/>
<g>
</g>
<g>
</g>
<g>
</g>
<g>
</g>
<g>
</g>
<g>
</g>
<g>
</g>
<g>
</g>
<g>
</g>
<g>
</g>
<g>
</g>
<g>
</g>
<g>
</g>
<g>
</g>
<g>
</g>
</svg>
