<?xml version="1.0" encoding="iso-8859-1"?>
<!-- Generator: Adobe Illustrator 19.0.0, SVG Export Plug-In . SVG Version: 6.00 Build 0)  -->
<svg version="1.1" id="Layer_1" xmlns="http://www.w3.org/2000/svg" xmlns:xlink="http://www.w3.org/1999/xlink" x="0px" y="0px"
	 viewBox="0 0 512 512" style="enable-background:new 0 0 512 512;" xml:space="preserve">
<path style="fill:#EBC9A0;" d="M492.948,422.136c-22.959,7.088-79.747,21.989-151.437,21.989c-76.96,0-136.818-8.551-213.779-8.551
	H16.568c-4.722,0-8.551,3.829-8.551,8.551v25.653c0,4.722,3.829,8.551,8.551,8.551h290.739c96.725,0,159.413-14.588,184.394-21.763
	c7.306-2.098,12.283-8.81,12.283-16.412v-9.841C503.983,424.553,498.453,420.435,492.948,422.136z"/>
<path style="fill:#FFF082;" d="M31.323,310.074c-4.402,22.145-13.55,80.442-14.644,125.5h111.054
	c76.96,0,136.818,8.551,213.779,8.551c71.689,0,128.478-14.901,151.437-21.989c0.269-0.083,0.537-0.091,0.806-0.146l-7.1-21.3
	c-5.227-15.677-17.684-27.878-33.467-32.777l-204.791-63.556c-10.735-3.331-18.05-13.261-18.05-24.501V42.221
	c0-4.722-3.829-8.551-8.551-8.551H16.653c-4.756,0-8.641,3.816-8.58,8.571C9.184,128.025,26.255,249.2,31.885,287.018
	C33.03,294.714,32.84,302.441,31.323,310.074z"/>
<path d="M505.269,416.96c-0.76-0.56-1.564-1.024-2.385-1.441c-0.003-0.009-0.005-0.016-0.009-0.025l-9.536-23.841
	c-5.711-14.274-17.408-25.076-32.092-29.634L250.773,296.7c-2.083-0.647-3.965-1.655-5.608-2.928
	c-0.531-0.666-1.178-1.248-1.92-1.726c-3.062-3.197-4.882-7.507-4.882-12.189V42.221c0-9.136-7.432-16.568-16.568-16.568H16.652
	c-4.499,0-8.709,1.756-11.858,4.945c-3.112,3.152-4.793,7.324-4.736,11.746c1.121,86.666,18.56,209.999,23.88,245.734
	c1.017,6.839,0.848,13.755-0.502,20.553C19.148,330.216,9.421,383.864,8.611,429.6C3.485,432.42,0,437.872,0,444.125v25.653
	c0,9.136,7.432,16.568,16.568,16.568h290.739c32.996,0,117.232-2.152,186.606-22.074C504.563,461.215,512,451.296,512,440.155
	v-9.841C512,424.984,509.547,420.116,505.269,416.96z M456.495,377.334c10.048,3.118,18.051,10.508,21.958,20.276l7.324,18.31
	c-24.066,7.053-77.821,20.188-144.265,20.188c-38.23,0-72.88-2.166-106.389-4.26c-31.408-1.962-63.817-3.986-99.373-4.258v-53.316
	c42.257-5.828,69.481-24.016,85.116-38.673c10.236-9.597,16.92-18.885,20.851-25.274c1.384,0.645,2.812,1.223,4.304,1.686
	L456.495,377.334z M222.33,42.221v237.635c0,7.558,2.482,14.613,6.78,20.304c-3.109,5.338-9.377,14.655-19.799,24.293
	c-19.407,17.947-44.131,29.217-73.561,33.613V41.687h86.046C222.089,41.687,222.33,41.927,222.33,42.221z M16.09,42.137
	c0-0.055-0.002-0.156,0.114-0.275c0.079-0.08,0.221-0.175,0.448-0.175h103.064v385.871H24.687
	c1.062-43.905,10.346-95.016,14.475-115.804c1.71-8.609,1.923-17.368,0.634-26.035C34.516,250.233,17.198,127.799,16.09,42.137z
	 M495.967,440.155c0,4.031-2.664,7.611-6.48,8.706c-67.416,19.361-149.863,21.452-182.18,21.452H16.568
	c-0.294,0-0.534-0.241-0.534-0.534v-25.653c0-0.294,0.241-0.534,0.534-0.534h111.165c38.23,0,72.88,2.166,106.389,4.26
	c33.755,2.11,68.659,4.292,107.39,4.292c73.481,0,132.036-15.627,153.801-22.346c0.001,0,0.001,0,0.001,0
	c0.091-0.028,0.245-0.076,0.437,0.067c0.216,0.158,0.216,0.363,0.216,0.451V440.155z"/>
<g>
</g>
<g>
</g>
<g>
</g>
<g>
</g>
<g>
</g>
<g>
</g>
<g>
</g>
<g>
</g>
<g>
</g>
<g>
</g>
<g>
</g>
<g>
</g>
<g>
</g>
<g>
</g>
<g>
</g>
</svg>
