<?xml version="1.0" encoding="iso-8859-1"?>
<!-- Generator: Adobe Illustrator 19.0.0, SVG Export Plug-In . SVG Version: 6.00 Build 0)  -->
<svg version="1.1" id="Layer_1" xmlns="http://www.w3.org/2000/svg" xmlns:xlink="http://www.w3.org/1999/xlink" x="0px" y="0px"
	 viewBox="0 0 512 512" style="enable-background:new 0 0 512 512;" xml:space="preserve">
<path style="fill:#DCB991;" d="M256,247.449L221.795,84.977c0,0-34.23,0-42.781,34.205l8.577,94.063L256,247.449z"/>
<path style="fill:#F09846;" d="M490.795,338.623c-2.142-17.134-16.67-30.035-33.937-29.954
	c-29.443,0.139-85.222-2.722-132.449-18.465L196.142,187.591l-42.756-68.409l-66.429,22.143c-6.976,2.325-14.28,3.51-21.633,3.51
	H42.221c-14.168,0-25.653,11.485-25.653,25.653v205.228l393.353,34.205l85.511-34.205L490.795,338.623z"/>
<path style="fill:#AA6455;" d="M170.489,247.449l-17.102-128.267l-66.429,22.143c-6.976,2.325-14.28,3.51-21.633,3.51H42.221
	c-14.168,0-25.653,11.485-25.653,25.653v76.96H170.489z"/>
<path style="fill:#DC8C46;" d="M161.937,367.165c42.756-51.307,109.205-49.922,134.108-45.319
	c6.975,1.289,13.974-1.957,17.623-8.039l15.447-25.744c2.202-3.671,1.351-8.403-1.99-11.077L204.693,179.04l-10.88-43.522
	c-3.436-13.745-17.364-22.102-31.109-18.666l-9.318,2.33l8.92,44.599c4.233,21.165-11.956,40.913-33.541,40.913H67.875
	c-28.336,0-51.307,22.971-51.307,51.307l0,0v102.614L161.937,367.165z"/>
<path style="fill:#EBC9A0;" d="M367.165,384.267c-125.673,0-211.49-32.835-350.473-34.163c-4.75-0.045-8.675,3.831-8.675,8.582
	v59.785c0,4.722,3.829,8.551,8.551,8.551h136.818c4.722,0,8.551-3.829,8.551-8.551v-13.272
	c67.552,9.795,129.103,21.824,205.228,21.824c68.117,0,114.531-10.853,130.594-15.267c3.699-1.017,6.224-4.393,6.224-8.23v-25.069
	c0-5.577-5.198-9.68-10.601-8.297C474.218,375.064,429.895,384.267,367.165,384.267z"/>
<path style="fill:#DCB991;" d="M161.937,398.163c-46.263-6.697-95.346-13.896-153.921-13.896v34.205
	c0,4.722,3.829,8.551,8.551,8.551h136.818c4.722,0,8.551-3.829,8.551-8.551V398.163z"/>
<path d="M505.59,365.338c-0.806-0.625-1.665-1.145-2.549-1.604l-3.834-26.839c-2.959-20.706-20.819-36.245-41.603-36.245
	c-0.083,0-0.168,0-0.25,0c-29.232,0.192-72.762-2.591-116.807-16.423c1.067-3.137,0.103-6.691-2.577-8.835l-83.23-66.585
	L229.656,83.405c-0.749-3.748-4.039-6.444-7.861-6.444c-1.223,0-30.165,0.332-49.426,29.224c-0.417,0.625-0.727,1.29-0.948,1.972
	c-3.534-0.259-7.137-0.013-10.661,0.919c-18.329,4.851-76.337,24.644-76.337,24.644c-6.17,2.055-12.596,3.099-19.099,3.099H42.221
	c-18.566,0-33.67,15.105-33.67,33.67v173.692c-1.306,0.734-2.529,1.639-3.626,2.726C1.75,350.052,0,354.236,0,358.685v59.786
	c0,9.136,7.432,16.568,16.568,16.568h136.818c9.136,0,16.568-7.432,16.568-16.568v-3.992c9.119,1.356,18.173,2.745,27.003,4.1
	c55.158,8.465,107.258,16.46,170.207,16.46c68.71,0,115.703-10.877,132.719-15.553c7.134-1.96,12.116-8.524,12.116-15.961v-25.069
	C512,373.282,509.663,368.501,505.59,365.338z M457.448,316.684c0.052,0,0.103,0,0.155,0c12.849,0,23.896,9.638,25.73,22.479
	l3.48,24.363c-21.752,5.214-62.933,12.724-119.649,12.724c-61.653,0-113.086-7.899-167.539-16.262
	c-5.539-0.851-11.098-1.704-16.686-2.551c16.375-15.023,52.669-38.609,111.649-27.708c10.166,1.879,20.593-2.864,25.954-11.798
	l11.715-19.525C379.465,313.822,426.301,316.866,457.448,316.684z M215.406,93.907l19.866,99.33l-23.458-18.765l-10.224-40.897
	c-2.113-8.454-7.301-15.611-14.634-20.258C196.405,100.235,208.238,95.56,215.406,93.907z M170.167,162.208l-7.42-37.103
	l1.902-0.476c4.568-1.142,9.312-0.436,13.35,1.987c4.039,2.424,6.893,6.275,8.037,10.845l10.88,43.522
	c0.425,1.703,1.398,3.219,2.77,4.316l31.011,24.809l-14.569,14.569c-3.131,3.131-3.131,8.207,0,11.337
	c1.565,1.565,3.617,2.348,5.668,2.348s4.103-0.782,5.668-2.348l15.829-15.829l9.573,7.659l-13.936,13.936
	c-3.131,3.131-3.131,8.207,0,11.337c1.565,1.565,3.617,2.348,5.668,2.348c2.051,0,4.103-0.782,5.668-2.348l15.195-15.195
	l9.573,7.659l-13.302,13.302c-3.131,3.131-3.131,8.207,0,11.337c1.565,1.565,3.617,2.348,5.668,2.348
	c2.051,0,4.103-0.782,5.668-2.348l14.563-14.563l9.573,7.659l-12.67,12.67c-3.131,3.131-3.131,8.207,0,11.337
	c1.565,1.565,3.617,2.348,5.668,2.348s4.103-0.782,5.668-2.348l13.929-13.929l12.679,10.144l-15.687,26.145
	c-1.938,3.229-5.669,4.949-9.292,4.281c-20.076-3.711-88.985-11.723-134.091,40.568c-42.169-6.119-86.812-11.387-138.826-12.33V256
	c0-23.871,19.42-43.29,43.29-43.29h60.891c12.7,0,24.601-5.633,32.651-15.454C169.468,187.435,172.657,174.66,170.167,162.208z
	 M24.585,170.489c0-9.725,7.912-17.637,17.637-17.637h23.103c8.229,0,16.362-1.319,24.168-3.922l57.813-19.271l7.138,35.694
	c1.545,7.724-0.433,15.648-5.427,21.739s-12.376,9.585-20.252,9.585h-60.89c-17.064,0-32.457,7.251-43.29,18.823V170.489z
	 M495.967,403.525c0,0.245-0.134,0.446-0.332,0.5c-16.388,4.504-61.712,14.981-128.469,14.981
	c-61.726,0-113.239-7.906-167.776-16.274c-11.816-1.814-24.033-3.689-36.301-5.467c-0.384-0.056-0.767-0.083-1.15-0.083
	c-1.914,0-3.78,0.686-5.246,1.955c-1.759,1.522-2.771,3.735-2.771,6.062v13.274c0,0.295-0.239,0.534-0.534,0.534H16.569
	c-0.295,0-0.534-0.239-0.534-0.534v-59.786c0-0.142,0.059-0.273,0.176-0.389c0.12-0.12,0.269-0.172,0.405-0.177
	c69.551,0.665,125.994,9.333,180.577,17.716c55.075,8.459,107.096,16.449,169.972,16.449c62.73,0,107.25-8.996,128.204-14.357
	c0.082-0.021,0.218-0.056,0.388,0.076c0.21,0.163,0.21,0.374,0.21,0.454L495.967,403.525L495.967,403.525z"/>
<g>
</g>
<g>
</g>
<g>
</g>
<g>
</g>
<g>
</g>
<g>
</g>
<g>
</g>
<g>
</g>
<g>
</g>
<g>
</g>
<g>
</g>
<g>
</g>
<g>
</g>
<g>
</g>
<g>
</g>
</svg>
