<?xml version="1.0" encoding="iso-8859-1"?>
<!-- Generator: Adobe Illustrator 19.0.0, SVG Export Plug-In . SVG Version: 6.00 Build 0)  -->
<svg version="1.1" id="Layer_1" xmlns="http://www.w3.org/2000/svg" xmlns:xlink="http://www.w3.org/1999/xlink" x="0px" y="0px"
	 viewBox="0 0 512.001 512.001" style="enable-background:new 0 0 512.001 512.001;" xml:space="preserve">
<path style="fill:#F09846;" d="M375.716,486.881c0,0-25.653,17.102-85.512,17.102c-49.748,0-67.338-32.158-138.518-49.702
	c-3.99-0.983-6.828-4.588-6.598-8.691c0.654-11.695,3.001-36.42,11.433-63.204c3.362-10.68,4.948-21.785,4.149-32.953
	c-4.593-64.304-20.283-283.972-23.718-332.062c-0.362-5.076,3.83-9.294,8.905-8.918c14.099,1.044,40.728,4.595,58.835,16.667l0,0
	c0-9.445,7.658-17.102,17.102-17.102h94.063l-48.01,320.071c-2.235,14.899-1.148,30.079,3.135,44.523
	c7.475,25.204,19.801,63.544,27.773,71.515c14.281,14.281,42.292,8.38,59.597,12.941c5.294,1.395,9.328,5.707,11.059,10.901
	L375.716,486.881z"/>
<polygon style="fill:#464655;" points="150.179,453.745 161.937,503.983 187.59,503.983 187.59,452.676 "/>
<path style="fill:#DC8C46;" d="M204.693,350.063c0-18.615,0-217.303,0-324.944C179.089,8.051,136.449,8.015,136.283,8.017
	c0,0,19.228,269.216,24.39,341.478c0.794,11.119-0.778,22.178-4.129,32.811c-8.451,26.814-10.803,51.578-11.457,63.285
	c-0.23,4.103,2.607,7.708,6.599,8.691c17.901,4.412,32.405,9.749,44.891,15.266C200.703,416.731,204.693,362.453,204.693,350.063z"
	/>
<path d="M383.322,484.346l-8.551-25.653c-0.481-1.442-1.361-2.717-2.539-3.677c-8.629-7.037-21.065-7.601-34.23-8.199
	c-12.987-0.59-26.418-1.199-33.576-8.359c-1.318-1.317-8.753-10.796-25.757-68.125c-3.987-13.45-4.962-27.263-2.892-41.055
	l48.01-320.069c0.346-2.308-0.331-4.653-1.853-6.421C320.41,1.017,318.192,0,315.857,0h-94.063c-9.509,0-17.801,5.312-22.066,13.124
	C172.798,0.166,137.928,0,136.283,0c-2.225,0-4.35,0.925-5.867,2.554c-1.516,1.629-2.287,3.815-2.128,6.035l24.386,341.416
	c0.69,9.682-0.588,19.766-3.801,29.975c-8.621,27.387-11.088,52.582-11.79,65.163c-0.299,5.342,2.059,10.326,6.029,13.586
	l11.019,47.083c0.849,3.627,4.082,6.19,7.806,6.19h25.653c4.428,0,8.017-3.588,8.017-8.017v-26.09
	c9.45,4.276,17.761,8.654,25.619,12.796C242.92,502.124,261.656,512,290.204,512c61.577,0,88.829-17.696,89.958-18.449
	C383.171,491.546,384.464,487.776,383.322,484.346z M144.921,16.422c12.285,0.884,35.146,3.771,51.755,13.179v320.461
	c0,19.748-5.262,81.957-7.514,107.684c-10.302-4.05-21.945-7.894-35.559-11.249c-0.05-0.013-0.093-0.034-0.138-0.053
	c-0.029-0.013-0.059-0.026-0.089-0.038c-0.181-0.104-0.292-0.254-0.285-0.369c0.661-11.832,2.979-35.521,11.076-61.244
	c3.82-12.139,5.334-24.229,4.498-35.93L144.921,16.422z M168.295,495.967l-7.224-30.864c6.655,1.939,12.788,4.006,18.504,6.151
	v24.713H168.295z M290.204,495.967c-24.58,0-40.873-8.587-61.502-19.461c-7.435-3.919-15.258-8.04-24.03-12.107
	c1.906-21.444,8.037-92.14,8.037-114.335V25.119c0-5.01,4.076-9.086,9.086-9.086h84.754l-46.629,310.864
	c-2.42,16.13-1.283,32.275,3.377,47.991c19.022,64.136,27.127,72.241,29.79,74.905c11.558,11.557,28.892,12.344,44.188,13.037
	c8.892,0.404,18.057,0.821,23.146,3.512l5.56,16.683C353.827,488.605,328.115,495.967,290.204,495.967z"/>
<g>
</g>
<g>
</g>
<g>
</g>
<g>
</g>
<g>
</g>
<g>
</g>
<g>
</g>
<g>
</g>
<g>
</g>
<g>
</g>
<g>
</g>
<g>
</g>
<g>
</g>
<g>
</g>
<g>
</g>
</svg>
