<?xml version="1.0" encoding="iso-8859-1"?>
<!-- Generator: Adobe Illustrator 19.0.0, SVG Export Plug-In . SVG Version: 6.00 Build 0)  -->
<svg version="1.1" id="Layer_1" xmlns="http://www.w3.org/2000/svg" xmlns:xlink="http://www.w3.org/1999/xlink" x="0px" y="0px"
	 viewBox="0 0 512 512" style="enable-background:new 0 0 512 512;" xml:space="preserve">
<path style="fill:#D74B55;" d="M16.568,230.347c-4.722,0-8.551,3.829-8.551,8.551v34.205c0,4.722,3.829,8.551,8.551,8.551H76.4
	v-51.307H16.568z"/>
<path style="fill:#C8414B;" d="M76.4,230.347H43.678c-0.875,8.485-1.483,17.038-1.483,25.653c0,8.615,0.606,17.169,1.483,25.653
	H76.4V230.347z"/>
<path style="fill:#D74B55;" d="M495.432,281.654c4.722,0,8.551-3.829,8.551-8.551v-34.205c0-4.722-3.829-8.551-8.551-8.551h-59.884
	v51.307H495.432z"/>
<path style="fill:#C8414B;" d="M435.548,281.654h32.722c0.875-8.485,1.483-17.038,1.483-25.653c0-8.615-0.606-17.169-1.483-25.653
	h-32.722V281.654z"/>
<g>
	<path style="fill:#FF5A64;" d="M186.43,206.77c-10.568-7.046-22.125-12.483-34.292-16.133l-52.027-15.609
		c-8.719-2.616-18.115,1.985-21.048,10.602c-7.11,20.898-11.188,44.847-11.188,70.368s4.077,49.472,11.188,70.368
		c2.933,8.618,12.329,13.218,21.048,10.602l52.027-15.608c12.167-3.65,23.724-9.087,34.292-16.133l52.443-32.128v-34.205
		L186.43,206.77z"/>
	<path style="fill:#FF5A64;" d="M432.938,185.632c-2.932-8.618-12.329-13.219-21.048-10.602l-52.027,15.609
		c-12.166,3.65-23.723,9.087-34.293,16.133l-52.493,32.127v34.205l52.492,32.128c10.57,7.046,22.127,12.484,34.293,16.133
		l52.027,15.608c8.719,2.616,18.116-1.984,21.048-10.602c7.111-20.898,11.187-44.846,11.187-70.368S440.05,206.53,432.938,185.632z"
		/>
</g>
<g>
	<path style="fill:#D74B55;" d="M281.652,278.352l27.728,16.971c4-6.471,6.476-13.966,6.476-22.136v-34.205
		c0-8.221-2.508-15.759-6.553-22.257l-27.651,16.924V278.352z"/>
	<path style="fill:#D74B55;" d="M230.345,233.675l-27.655-16.943c-4.043,6.496-6.549,14.031-6.549,22.249v34.205
		c0,8.167,2.475,15.66,6.473,22.129l27.731-16.989V233.675z"/>
</g>
<path style="fill:#FF5A64;" d="M273.102,290.205h-34.205c-9.446,0-17.102-7.656-17.102-17.102v-34.205
	c0-9.446,7.656-17.102,17.102-17.102h34.205c9.446,0,17.102,7.656,17.102,17.102v34.205
	C290.205,282.548,282.548,290.205,273.102,290.205z"/>
<path d="M495.432,222.33h-45.659c-1.937-13.672-5.04-26.922-9.246-39.282c-4.325-12.71-17.915-19.608-30.941-15.699l-52.027,15.608
	c-12.938,3.881-25.197,9.648-36.435,17.141l-30.802,20.536c-4.5-4.246-10.559-6.856-17.219-6.856h-34.205
	c-6.66,0-12.719,2.61-17.219,6.856l-30.802-20.536c-11.238-7.493-23.497-13.26-36.435-17.141l-52.027-15.608
	c-13.028-3.908-26.615,2.988-30.941,15.699c-4.206,12.36-7.309,25.609-9.246,39.282H16.568C7.432,222.33,0,229.762,0,238.898v34.205
	c0,9.136,7.432,16.568,16.568,16.568h45.659c1.937,13.672,5.04,26.922,9.246,39.282c3.507,10.307,13.107,16.79,23.557,16.79
	c2.437,0,4.921-0.353,7.384-1.091l52.027-15.608c12.938-3.881,25.197-9.648,36.435-17.141l30.802-20.536
	c4.5,4.246,10.559,6.856,17.219,6.856h34.205c6.66,0,12.719-2.61,17.219-6.856l30.802,20.536
	c11.238,7.493,23.497,13.26,36.435,17.141l52.027,15.608c2.464,0.739,4.946,1.091,7.384,1.091c10.449,0,20.05-6.484,23.557-16.79
	c4.206-12.36,7.309-25.609,9.246-39.282h45.659c9.136,0,16.568-7.432,16.568-16.568v-34.205
	C512,229.762,504.568,222.33,495.432,222.33z M16.568,273.637c-0.295,0-0.534-0.239-0.534-0.534v-34.205
	c0-0.295,0.239-0.534,0.534-0.534h43.944c-0.428,5.848-0.654,11.736-0.654,17.637c0,5.9,0.227,11.789,0.654,17.637H16.568z
	 M181.983,298.562c-9.916,6.611-20.733,11.699-32.15,15.124l-52.027,15.608c-4.641,1.392-9.648-1.076-11.155-5.506
	C79.612,303.101,75.891,279.66,75.891,256s3.721-47.1,10.759-67.786c1.507-4.429,6.513-6.898,11.155-5.506l52.027,15.608
	c11.417,3.425,22.233,8.514,32.15,15.124l32.125,21.417c-0.125,0.77-0.213,1.55-0.266,2.341l-58.512-14.628
	c-4.291-1.073-8.647,1.537-9.722,5.833c-1.074,4.295,1.537,8.647,5.833,9.722l62.338,15.583v4.584l-62.337,15.584
	c-4.296,1.073-6.907,5.427-5.833,9.722c0.911,3.643,4.179,6.075,7.771,6.075c0.643,0,1.298-0.078,1.951-0.242l58.512-14.628
	c0.053,0.791,0.141,1.572,0.266,2.341L181.983,298.562z M273.102,282.188h-34.205c-5.01,0-9.086-4.076-9.086-9.086v-34.205
	c0-5.01,4.076-9.086,9.086-9.086h34.205c5.01,0,9.086,4.076,9.086,9.086v34.205C282.188,278.113,278.112,282.188,273.102,282.188z
	 M425.349,323.787c-1.508,4.428-6.513,6.898-11.155,5.506l-52.027-15.608c-11.417-3.425-22.233-8.514-32.15-15.124l-32.125-21.417
	c0.125-0.77,0.213-1.55,0.266-2.341l58.512,14.628c0.652,0.164,1.306,0.242,1.951,0.242c3.591,0,6.86-2.432,7.771-6.075
	c1.074-4.295-1.537-8.647-5.833-9.722l-62.338-15.583v-4.584l62.337-15.584c4.296-1.073,6.907-5.427,5.833-9.722
	c-1.074-4.296-5.429-6.91-9.722-5.833l-58.512,14.629c-0.053-0.791-0.141-1.572-0.266-2.341l32.125-21.417
	c9.916-6.611,20.733-11.699,32.15-15.124l52.027-15.608c4.638-1.393,9.648,1.076,11.155,5.506
	c7.04,20.686,10.761,44.126,10.761,67.786C436.109,279.66,432.388,303.101,425.349,323.787z M495.967,273.103
	c0,0.295-0.239,0.534-0.534,0.534h-43.944c0.429-5.848,0.654-11.736,0.654-17.637c0-5.9-0.227-11.789-0.654-17.637h43.944
	c0.295,0,0.534,0.239,0.534,0.534V273.103z"/>
<g>
</g>
<g>
</g>
<g>
</g>
<g>
</g>
<g>
</g>
<g>
</g>
<g>
</g>
<g>
</g>
<g>
</g>
<g>
</g>
<g>
</g>
<g>
</g>
<g>
</g>
<g>
</g>
<g>
</g>
</svg>
