<?xml version="1.0" encoding="iso-8859-1"?>
<!-- Generator: Adobe Illustrator 19.0.0, SVG Export Plug-In . SVG Version: 6.00 Build 0)  -->
<svg version="1.1" id="Layer_1" xmlns="http://www.w3.org/2000/svg" xmlns:xlink="http://www.w3.org/1999/xlink" x="0px" y="0px"
	 viewBox="0 0 512 512" style="enable-background:new 0 0 512 512;" xml:space="preserve">
<polygon style="fill:#F5DCB4;" points="469.233,396.932 460.692,473.801 50.713,473.801 42.172,396.93 42.172,371.306 
	469.207,371.306 "/>
<g>
	<rect x="42.147" y="38.199" style="fill:#FAEBC8;" width="34.165" height="187.907"/>
	<rect x="435.047" y="38.199" style="fill:#FAEBC8;" width="34.165" height="187.907"/>
	<rect x="204.455" y="320.061" style="fill:#FAEBC8;" width="102.495" height="51.247"/>
	<path style="fill:#FAEBC8;" d="M239.215,368.815c-22.082-82.166-86.76-146.846-168.927-168.927
		c-41.121,23.635-67.463,70.087-61.42,122.154c6.522,56.194,52.005,101.674,108.199,108.194
		C169.132,436.275,215.58,409.934,239.215,368.815z"/>
</g>
<path style="fill:#F7E3BE;" d="M70.288,199.887c-12.814,7.365-24.145,16.987-33.556,28.264
	c90.216,12.657,161.562,84.004,174.219,174.219c11.277-9.411,20.899-20.742,28.264-33.557
	C217.133,286.647,152.454,221.969,70.288,199.887z"/>
<path style="fill:#FAEBC8;" d="M272.19,368.816c22.081-82.166,86.76-146.846,168.927-168.928
	c41.122,23.635,67.464,70.088,61.42,122.155c-6.522,56.194-52.005,101.674-108.199,108.193
	C342.273,436.275,295.825,409.934,272.19,368.816z"/>
<path style="fill:#F7E3BE;" d="M441.117,199.887c12.815,7.365,24.145,16.987,33.556,28.264
	c-90.216,12.657-161.562,84.004-174.219,174.219c-11.277-9.411-20.898-20.742-28.264-33.556
	C294.272,286.648,358.95,221.969,441.117,199.887z"/>
<polygon style="fill:#FAEBC8;" points="46.918,439.636 50.712,473.801 460.691,473.801 464.488,439.636 "/>
<path d="M512,307.247c0-33.006-12.542-64.422-34.165-88.35V38.199c0-4.422-3.585-8.007-8.007-8.007h-34.165
	c-4.422,0-8.007,3.585-8.007,8.007v157.504c-60.302,19.549-110.477,61.658-140.568,116.348h-62.175
	c-30.091-54.69-80.266-96.799-140.568-116.347V38.199c0-4.422-3.585-8.007-8.007-8.007H42.172c-4.422,0-8.007,3.585-8.007,8.007
	v180.698C12.542,242.826,0,274.242,0,307.247c0,34.06,12.982,65.146,34.257,88.568l8.495,78.843c0.439,4.067,3.871,7.15,7.961,7.15
	h409.978c4.09,0,7.523-3.083,7.961-7.15l8.417-78.119C498.741,373.035,512,341.662,512,307.247z M457.181,431.629h-33.279
	c12.786-4.512,24.677-10.935,35.319-18.937L457.181,431.629z M52.129,412.195c10.809,8.231,22.92,14.831,35.967,19.434H54.224
	L52.129,412.195z M242.143,379.314h27.712c16.064,24.534,39.713,42.782,66.766,52.315H175.378
	C202.431,422.096,226.08,403.847,242.143,379.314z M380.145,423.088c-26.391,0-51.634-9.122-71.808-25.092
	c6.827-40.748,25.913-77.741,55.352-107.185c29.446-29.45,66.447-48.544,107.205-55.372c15.969,20.174,25.091,45.418,25.091,71.808
	C495.985,371.122,444.019,423.088,380.145,423.088z M461.82,46.206V203.89c-5.06-4.006-10.432-7.679-16.117-10.946
	c-0.642-0.368-1.327-0.637-2.033-0.816V46.206H461.82z M440.559,208.514c6.268,3.845,12.092,8.247,17.435,13.11
	c-40.011,8.702-76.294,28.526-105.629,57.865c-29.327,29.333-49.143,65.607-57.842,105.608c-4.863-5.341-9.265-11.166-13.11-17.434
	C303.251,290.893,363.791,230.353,440.559,208.514z M279.014,328.067c-5.191,11.312-9.551,23.083-13.007,35.233h-20.014
	c-3.456-12.15-7.816-23.921-13.007-35.233H279.014z M230.588,367.663c-3.845,6.268-8.245,12.092-13.11,17.434
	c-8.7-40.001-28.515-76.275-57.842-105.608c-29.335-29.339-65.618-49.162-105.629-57.865c5.341-4.864,11.166-9.266,17.435-13.11
	C148.209,230.353,208.749,290.893,230.588,367.663z M68.33,46.206v145.922c-0.706,0.178-1.39,0.446-2.033,0.816
	c-5.685,3.268-11.058,6.94-16.117,10.946V46.206H68.33z M41.106,235.44c40.759,6.828,77.759,25.921,107.205,55.372
	c29.438,29.444,48.526,66.437,55.352,107.185c-20.174,15.97-45.418,25.092-71.808,25.092c-63.874,0-115.84-51.966-115.84-115.84
	C16.015,280.857,25.137,255.615,41.106,235.44z M57.904,465.794l-1.956-18.15h399.507l-1.956,18.15H57.904z"/>
<g>
</g>
<g>
</g>
<g>
</g>
<g>
</g>
<g>
</g>
<g>
</g>
<g>
</g>
<g>
</g>
<g>
</g>
<g>
</g>
<g>
</g>
<g>
</g>
<g>
</g>
<g>
</g>
<g>
</g>
</svg>
