<?xml version="1.0" encoding="iso-8859-1"?>
<!-- Generator: Adobe Illustrator 19.0.0, SVG Export Plug-In . SVG Version: 6.00 Build 0)  -->
<svg version="1.1" id="Layer_1" xmlns="http://www.w3.org/2000/svg" xmlns:xlink="http://www.w3.org/1999/xlink" x="0px" y="0px"
	 viewBox="0 0 512 512" style="enable-background:new 0 0 512 512;" xml:space="preserve">
<path style="fill:#FF5A64;" d="M359.648,62.484c-0.622-7.055-5.528-12.996-12.337-14.942l-22.901-5.321H187.591l-22.9,5.321
	c-6.81,1.945-11.715,7.886-12.337,14.942l-24.109,273.231c-0.309,3.499,1.553,6.829,4.695,8.4l29.128,14.564
	c-6.182,43.752-12.589,93.56-16.428,136.051c-0.451,4.999,3.516,9.253,8.535,9.253h203.651c5.02,0,8.986-4.254,8.535-9.253
	c-3.839-42.491-10.245-92.299-16.428-136.051l29.128-14.564c3.14-1.571,5.004-4.902,4.695-8.4L359.648,62.484z M332.964,247.466
	l-0.003-0.017c0,0,0.003-0.032,0.003-0.034V247.466z"/>
<g>
	<path style="fill:#D74B55;" d="M162.063,358.709c5.86-41.469,11.517-77.491,14.594-96.63c1.604-9.98,1.934-19.998,0.99-30.062
		c-3.019-32.203-10.821-109.257-22.196-177.671c-1.65,2.386-2.83,5.117-3.098,8.137l-24.109,273.229
		c-0.309,3.499,1.553,6.83,4.695,8.4l29.128,14.564C162.066,358.689,162.065,358.699,162.063,358.709z"/>
	<path style="fill:#D74B55;" d="M359.648,62.484c-0.266-3.021-1.447-5.752-3.098-8.137c-11.375,68.418-19.177,145.47-22.196,177.671
		c-0.944,10.064-0.615,20.081,0.99,30.062c3.076,19.14,8.735,55.161,14.595,96.63c-0.001-0.01-0.002-0.021-0.004-0.031
		l29.128-14.565c3.141-1.57,5.002-4.902,4.693-8.4L359.648,62.484z"/>
</g>
<path style="fill:#EBC9A0;" d="M332.961,42.221c0,0-17.102-34.205-51.307-34.205h-51.307c-34.205,0-51.307,34.205-51.307,34.205
	l25.653,17.102l-17.102,25.653L256,247.449l0,0l68.409-162.472l-17.102-25.653L332.961,42.221z"/>
<path style="fill:#DCB991;" d="M281.654,8.017h-51.307c-2.957,0-5.737,0.333-8.437,0.8L256,247.449l34.09-238.633
	C287.391,8.35,284.61,8.017,281.654,8.017z"/>
<path d="M391.741,335.009L367.632,61.779c-0.908-10.288-8.19-19.106-18.121-21.943l-10.328-2.951
	C334.883,29.282,316.079,0,281.654,0h-51.307c-34.425,0-53.229,29.282-57.53,36.883l-10.329,2.951
	c-9.931,2.837-17.213,11.655-18.121,21.943l-24.109,273.231c-0.602,6.825,2.968,13.213,9.095,16.275l23.985,11.993
	c-5.959,42.552-12.014,90.122-15.683,130.732c-0.415,4.595,1.133,9.184,4.246,12.589c3.137,3.433,7.611,5.402,12.274,5.402h203.651
	c4.663,0,9.137-1.969,12.273-5.401c3.113-3.407,4.66-7.994,4.247-12.59c-3.668-40.61-9.724-88.179-15.683-130.731l23.984-11.992
	C388.774,348.221,392.345,341.833,391.741,335.009z M348.898,57.467c-13.269,76.127-21.092,157.489-23.287,181.965h-57.537
	l63.724-151.345c1.045-2.48,0.775-5.319-0.718-7.557l-12.656-18.984l14.617-9.744l12.066,3.448
	C346.562,55.667,347.847,56.45,348.898,57.467z M322.052,39.859l-19.191,12.795c-3.683,2.456-4.68,7.433-2.223,11.116l14.712,22.068
	l-42.123,100.042l24.667-166.503C309.557,24.332,317.688,33.703,322.052,39.859z M256,192.746L234.889,50.238h42.224L256,192.746z
	 M281.654,16.033c0.176,0,0.348,0.01,0.525,0.012l-2.69,18.159h-46.975l-2.69-18.159c0.175-0.002,0.347-0.012,0.524-0.012H281.654z
	 M214.108,19.378l24.667,166.502L196.652,85.839l14.711-22.068c2.456-3.683,1.461-8.661-2.223-11.116l-19.191-12.795
	C194.312,33.703,202.443,24.332,214.108,19.378z M166.893,55.25l12.067-3.448l14.617,9.745L180.921,80.53
	c-1.492,2.239-1.763,5.077-0.718,7.557l63.724,151.345H186.39c-2.194-24.477-10.018-105.84-23.287-181.965
	C164.153,56.45,165.438,55.667,166.893,55.25z M136.523,336.943c-0.198-0.098-0.312-0.304-0.292-0.524l19.587-221.996
	c9.36,65.962,14.455,124.485,15.149,132.702c-1.129,6.84-7.855,47.905-15.255,99.415L136.523,336.943z M153.737,495.783
	c-0.13-0.142-0.119-0.266-0.112-0.332c7.989-88.447,27.402-210.329,32.225-239.986h27.929v111.699c0,4.428,3.589,8.017,8.017,8.017
	s8.017-3.588,8.017-8.017V255.466h18.198c-0.012,0.177-0.027,0.354-0.027,0.534v239.967h-93.809
	C153.995,495.967,153.848,495.905,153.737,495.783z M358.265,495.783c-0.111,0.122-0.259,0.184-0.438,0.184h-93.809V358.053
	c0.179,0.005,0.354,0.027,0.534,0.027c9.136,0,16.568-7.432,16.568-16.568c0-9.136-7.432-16.568-16.568-16.568
	c-0.181,0-0.356,0.021-0.534,0.027v-18.226c0.179,0.005,0.354,0.027,0.534,0.027c9.136,0,16.568-7.432,16.568-16.568
	s-7.432-16.568-16.568-16.568c-0.181,0-0.356,0.021-0.534,0.027V256c0-0.181-0.015-0.357-0.027-0.534h62.161
	c4.823,29.656,24.236,151.538,32.226,239.985C358.383,495.517,358.394,495.64,358.265,495.783z M375.476,336.944l-19.189,9.594
	c-7.4-51.509-14.126-92.575-15.255-99.415c0.695-8.217,5.789-66.743,15.149-132.706l19.589,222.002
	C375.789,336.635,375.672,336.846,375.476,336.944z"/>
<g>
</g>
<g>
</g>
<g>
</g>
<g>
</g>
<g>
</g>
<g>
</g>
<g>
</g>
<g>
</g>
<g>
</g>
<g>
</g>
<g>
</g>
<g>
</g>
<g>
</g>
<g>
</g>
<g>
</g>
</svg>
