<?xml version="1.0" encoding="iso-8859-1"?>
<!-- Generator: Adobe Illustrator 19.0.0, SVG Export Plug-In . SVG Version: 6.00 Build 0)  -->
<svg version="1.1" id="Layer_1" xmlns="http://www.w3.org/2000/svg" xmlns:xlink="http://www.w3.org/1999/xlink" x="0px" y="0px"
	 viewBox="0 0 512 512" style="enable-background:new 0 0 512 512;" xml:space="preserve">
<path style="fill:#FF5A64;" d="M375.716,307.307L367.165,33.67l-40.474-20.237c-7.124-3.562-14.979-5.416-22.945-5.416h-95.493
	c-7.965,0-15.821,1.855-22.945,5.416L144.835,33.67l-8.551,273.637l29.746,7.437c-2.358,14.126-4.093,30.67-4.093,52.421
	c0,41.991,5.728,106.895,7.808,129.079c0.413,4.396,4.097,7.74,8.513,7.74h155.484c4.416,0,8.1-3.343,8.513-7.74
	c2.079-22.183,7.808-87.087,7.808-129.079c0-21.752-1.735-38.295-4.093-52.421L375.716,307.307z"/>
<path style="fill:#D74B55;" d="M326.691,13.433c-7.09-3.546-14.906-5.391-22.833-5.41L207.8,8.043
	c-7.809,0.069-15.503,1.895-22.491,5.389l-5.705,2.852C190.437,45.086,215.867,102.84,256,136.284
	c40.132-33.444,65.562-91.198,76.396-119.998L326.691,13.433z"/>
<path style="fill:#C8414B;" d="M209.158,8.037c9.931,27.677,25.545,62.672,46.842,85.491c21.303-22.824,36.919-57.831,46.85-85.51
	L209.158,8.037z"/>
<g>
	<path style="fill:#D74B55;" d="M166.03,314.744c5.059-30.301,13.01-49.404,13.01-84.398c0-42.756-34.205-196.676-34.205-196.676
		l-8.551,273.637L166.03,314.744L166.03,314.744z"/>
	<path style="fill:#D74B55;" d="M345.97,314.744L345.97,314.744l29.746-7.437L367.165,33.67c0,0-34.205,153.921-34.205,196.676
		C332.96,265.34,340.911,284.443,345.97,314.744z"/>
</g>
<g>
	<path style="fill:#C8414B;" d="M137.327,273.936l-1.043,33.371l29.746,7.437c2.054-12.303,4.57-22.764,6.852-33.188
		L137.327,273.936z"/>
	<path style="fill:#C8414B;" d="M374.673,273.936l1.043,33.371l-29.746,7.437c-2.054-12.303-4.57-22.764-6.852-33.188
		L374.673,273.936z"/>
</g>
<path d="M375.178,33.42l-0.028,0.001c-0.091-2.891-1.721-5.581-4.401-6.92L330.276,6.263C322.082,2.166,312.908,0,303.746,0h-95.493
	c-9.161,0-18.336,2.166-26.53,6.263L141.25,26.5c-2.68,1.34-4.31,4.03-4.401,6.92l-0.028-0.001l-8.551,273.637
	c-0.11,3.541,2.116,6.735,5.478,7.856l22.993,7.664c-1.68,12.447-2.821,26.892-2.821,44.589c0,41.675,5.484,104.676,7.842,129.827
	c0.803,8.555,7.894,15.008,16.494,15.008h155.484c8.6,0,15.691-6.452,16.494-15.008c2.359-25.151,7.844-88.152,7.844-129.827
	c0-17.697-1.141-32.142-2.821-44.588l22.993-7.664c3.362-1.12,5.588-4.315,5.478-7.856L375.178,33.42z M345.379,272.424
	c-2.501-12.422-4.402-25.463-4.402-42.077c0-23.472,10.828-82.512,20.266-129.517l5.198,166.327L345.379,272.424z M250.139,98.998
	c1.516,1.625,3.639,2.547,5.861,2.547c2.222,0,4.344-0.922,5.861-2.547c21.117-22.625,36.671-56.446,46.494-82.706
	c4.196,0.453,8.329,1.517,12.219,3.154C298.476,79.785,270.922,111.659,256,125.585c-14.92-13.927-42.474-45.801-64.572-106.139
	c3.89-1.638,8.022-2.701,12.219-3.154C213.468,42.548,229.021,76.371,250.139,98.998z M220.715,16.033h70.57
	c-8.282,21.254-20.124,46.38-35.285,65.243C240.838,62.413,228.995,37.285,220.715,16.033z M166.621,272.424l-21.063-5.265
	l5.198-166.331c9.438,47.004,20.266,106.044,20.266,129.519C171.023,246.96,169.122,260.002,166.621,272.424z M144.483,301.589
	l0.563-18.033l18.174,4.544c-1.3,5.811-2.637,11.866-3.877,18.444L144.483,301.589z M334.273,495.495
	c-0.026,0.273-0.249,0.471-0.531,0.471H178.258c-0.282,0-0.506-0.199-0.531-0.471c-1.824-19.448-7.773-86.182-7.773-128.33
	c0-35.774,4.716-56.826,9.277-77.185c4.024-17.966,7.825-34.935,7.825-59.634c0-38.743-26.608-162.828-33.049-192.299l22.969-11.485
	c10.658,28.488,35.016,83.484,73.892,115.88c1.487,1.239,3.309,1.858,5.132,1.858c1.822,0,3.646-0.62,5.132-1.858
	c38.872-32.394,63.228-87.376,73.892-115.88l22.969,11.485c-6.441,29.472-33.049,153.556-33.049,192.299
	c0,24.698,3.801,41.668,7.825,59.634c4.561,20.359,9.277,41.412,9.277,77.185C342.046,409.314,336.096,476.047,334.273,495.495z
	 M352.656,306.544c-1.24-6.578-2.577-12.633-3.877-18.444l18.174-4.544l0.563,18.033L352.656,306.544z"/>
<g>
</g>
<g>
</g>
<g>
</g>
<g>
</g>
<g>
</g>
<g>
</g>
<g>
</g>
<g>
</g>
<g>
</g>
<g>
</g>
<g>
</g>
<g>
</g>
<g>
</g>
<g>
</g>
<g>
</g>
</svg>
