<?xml version="1.0" encoding="iso-8859-1"?>
<!-- Generator: Adobe Illustrator 19.0.0, SVG Export Plug-In . SVG Version: 6.00 Build 0)  -->
<svg version="1.1" id="Layer_1" xmlns="http://www.w3.org/2000/svg" xmlns:xlink="http://www.w3.org/1999/xlink" x="0px" y="0px"
	 viewBox="0 0 512 512" style="enable-background:new 0 0 512 512;" xml:space="preserve">
<path style="fill:#FFAAB9;" d="M256,93.528c-25.653-25.653-76.96-25.653-76.96-25.653s0,34.205,8.551,59.858
	c0,0,34.205,0,68.409-8.551c34.205,8.551,68.409,8.551,68.409,8.551c8.551-25.653,8.551-59.858,8.551-59.858
	S281.653,67.875,256,93.528z"/>
<g>
	<path style="fill:#FF9BA9;" d="M324.35,68.291l8.61-60.274h-34.205v64.234C308.776,69.873,318.009,68.787,324.35,68.291z"/>
	<path style="fill:#FF9BA9;" d="M213.244,72.251V8.017H179.04l8.611,60.274C193.992,68.787,203.226,69.873,213.244,72.251z"/>
	<path style="fill:#FF9BA9;" d="M324.409,127.733c0,0-34.205,0-68.409-8.551c-34.205,8.551-68.409,8.551-68.409,8.551
		s-51.307,265.086-59.858,376.251h256.534C375.716,392.818,324.409,127.733,324.409,127.733z"/>
</g>
<path d="M392.26,503.369c-8.094-105.228-54.828-350.327-59.592-375.141c8.208-26.267,8.309-58.94,8.309-60.353
	c0-2.126-0.844-4.165-2.347-5.668c-1.341-1.34-3.107-2.153-4.982-2.314l7.249-50.741c0.329-2.3-0.357-4.63-1.88-6.387
	S335.284,0,332.96,0h-34.205c-4.428,0-8.017,3.589-8.017,8.017v58.028C278.792,69.437,266.265,74.69,256,82.824
	c-10.265-8.134-22.792-13.387-34.739-16.779V8.017c0-4.427-3.589-8.017-8.017-8.017H179.04c-2.324,0-4.533,1.008-6.056,2.764
	c-1.522,1.756-2.208,4.085-1.88,6.387l7.249,50.743c-4.105,0.348-7.329,3.786-7.329,7.981c0,1.413,0.1,34.086,8.309,60.353
	c-4.764,24.813-51.497,269.913-59.592,375.141c-0.171,2.227,0.594,4.423,2.111,6.062c1.517,1.639,3.649,2.57,5.882,2.57h256.534
	c2.233,0,4.365-0.931,5.882-2.57C391.666,507.792,392.431,505.595,392.26,503.369z M264.017,112.832V97
	c17.515-15.351,46.516-19.54,60.666-20.682c-0.498,10.151-1.951,27.755-6.18,43.252
	C308.359,119.188,286.545,117.808,264.017,112.832z M306.772,16.033h16.945l-6.409,44.863c-3.194,0.362-6.747,0.853-10.535,1.514
	V16.033H306.772z M247.983,112.832c-22.528,4.976-44.341,6.356-54.485,6.738c-4.219-15.472-5.677-33.093-6.178-43.252
	c14.156,1.142,43.151,5.333,60.663,20.682V112.832z M205.228,16.033v46.376c-3.788-0.661-7.342-1.151-10.535-1.514l-6.409-44.863
	H205.228z M136.449,495.967c9.33-103.832,50.198-320.556,57.797-360.367c6.015-0.22,15.651-0.765,27.104-2.108l-16.029,104.186
	c-0.673,4.376,2.328,8.469,6.704,9.142c0.414,0.064,0.824,0.094,1.229,0.094c3.89,0,7.304-2.836,7.913-6.798l16.769-108.997
	c3.293-0.56,6.651-1.186,10.047-1.89v169.527c0,4.427,3.589,8.017,8.017,8.017c4.428,0,8.017-3.589,8.017-8.017V129.229
	c3.396,0.704,6.753,1.33,10.047,1.89l16.769,108.997c0.609,3.963,4.024,6.798,7.913,6.798c0.406,0,0.817-0.031,1.229-0.094
	c4.376-0.673,7.378-4.766,6.704-9.142l-16.029-104.186c11.453,1.343,21.089,1.888,27.104,2.108
	c7.599,39.811,48.468,256.533,57.797,360.367L136.449,495.967L136.449,495.967z"/>
<g>
</g>
<g>
</g>
<g>
</g>
<g>
</g>
<g>
</g>
<g>
</g>
<g>
</g>
<g>
</g>
<g>
</g>
<g>
</g>
<g>
</g>
<g>
</g>
<g>
</g>
<g>
</g>
<g>
</g>
</svg>
