<?xml version="1.0" encoding="iso-8859-1"?>
<!-- Generator: Adobe Illustrator 19.0.0, SVG Export Plug-In . SVG Version: 6.00 Build 0)  -->
<svg version="1.1" id="Layer_1" xmlns="http://www.w3.org/2000/svg" xmlns:xlink="http://www.w3.org/1999/xlink" x="0px" y="0px"
	 viewBox="0 0 512 512" style="enable-background:new 0 0 512 512;" xml:space="preserve">
<g>
	<polygon style="fill:#F5DCB4;" points="213.236,59.324 213.243,8.017 187.592,8.017 179.039,50.772 181.013,59.324 	"/>
	<polygon style="fill:#F5DCB4;" points="298.739,59.324 298.73,8.017 324.381,8.017 332.935,50.772 330.96,59.324 	"/>
	<path style="fill:#F5DCB4;" d="M262.843,81.923c-1.646,2.342-4.254,3.487-6.869,3.48c-2.613,0.005-5.223-1.138-6.869-3.48
		c-26.904-38.283-69.944-31.172-70.067-31.151l25.653,111.165c0,0,0.002,8.551,0.002,17.102h102.559
		c0-8.551,0.002-17.102,0.002-17.102l25.653-111.165C332.786,50.751,289.747,43.64,262.843,81.923z"/>
</g>
<path style="fill:#FAEBC8;" d="M307.307,179.04H204.694v17.102c-76.961,119.716-94.064,307.841-94.064,307.841H401.37
	c0,0-17.102-188.125-94.063-307.841V179.04z"/>
<rect x="204.693" y="161.937" style="fill:#EBC9A0;" width="102.614" height="34.205"/>
<path style="fill:#FAEBC8;" d="M262.843,81.922c-1.645,2.342-4.254,3.487-6.869,3.481c-2.613,0.005-5.224-1.138-6.869-3.481
	c-26.908-38.287-69.954-31.169-70.067-31.15l14.219,61.612c7.09,4.285,15.373,6.797,24.261,6.797
	c12.739,0,24.278-5.078,32.74-13.309c1.563-1.52,3.637-2.278,5.715-2.284c2.077,0.006,4.153,0.764,5.715,2.284
	c8.462,8.23,20.001,13.309,32.74,13.309c8.888,0,17.171-2.512,24.261-6.797l14.219-61.612
	C332.797,50.753,289.751,43.635,262.843,81.922z"/>
<path d="M409.353,503.258c-0.044-0.476-4.483-48.265-18.333-110.055c-22.787-101.665-53.492-164.317-75.697-199.399V162.85
	l25.448-110.275c0.259-1.12,0.265-2.269,0.044-3.373l0.005-0.001L332.27,6.445C331.521,2.697,328.23,0,324.409,0h-25.653
	c-4.427,0-8.017,3.589-8.017,8.017v40.967c-11.791,5.055-24.121,13.702-34.395,28.314c-0.077,0.11-0.335,0.111-0.345,0.111
	s-0.268-0.001-0.345-0.111c-10.273-14.612-22.602-23.258-34.393-28.313V8.017c0-4.427-3.589-8.017-8.017-8.017h-25.652
	c-3.821,0-7.111,2.697-7.861,6.444L171.179,49.2l0.005,0.001c-0.221,1.104-0.215,2.253,0.044,3.373l25.448,110.276l0.001,30.953
	c-22.206,35.082-52.91,97.734-75.698,199.399c-13.85,61.791-18.289,109.58-18.333,110.055c-0.204,2.244,0.545,4.468,2.064,6.132
	c1.519,1.663,3.667,2.61,5.92,2.61H401.37c2.252,0,4.401-0.947,5.92-2.61C408.808,507.726,409.557,505.501,409.353,503.258z
	 M212.711,188.125v-18.171h86.58v18.171H212.711z M306.772,16.033h11.065l5.234,26.176c-4.512,0.067-10.11,0.507-16.3,1.774V16.033z
	 M205.228,16.033v27.95c-6.189-1.268-11.788-1.708-16.3-1.774l5.235-26.176H205.228z M188.995,58.264
	c12.694,0.284,36.699,4.301,53.542,28.256c3.047,4.334,8.08,6.922,13.462,6.922s10.413-2.588,13.461-6.922
	c16.958-24.119,40.877-28.073,53.555-28.301l-22.085,95.701H211.07L188.995,58.264z M119.564,495.967
	c4.438-37.788,25.666-189.61,89.549-291.808h11.888l-15.682,101.929c-0.673,4.376,2.328,8.47,6.704,9.143
	c0.414,0.063,0.824,0.094,1.229,0.094c3.89,0,7.304-2.836,7.913-6.798l16.058-104.368h10.759v163.006
	c0,4.427,3.589,8.017,8.017,8.017c4.427,0,8.017-3.589,8.017-8.017V204.159h10.759l16.056,104.368
	c0.609,3.963,4.024,6.798,7.913,6.798c0.405,0,0.816-0.031,1.229-0.094c4.376-0.673,7.378-4.766,6.704-9.143l-15.681-101.929h11.889
	c63.843,102.138,85.101,254.008,89.548,291.808H119.564z"/>
<g>
</g>
<g>
</g>
<g>
</g>
<g>
</g>
<g>
</g>
<g>
</g>
<g>
</g>
<g>
</g>
<g>
</g>
<g>
</g>
<g>
</g>
<g>
</g>
<g>
</g>
<g>
</g>
<g>
</g>
</svg>
