<?xml version="1.0" encoding="iso-8859-1"?>
<!-- Generator: Adobe Illustrator 19.0.0, SVG Export Plug-In . SVG Version: 6.00 Build 0)  -->
<svg version="1.1" id="Layer_1" xmlns="http://www.w3.org/2000/svg" xmlns:xlink="http://www.w3.org/1999/xlink" x="0px" y="0px"
	 viewBox="0 0 512 512" style="enable-background:new 0 0 512 512;" xml:space="preserve">
<path style="fill:#D5DCED;" d="M146.089,322.797l-0.035,0.006c-54.065,9.83-103.832-31.704-103.832-86.656v-22.732
	c0-14.168,11.485-25.653,25.653-25.653h136.818c14.168,0,25.653,11.485,25.653,25.653v8.424
	C230.347,271.431,194.881,313.927,146.089,322.797z"/>
<path style="fill:#C7CFE2;" d="M93.503,281.494c0-49.74,38.635-90.357,87.517-93.732H67.874c-14.167,0-25.653,11.485-25.653,25.653
	v22.732c0,39.093,25.236,71.282,59.238,83.132C96.374,307.709,93.503,294.945,93.503,281.494z"/>
<path style="fill:#D5DCED;" d="M365.911,322.797l0.035,0.006c54.065,9.83,103.832-31.704,103.832-86.656v-22.732
	c0-14.168-11.485-25.653-25.653-25.653H307.307c-14.168,0-25.653,11.485-25.653,25.653v8.424
	C281.653,271.431,317.119,313.927,365.911,322.797z"/>
<path style="fill:#C7CFE2;" d="M332.935,281.494c0-49.74,38.635-90.357,87.517-93.732H307.306
	c-14.167,0-25.653,11.485-25.653,25.653v8.423c0,39.786,22.858,74.96,57.079,91.913
	C335.048,303.677,332.935,292.845,332.935,281.494z"/>
<g>
	<path style="fill:#959CB5;" d="M16.568,204.534c-4.722,0-8.551,3.829-8.551,8.551v8.551c0,9.445,7.658,17.102,17.102,17.102h17.102
		v-34.205H16.568z"/>
	<path style="fill:#959CB5;" d="M495.432,204.534h-25.653v34.205h17.102c9.445,0,17.102-7.658,17.102-17.102v-8.551
		C503.983,208.363,500.155,204.534,495.432,204.534z"/>
</g>
<path d="M495.432,196.847h-22.013c-5.792-10.2-16.749-17.102-29.294-17.102H67.875c-12.546,0-23.502,6.902-29.294,17.102H16.568
	C7.432,196.847,0,204.279,0,213.415v8.551c0,13.851,11.268,25.119,25.119,25.119h9.708c2.776,24.419,14.784,46.886,33.899,62.838
	c17.45,14.564,39.179,22.331,61.478,22.331c5.738,0,11.513-0.514,17.263-1.56l0.035-0.006c0.006-0.001,0.014-0.002,0.021-0.003
	c44.363-8.066,78.472-41.853,88.098-84.305c0.003-0.013,0.007-0.026,0.011-0.038c2.108-9.479,10.673-16.359,20.368-16.359
	s18.26,6.88,20.368,16.359c0.001,0.005,0.003,0.011,0.005,0.016c9.62,42.462,43.733,76.259,88.105,84.327l0.035,0.006
	c5.757,1.046,11.538,1.562,17.281,1.562c22.306,0,44.034-7.769,61.481-22.329c19.115-15.952,31.123-38.419,33.899-62.838h9.708
	c13.851,0,25.119-11.268,25.119-25.119v-8.551C512,204.279,504.568,196.847,495.432,196.847z M34.205,213.415v17.637h-9.086
	c-5.01,0-9.086-4.076-9.086-9.086v-8.551c0-0.295,0.239-0.534,0.534-0.534h17.651C34.215,213.059,34.205,213.236,34.205,213.415z
	 M222.33,221.839c0,45.745-32.668,84.888-77.675,93.072l-0.035,0.006c-23.424,4.26-47.342-2.048-65.62-17.303
	s-28.761-37.658-28.761-61.467v-22.732c0-9.725,7.912-17.637,17.637-17.637h136.818c9.725,0,17.637,7.912,17.637,17.637V221.839z
	 M273.637,213.415v5.098c-5.297-2.914-11.33-4.563-17.637-4.563s-12.339,1.649-17.637,4.563v-5.098
	c0-6.463-1.834-12.504-5.003-17.637h45.282C275.471,200.911,273.637,206.953,273.637,213.415z M461.762,236.147
	c0,23.807-10.484,46.211-28.762,61.466c-18.278,15.255-42.197,21.56-65.641,17.299l-0.018-0.003l0.004,0.001
	c-45.008-8.183-77.675-47.325-77.675-93.071v-8.424c0-9.725,7.912-17.637,17.637-17.637h136.818c9.725,0,17.637,7.912,17.637,17.637
	V236.147z M495.967,221.966c0,5.01-4.076,9.086-9.086,9.086h-9.086v-17.637c0-0.18-0.011-0.356-0.014-0.534h17.651
	c0.295,0,0.534,0.239,0.534,0.534V221.966z"/>
<path d="M196.01,230.961c-4.294-1.088-8.655,1.504-9.745,5.794c-1.341,5.28-3.399,10.361-6.115,15.098
	c-8.88,15.493-24.062,26.211-41.649,29.41c-2.793,0.508-5.615,0.765-8.388,0.765c-4.427,0-8.017,3.589-8.017,8.017
	c0,4.427,3.589,8.017,8.017,8.017c3.732,0,7.519-0.344,11.255-1.024c22.249-4.045,41.455-17.608,52.692-37.211
	c3.439-5.999,6.044-12.431,7.744-19.121C202.895,236.415,200.301,232.052,196.01,230.961z"/>
<path d="M435.574,228.131c-4.427,0-8.017,3.589-8.017,8.017c0,25.299-20.487,45.881-45.672,45.881c-2.772,0-5.606-0.26-8.423-0.772
	c-4.357-0.792-8.529,2.097-9.321,6.454c-0.792,4.357,2.097,8.53,6.454,9.321c3.761,0.684,7.559,1.03,11.291,1.03
	c34.024,0,61.705-27.774,61.705-61.915C443.591,231.72,440.001,228.131,435.574,228.131z"/>
<g>
</g>
<g>
</g>
<g>
</g>
<g>
</g>
<g>
</g>
<g>
</g>
<g>
</g>
<g>
</g>
<g>
</g>
<g>
</g>
<g>
</g>
<g>
</g>
<g>
</g>
<g>
</g>
<g>
</g>
</svg>
