<?xml version="1.0" encoding="iso-8859-1"?>
<!-- Generator: Adobe Illustrator 19.0.0, SVG Export Plug-In . SVG Version: 6.00 Build 0)  -->
<svg version="1.1" id="Layer_1" xmlns="http://www.w3.org/2000/svg" xmlns:xlink="http://www.w3.org/1999/xlink" x="0px" y="0px"
	 viewBox="0 0 512 512" style="enable-background:new 0 0 512 512;" xml:space="preserve">
<path style="fill:#AA6455;" d="M52.931,207.265c11.222-6.289,25.088-1.424,30.1,10.045L99.914,255.9
	c2.299,5.256,7.491,8.651,13.226,8.651c7.973,0,14.438-6.464,14.438-14.438V107.577c0-11.183,8.046-21.374,19.173-22.488
	c12.797-1.282,23.583,8.733,23.583,21.267V80.701c0-11.807,9.571-21.378,21.378-21.378s21.378,9.571,21.378,21.378v25.653
	c0-11.807,9.571-21.378,21.378-21.378c11.807,0,21.378,9.571,21.378,21.378v34.205c0-11.807,9.571-21.378,21.378-21.378
	c11.807,0,21.378,9.571,21.378,21.378v115.83c0,16.78-2.058,33.496-6.127,49.775l-13.399,53.593
	c-4.069,16.278-6.127,32.996-6.127,49.775v77.348c0,9.445-7.658,17.102-17.102,17.102H144.681c-9.445,0-17.102-7.658-17.102-17.102
	v-68.409L44.346,235.564C39.86,225.309,43.165,212.738,52.931,207.265z"/>
<g>
	<path style="fill:#9B5A50;" d="M273.257,478.33v-59.858H144.681c0,0-64.408-141.551-79.92-175.642
		c-1.827-4.016-6.609-5.681-10.554-3.708c-3.748,1.874-5.34,6.376-3.605,10.189l76.977,169.161v68.409
		c0,9.445,7.656,17.102,17.102,17.102h25.962c-9.446,0-17.102-7.658-17.102-17.102l0.155-8.551H273.257z"/>
	<path style="fill:#9B5A50;" d="M178.885,238.898L178.885,238.898c4.722,0,8.551-3.829,8.551-8.551V84.977
		c0-4.722-3.829-8.551-8.551-8.551l0,0c-4.722,0-8.551,3.829-8.551,8.551v145.37C170.334,235.069,174.162,238.898,178.885,238.898z"
		/>
	<path style="fill:#9B5A50;" d="M136.129,102.079c-4.722,0-8.551,3.829-8.551,8.551v139.483c0,4.742-2.317,8.912-5.848,11.544
		c3.708,2.735,8.565,3.852,13.607,1.931c5.807-2.213,9.343-8.189,9.343-14.403V110.629
		C144.68,105.908,140.851,102.079,136.129,102.079L136.129,102.079z"/>
</g>
<path style="fill:#AA6455;" d="M458.759,155.958c-11.222-6.289-25.088-1.424-30.1,10.045l-16.883,38.589
	c-2.299,5.256-7.491,8.651-13.227,8.651c-7.973,0-14.438-6.464-14.438-14.438V56.27c0-11.183-8.046-21.374-19.174-22.488
	c-12.797-1.282-23.583,8.733-23.583,21.267V29.395c0-11.807-9.571-21.378-21.378-21.378c-11.807,0-21.378,9.571-21.378,21.378
	v25.653c0-11.807-9.571-21.378-21.378-21.378c-11.807,0-21.378,9.571-21.378,21.378v34.205c0-11.807-9.571-21.378-21.378-21.378
	s-21.378,9.571-21.378,21.378v115.83c0,16.779,2.058,33.496,6.127,49.775l13.399,53.593c4.069,16.278,6.127,32.996,6.127,49.775
	v77.348c0,9.445,7.658,17.102,17.102,17.102h111.165c9.445,0,17.102-7.658,17.102-17.102v-68.409l83.232-182.908
	C471.831,174.002,468.525,161.431,458.759,155.958z"/>
<g>
	<path style="fill:#9B5A50;" d="M349.908,187.591L349.908,187.591c-4.722,0-8.551-3.829-8.551-8.551V59.324
		c0-4.722,3.829-8.551,8.551-8.551l0,0c4.722,0,8.551,3.829,8.551,8.551V179.04C358.459,183.762,354.63,187.591,349.908,187.591z"/>
	<path style="fill:#9B5A50;" d="M307.152,187.591L307.152,187.591c-4.722,0-8.551-3.829-8.551-8.551V33.67
		c0-4.722,3.829-8.551,8.551-8.551l0,0c4.722,0,8.551,3.829,8.551,8.551v145.37C315.703,183.762,311.874,187.591,307.152,187.591z"
		/>
	<path style="fill:#9B5A50;" d="M264.396,204.693L264.396,204.693c-4.722,0-8.551-3.829-8.551-8.551V59.324
		c0-4.722,3.829-8.551,8.551-8.551l0,0c4.722,0,8.551,3.829,8.551,8.551v136.818C272.947,200.864,269.119,204.693,264.396,204.693z"
		/>
	<path style="fill:#9B5A50;" d="M384.113,427.023v-59.858l0,0H256.155v-8.938c0-16.781-2.059-33.498-6.127-49.777l-13.399-53.591
		c-4.069-16.279-6.127-32.997-6.127-49.776V93.683c0-4.808-3.897-8.706-8.706-8.706l0,0c-4.808,0-8.706,3.897-8.706,8.706v111.403
		c0,16.778,2.058,33.494,6.127,49.771l13.396,53.589c4.071,16.279,6.129,32.998,6.129,49.778v77.349
		c0,9.445,7.656,17.102,17.102,17.102h25.962c-9.445,0-17.102-7.658-17.102-17.102v-8.551H384.113z"/>
</g>
<path d="M462.834,148.964c-7.27-4.075-15.94-4.9-23.789-2.263c-7.853,2.638-14.259,8.502-17.575,16.09l-16.883,38.59
	c-1.022,2.338-3.331,3.847-5.882,3.847c-3.541,0-6.421-2.88-6.421-6.421V56.27c0-15.602-11.593-28.983-26.391-30.465
	c-5.692-0.567-11.382,0.532-16.378,3.076C349.239,12.91,336.169,0,320.134,0c-16.037,0-29.108,12.912-29.382,28.886
	c-4.015-2.061-8.559-3.232-13.374-3.232c-16.208,0-29.395,13.187-29.395,29.395v8.036c-4.012-2.058-8.551-3.226-13.361-3.226
	c-6.557,0-12.618,2.159-17.514,5.803c-5.137-8.589-14.527-14.354-25.242-14.354c-16.036,0-29.105,12.91-29.382,28.88
	c-4.994-2.544-10.679-3.643-16.378-3.075c-14.799,1.48-26.391,14.863-26.391,30.465v142.538c0,3.541-2.881,6.421-6.421,6.421
	c-2.55,0-4.859-1.51-5.882-3.847L90.531,214.1c-3.317-7.59-9.724-13.454-17.577-16.092c-7.848-2.636-16.52-1.809-23.788,2.263
	c-12.995,7.283-18.27,24.198-12.009,38.506c0.016,0.035,0.031,0.071,0.047,0.107l82.512,181.326v66.671
	c0,13.851,11.268,25.119,25.119,25.119H256c13.851,0,25.119-11.268,25.119-25.119v-26.188h86.046
	c13.851,0,25.119-11.268,25.119-25.119v-66.671l82.511-181.326c0.017-0.035,0.032-0.071,0.048-0.108
	C481.104,173.161,475.829,156.248,462.834,148.964z M51.825,232.304c-2.964-6.835-0.695-14.753,5.179-18.045
	c3.378-1.893,7.23-2.266,10.846-1.051c3.57,1.198,6.482,3.864,7.991,7.317l16.883,38.59c3.575,8.173,11.65,13.453,20.571,13.453
	c12.381,0,22.454-10.073,22.454-22.454V107.577c0-7.465,5.251-13.839,11.956-14.51c3.848-0.391,7.531,0.813,10.366,3.378
	c2.796,2.53,4.401,6.143,4.401,9.911v115.44c0,4.428,3.589,8.017,8.017,8.017c4.427,0,8.017-3.588,8.017-8.017V80.701
	c0-7.368,5.993-13.361,13.361-13.361s13.361,5.993,13.361,13.361v124.38c0,17.42,2.142,34.82,6.367,51.721l13.399,53.593
	c3.907,15.628,5.887,31.722,5.887,47.831v52.229h-97.989L51.825,232.304z M376.251,393.353H246.914v-18.171h129.336V393.353z
	 M135.749,426.489h95.132v9.086c0,3.203,0.609,6.266,1.707,9.086h-96.839V426.489z M256,495.967H144.835
	c-5.01,0-9.086-4.076-9.086-9.086v-26.188h129.336v26.188C265.086,491.891,261.01,495.967,256,495.967z M367.165,444.66H256
	c-5.01,0-9.086-4.076-9.086-9.086v-26.188h129.336v26.188C376.251,440.584,372.175,444.66,367.165,444.66z M460.176,180.997
	l-81.068,178.151H246.914v-0.922c0-17.42-2.142-34.82-6.367-51.721l-13.399-53.593c-3.906-15.628-5.887-31.72-5.887-47.831V89.253
	c0-7.368,5.993-13.361,13.361-13.361s13.361,5.993,13.361,13.361v98.338c0,4.428,3.589,8.017,8.017,8.017
	c4.428,0,8.017-3.588,8.017-8.017V55.048c0-7.368,5.993-13.361,13.361-13.361s13.361,5.993,13.361,13.361v115.441
	c0,4.428,3.588,8.017,8.017,8.017s8.017-3.588,8.017-8.017V29.395c0-7.368,5.993-13.361,13.361-13.361s13.361,5.993,13.361,13.361
	v141.094c0,4.428,3.588,8.017,8.017,8.017c4.428,0,8.017-3.588,8.017-8.017V76.426V55.048c0-3.768,1.604-7.381,4.401-9.911
	c2.835-2.564,6.515-3.771,10.366-3.378c6.704,0.67,11.956,7.044,11.956,14.51v142.538c0,12.381,10.073,22.454,22.454,22.454
	c8.922,0,16.995-5.28,20.571-13.454l16.884-38.591c1.507-3.45,4.42-6.116,7.99-7.314c3.618-1.216,7.469-0.842,10.845,1.051
	C460.87,166.244,463.139,174.162,460.176,180.997z"/>
<g>
</g>
<g>
</g>
<g>
</g>
<g>
</g>
<g>
</g>
<g>
</g>
<g>
</g>
<g>
</g>
<g>
</g>
<g>
</g>
<g>
</g>
<g>
</g>
<g>
</g>
<g>
</g>
<g>
</g>
</svg>
