<?xml version="1.0" encoding="iso-8859-1"?>
<!-- Generator: Adobe Illustrator 19.0.0, SVG Export Plug-In . SVG Version: 6.00 Build 0)  -->
<svg version="1.1" id="Layer_1" xmlns="http://www.w3.org/2000/svg" xmlns:xlink="http://www.w3.org/1999/xlink" x="0px" y="0px"
	 viewBox="0 0 512 512" style="enable-background:new 0 0 512 512;" xml:space="preserve">
<path style="fill:#5B5D6E;" d="M119.182,350.063V478.33c0,14.168,11.485,25.653,25.653,25.653h222.33
	c14.168,0,25.653-11.485,25.653-25.653V350.063H119.182z"/>
<path style="fill:#707487;" d="M401.37,307.307H110.63v51.307c0,33.059,26.799,59.858,59.858,59.858h171.023
	c33.059,0,59.858-26.799,59.858-59.858V307.307z"/>
<path style="fill:#C7CFE2;" d="M256,452.676L256,452.676c-9.446,0-17.102-7.656-17.102-17.102v-25.653
	c0-9.446,7.656-17.102,17.102-17.102l0,0c9.446,0,17.102,7.656,17.102,17.102v25.653C273.102,445.02,265.446,452.676,256,452.676z"
	/>
<path style="fill:#E4EAF8;" d="M256,427.023L256,427.023c-9.446,0-17.102-7.656-17.102-17.102l0,0
	c0-9.446,7.656-17.102,17.102-17.102l0,0c9.446,0,17.102,7.656,17.102,17.102l0,0C273.102,419.366,265.446,427.023,256,427.023z"/>
<path d="M409.386,153.386C409.386,68.809,340.577,0,256,0S102.614,68.809,102.614,153.386v205.228
	c0,11.941,3.115,23.161,8.551,32.919v86.797c0,18.566,15.105,33.67,33.67,33.67h222.33c18.566,0,33.67-15.105,33.67-33.67v-86.797
	c5.436-9.758,8.551-20.978,8.551-32.919V153.386z M384.802,478.33c0,9.726-7.911,17.637-17.637,17.637h-222.33
	c-9.726,0-17.637-7.911-17.637-17.637v-67.482c11.758,9.762,26.85,15.641,43.29,15.641h60.392v9.086
	c0,13.851,11.268,25.119,25.119,25.119c13.851,0,25.119-11.268,25.119-25.119v-9.086h60.392c16.441,0,31.532-5.879,43.29-15.641
	V478.33z M256,435.04c3.203,0,6.266-0.609,9.086-1.707v2.241c0,5.01-4.076,9.086-9.086,9.086c-5.01,0-9.086-4.076-9.086-9.086
	v-2.241C249.734,434.43,252.797,435.04,256,435.04z M246.914,409.921c0-5.01,4.076-9.086,9.086-9.086
	c5.01,0,9.086,4.076,9.086,9.086s-4.076,9.086-9.086,9.086C250.99,419.006,246.914,414.931,246.914,409.921z M393.353,315.858
	v42.756c0,28.585-23.256,51.841-51.841,51.841h-60.392v-0.534c0-13.851-11.268-25.119-25.119-25.119
	c-13.851,0-25.119,11.268-25.119,25.119v0.534h-60.392c-28.585,0-51.841-23.256-51.841-51.841v-42.756v-0.534h274.706V315.858z
	 M393.353,299.29H118.647V153.386c0-75.736,61.616-137.353,137.353-137.353S393.353,77.65,393.353,153.386V299.29z"/>
<g>
</g>
<g>
</g>
<g>
</g>
<g>
</g>
<g>
</g>
<g>
</g>
<g>
</g>
<g>
</g>
<g>
</g>
<g>
</g>
<g>
</g>
<g>
</g>
<g>
</g>
<g>
</g>
<g>
</g>
</svg>
