<?xml version="1.0" encoding="iso-8859-1"?>
<!-- Generator: Adobe Illustrator 19.0.0, SVG Export Plug-In . SVG Version: 6.00 Build 0)  -->
<svg version="1.1" id="Layer_1" xmlns="http://www.w3.org/2000/svg" xmlns:xlink="http://www.w3.org/1999/xlink" x="0px" y="0px"
	 viewBox="0 0 512 512" style="enable-background:new 0 0 512 512;" xml:space="preserve">
<path style="fill:#7D4641;" d="M401.37,153.386c0-80.286-65.084-145.37-145.37-145.37l0,0c-80.286,0-145.37,65.084-145.37,145.37
	v17.102h34.205v-17.102c0-61.395,49.77-111.165,111.165-111.165s111.165,49.77,111.165,111.165v17.102h34.205V153.386z"/>
<path style="fill:#9B5A50;" d="M452.103,386.147l-31.447-209.645c-1.256-8.372-8.447-14.565-16.913-14.565h-28.492
	c-4.323,0-8.033,3.226-8.45,7.528c-3.784,38.971-36.633,69.432-76.597,69.432h-68.409c-39.964,0-72.813-30.461-76.597-69.432
	c-0.418-4.302-4.127-7.528-8.45-7.528h-28.492c-8.466,0-15.657,6.193-16.913,14.565L59.896,386.147
	c-9.306,62.041,38.744,117.836,101.479,117.836h189.25C413.359,503.983,461.409,448.188,452.103,386.147z"/>
<path style="fill:#915046;" d="M425.764,265.163l-14.911-101.829c-2.061-0.874-4.298-1.397-6.657-1.397h-28.491
	c-4.324,0-8.034,3.226-8.451,7.528c-3.783,38.971-36.632,69.432-76.597,69.432h-68.409c-39.964,0-72.812-30.461-76.596-69.432
	c-0.419-4.302-4.127-7.528-8.45-7.528H108.71c-2.358,0-4.595,0.522-6.656,1.396L87.129,265.25
	c-4.792,31.946,4.575,64.398,25.714,88.943c21.137,24.546,51.84,38.624,84.234,38.624H315.83c32.394,0,63.095-14.077,84.234-38.623
	C421.201,329.649,430.568,297.198,425.764,265.163z"/>
<path style="fill:#AA6455;" d="M197.693,367.165h118.753c52.28,0,92.32-46.497,84.565-98.197l-15.675-107.03h-9.016
	c-4.323,0-8.033,3.226-8.45,7.528c-3.784,38.971-36.633,69.432-76.597,69.432h-68.409c-39.964,0-72.813-30.461-76.597-69.432
	c-0.418-4.302-4.127-7.528-8.451-7.528h-9.015l-15.674,107.03C105.373,320.668,145.413,367.165,197.693,367.165z"/>
<path style="fill:#F5DCB4;" d="M256,401.37L256,401.37c-14.168,0-25.653-11.485-25.653-25.653v-25.653h51.307v25.653
	C281.653,389.884,270.168,401.37,256,401.37z"/>
<path d="M460.031,384.958L460.031,384.958l-31.447-209.644c-1.571-10.475-9.284-18.499-19.198-20.742v-1.185
	C409.386,68.809,340.577,0,256,0S102.614,68.809,102.614,153.386v1.185c-9.914,2.243-17.627,10.267-19.198,20.742L51.969,384.958
	c-4.782,31.881,4.541,64.176,25.578,88.604C98.583,497.99,129.137,512,161.375,512h189.25c32.238,0,62.793-14.01,83.829-38.437
	C455.491,449.134,464.814,416.84,460.031,384.958z M256,16.033c75.736,0,137.353,61.616,137.353,137.353v0.534h-18.171v-0.534
	c0-65.717-53.465-119.182-119.182-119.182S136.818,87.67,136.818,153.386v0.534h-18.171v-0.534
	C118.647,77.65,180.264,16.033,256,16.033z M392.014,270.158c3.35,22.332-3.181,44.954-17.917,62.065
	c-14.736,17.112-36.138,26.925-58.721,26.925H289.67v-9.086c0-4.427-3.589-8.017-8.017-8.017h-51.307
	c-4.427,0-8.017,3.589-8.017,8.017v9.086h-25.706c-22.581,0-43.985-9.814-58.721-26.924c-14.736-17.112-21.267-39.734-17.917-62.065
	l15.031-100.204h2.175c4.052,43.112,40.448,76.96,84.602,76.96h68.409c44.154,0,80.55-33.849,84.602-76.96h2.175L392.014,270.158z
	 M273.637,358.079v17.637c0,9.725-7.912,17.637-17.637,17.637c-9.725,0-17.637-7.912-17.637-17.637v-17.637H273.637z
	 M359.148,161.937c0,38.015-30.928,68.944-68.944,68.944h-68.409c-38.015,0-68.944-30.928-68.944-68.944v-8.551
	c0-56.876,46.272-103.148,103.148-103.148S359.148,96.51,359.148,153.386V161.937z M422.305,463.099
	c-17.988,20.887-44.114,32.867-71.68,32.867h-189.25c-27.566,0-53.692-11.98-71.681-32.867
	c-17.988-20.887-25.959-48.501-21.87-75.762l31.447-209.645c0.672-4.483,4.451-7.738,8.985-7.738h10.549l-14.675,97.825
	c-4.043,26.953,3.838,54.256,21.623,74.907s43.616,32.495,70.871,32.495h25.706v0.534c0,18.566,15.105,33.67,33.67,33.67
	c18.566,0,33.67-15.105,33.67-33.67v-0.534h25.706c27.255,0,53.086-11.844,70.87-32.495c17.784-20.651,25.666-47.954,21.623-74.907
	l-14.674-97.825h10.549c4.534,0,8.312,3.254,8.985,7.738l31.447,209.645l0,0C448.265,414.597,440.293,442.212,422.305,463.099z"/>
<g>
</g>
<g>
</g>
<g>
</g>
<g>
</g>
<g>
</g>
<g>
</g>
<g>
</g>
<g>
</g>
<g>
</g>
<g>
</g>
<g>
</g>
<g>
</g>
<g>
</g>
<g>
</g>
<g>
</g>
</svg>
