<?xml version="1.0" encoding="iso-8859-1"?>
<!-- Generator: Adobe Illustrator 19.0.0, SVG Export Plug-In . SVG Version: 6.00 Build 0)  -->
<svg version="1.1" id="Layer_1" xmlns="http://www.w3.org/2000/svg" xmlns:xlink="http://www.w3.org/1999/xlink" x="0px" y="0px"
	 viewBox="0 0 512 512" style="enable-background:new 0 0 512 512;" xml:space="preserve">
<path style="fill:#707487;" d="M346.548,150.057c-36.217-25.543-63.38,8.516-90.543,8.516c-27.163,0-54.325-34.059-90.543-8.516
	c-46.381,32.713-63.38,221.385-63.38,221.385h307.845C409.928,371.441,392.928,182.769,346.548,150.057z"/>
<path style="fill:#464655;" d="M108.385,320.134c-4.354,29.758-6.302,51.308-6.302,51.308h307.845c0,0-1.949-21.549-6.302-51.308
	H108.385z"/>
<path d="M511.162,359.334c-1.964-3.956-6.769-5.575-10.732-3.626c-0.157,0.077-15.957,7.716-39.195,7.716H417.18
	c-1.616-15.309-5.974-52.625-13.683-91.949c-13.744-70.117-31.35-113.172-52.328-127.968c-27.274-19.235-50.721-8.979-69.562-0.738
	c-9.154,4.004-17.802,7.787-25.601,7.787c-7.8,0-16.446-3.783-25.601-7.787c-18.841-8.242-42.288-18.5-69.562,0.738
	c-20.978,14.797-38.584,57.851-52.329,127.968c-7.708,39.325-12.066,76.642-13.683,91.949H50.775
	c-23.238,0-39.038-7.638-39.171-7.705c-3.958-1.982-8.775-0.375-10.755,3.585s-0.375,8.776,3.585,10.756
	c0.767,0.384,19.108,9.398,46.341,9.398h410.46c27.234,0,45.574-9.014,46.341-9.398
	C511.527,368.085,513.124,363.292,511.162,359.334z M170.083,156.608c19.888-14.027,35.647-7.134,53.894,0.849
	c10.263,4.489,20.874,9.132,32.027,9.132c11.153,0,21.765-4.642,32.028-9.132c18.247-7.982,34.008-14.875,53.894-0.849
	c25.504,17.988,42.914,94.631,52.432,155.508H117.65C127.169,251.239,144.58,174.595,170.083,156.608z M115.267,328.15h281.474
	c1.871,13.267,3.318,25.323,4.349,35.274H110.918C111.95,353.474,113.398,341.418,115.267,328.15z"/>
<g>
</g>
<g>
</g>
<g>
</g>
<g>
</g>
<g>
</g>
<g>
</g>
<g>
</g>
<g>
</g>
<g>
</g>
<g>
</g>
<g>
</g>
<g>
</g>
<g>
</g>
<g>
</g>
<g>
</g>
</svg>
