<?xml version="1.0" encoding="iso-8859-1"?>
<!-- Generator: Adobe Illustrator 19.0.0, SVG Export Plug-In . SVG Version: 6.00 Build 0)  -->
<svg version="1.1" id="Layer_1" xmlns="http://www.w3.org/2000/svg" xmlns:xlink="http://www.w3.org/1999/xlink" x="0px" y="0px"
	 viewBox="0 0 512 512" style="enable-background:new 0 0 512 512;" xml:space="preserve">
<path style="fill:#D74B55;" d="M196.142,320.133C144.835,183.315,61.996,100.475,61.996,100.475l14.43-28.326
	c0,0,26.722,21.912,64.847,67.696c64.166,77.059,123.813,211.285,173.161,222.33l-101.189,0.713L196.142,320.133z"/>
<path style="fill:#EBC9A0;" d="M8.017,234.622c0,33.258,16.168,106.937,24.924,197.458c0.424,4.384,4.09,7.77,8.493,7.77h9.338
	c4.722,0,8.551-3.829,8.551-8.551V253.862L8.017,234.622z"/>
<path style="fill:#FF5A64;" d="M503.983,408.109c0,3.687-2.355,6.955-5.853,8.116c-18.278,6.064-77.319,23.624-148.067,23.624
	c-34.205,0-85.512-8.551-171.023-85.511C102.503,285.455,8.017,234.622,8.017,234.622l8.551-34.205
	c0,0,94.063,42.756,222.33,128.267c92.769,61.846,128.268,25.652,145.37,8.551l104.168,44.643
	c9.432,4.043,15.548,13.317,15.548,23.58V408.109z"/>
<path style="fill:#DCB991;" d="M29.124,397.093c1.364,11.339,2.658,23.003,3.817,34.986c0.423,4.384,4.09,7.77,8.492,7.77h9.338
	c4.723,0,8.551-3.829,8.551-8.551v-34.205H29.124z"/>
<path d="M491.594,374.511l-104.168-44.643c-3.015-1.292-6.51-0.618-8.827,1.7l-0.229,0.229
	c-10.782,10.784-29.585,28.763-61.12,22.885c-26.688-4.975-64.484-63.026-99.144-117.691
	c-22.736-35.859-46.247-72.939-70.672-102.273C109.261,88.875,82.625,66.866,81.51,65.952c-1.877-1.539-4.348-2.145-6.725-1.648
	c-2.376,0.497-4.398,2.045-5.501,4.208l-14.43,28.326c-1.658,3.253-0.902,7.219,1.829,9.641c0.17,0.151,17.21,15.377,40.849,46.424
	c19.357,25.423,46.776,66.387,72.849,122.611c-69.654-42.426-125.903-71.217-150.495-82.396c-2.167-0.984-4.658-0.956-6.801,0.078
	c-2.143,1.035-3.717,2.967-4.293,5.276l-8.551,34.205C0.233,232.705,0,233.742,0,234.622c0,17.297,4.117,44.46,9.329,78.849
	c5.031,33.197,11.293,74.51,15.633,119.382c0.828,8.56,7.91,15.014,16.473,15.014h9.338c9.136,0,16.568-7.432,16.568-16.568V279.872
	c31.887,20.817,71.174,48.779,106.337,80.425c86.24,77.616,139.564,87.569,176.386,87.569c85.976,0,153.886-25.095,156.735-26.164
	c3.129-1.174,5.202-4.164,5.202-7.506v-8.737C512,391.971,503.99,379.823,491.594,374.511z M71.869,98.757l7.002-13.745
	c10.41,9.556,30.819,29.436,56.24,59.966c23.761,28.535,46.99,65.169,69.453,100.598c22.434,35.381,43.141,68.036,63.048,91.141
	c-7.571-4.093-15.641-8.951-24.268-14.702c-16.661-11.107-32.969-21.626-48.743-31.525C145.653,175.87,88.366,114.844,71.869,98.757
	z M51.307,431.298c0,0.295-0.239,0.534-0.534,0.534h-9.338c-0.255,0-0.486-0.235-0.513-0.525c-0.86-8.89-1.796-17.629-2.779-26.198
	h13.164V431.298z M51.307,389.077H36.222c-3.593-28.848-7.602-55.316-11.041-78.008c-3.822-25.223-7.044-46.48-8.425-62.325
	c8.304,4.789,20.282,11.881,34.551,20.855V389.077z M495.967,408.489c-17.348,5.758-76.06,23.344-145.904,23.344
	c-33.957,0-83.473-9.485-165.66-83.454C118.558,289.119,38.668,242.616,17.287,230.594l4.686-18.745
	c26.118,12.624,108.321,54.068,212.478,123.505c41.499,27.665,77.292,39.505,106.383,35.186
	c22.034-3.27,36.124-14.998,45.235-23.811l99.209,42.518c6.494,2.783,10.689,9.147,10.689,16.211V408.489z"/>
<g>
</g>
<g>
</g>
<g>
</g>
<g>
</g>
<g>
</g>
<g>
</g>
<g>
</g>
<g>
</g>
<g>
</g>
<g>
</g>
<g>
</g>
<g>
</g>
<g>
</g>
<g>
</g>
<g>
</g>
</svg>
