<?xml version="1.0" encoding="iso-8859-1"?>
<!-- Generator: Adobe Illustrator 19.0.0, SVG Export Plug-In . SVG Version: 6.00 Build 0)  -->
<svg version="1.1" id="Layer_1" xmlns="http://www.w3.org/2000/svg" xmlns:xlink="http://www.w3.org/1999/xlink" x="0px" y="0px"
	 viewBox="0 0 512 512" style="enable-background:new 0 0 512 512;" xml:space="preserve">
<path style="fill:#F5DCB4;" d="M8.017,238.897c0,42.756,24.72,47.079,33.476,137.6c0.423,4.384,4.089,7.77,8.492,7.77h9.339
	c4.722,0,8.551-3.829,8.551-8.551V238.897L8.017,238.897L8.017,238.897z"/>
<path style="fill:#5B5D6E;" d="M503.983,358.613c0,0-102.614,25.653-179.574,25.653c-59.858,0-102.614-34.205-171.023-85.511
	S8.017,238.897,8.017,238.897c0-59.858,25.653-111.165,25.653-111.165s51.307,0,239.432,162.472
	c64.717,55.892,128.267,8.551,128.267,8.551l87.066,27.541c9.432,4.043,15.548,13.317,15.548,23.579V358.613z"/>
<path style="fill:#464655;" d="M332.96,358.613c-59.858,0-102.614-34.205-171.023-85.511
	C114.776,237.73,47.303,218.619,9.933,210.158c-1.169,9.232-1.917,18.848-1.917,28.739c0,0,76.96,8.551,145.37,59.858
	s111.165,85.511,171.023,85.511c76.96,0,179.574-25.653,179.574-25.653v-8.738c0-5.055-1.496-9.863-4.129-13.931
	C470.09,342.703,393.585,358.613,332.96,358.613z"/>
<path style="fill:#EBC9A0;" d="M38.137,350.062c1.269,7.927,2.41,16.651,3.356,26.435c0.423,4.384,4.089,7.77,8.492,7.77h9.338
	c4.722,0,8.551-3.829,8.551-8.551v-25.653H38.137z"/>
<path d="M491.594,318.927c-0.243-0.104-0.49-0.196-0.741-0.275l-87.066-27.541c-2.441-0.776-5.127-0.321-7.191,1.203
	c-0.15,0.111-15.191,11.065-37.287,15.388c-29.039,5.687-56.28-2.245-80.967-23.565c-78.429-67.735-142.89-115.878-191.593-143.094
	c-36.324-20.299-50.589-21.328-53.079-21.328c-3.037,0-5.813,1.716-7.17,4.432C25.417,126.312,0,177.848,0,238.897
	c0,20.397,5.323,33.079,11.487,47.766c7.678,18.293,17.234,41.062,22.026,90.608c0.828,8.56,7.91,15.014,16.473,15.014h9.338
	c9.136,0,16.568-7.432,16.568-16.568V265.374c22.662,8.785,48.307,21.51,72.685,39.795l8.909,6.691
	c64.453,48.428,107.033,80.424,166.924,80.424c77.062,0,177.289-24.835,181.518-25.893c3.569-0.893,6.072-4.099,6.072-7.777v-8.738
	C512,336.389,503.99,324.241,491.594,318.927z M59.324,376.25h-9.338c-0.255,0-0.486-0.236-0.513-0.524
	c-0.607-6.28-1.29-12.143-2.033-17.647h12.418v17.637C59.858,376.009,59.619,376.25,59.324,376.25z M59.858,342.045H44.937
	c-5.341-29.832-12.566-47.052-18.666-61.588c-4.766-11.357-8.467-20.194-9.747-32.101c9.26,1.695,24.701,5.071,43.334,11.254
	V342.045z M495.967,352.29c-23.055,5.398-107.045,23.96-171.557,23.96c-54.538,0-95.416-30.715-157.291-77.208l-8.922-6.7
	c-57.906-43.43-120.927-56.896-142.044-60.37c1.47-43.35,16.234-81.45,22.204-95.201c6.705,1.822,20.701,6.845,44.673,20.592
	c59.004,33.835,133.08,94.215,184.832,138.909c35.891,30.998,71.6,31.803,95.232,27.026c19.004-3.844,33.249-11.756,39.537-15.735
	l82.974,26.248c6.306,2.854,10.361,9.121,10.361,16.065v2.414H495.967z"/>
<g>
</g>
<g>
</g>
<g>
</g>
<g>
</g>
<g>
</g>
<g>
</g>
<g>
</g>
<g>
</g>
<g>
</g>
<g>
</g>
<g>
</g>
<g>
</g>
<g>
</g>
<g>
</g>
<g>
</g>
</svg>
