<?xml version="1.0" encoding="iso-8859-1"?>
<!-- Generator: Adobe Illustrator 19.0.0, SVG Export Plug-In . SVG Version: 6.00 Build 0)  -->
<svg version="1.1" id="Layer_1" xmlns="http://www.w3.org/2000/svg" xmlns:xlink="http://www.w3.org/1999/xlink" x="0px" y="0px"
	 viewBox="0 0 512.001 512.001" style="enable-background:new 0 0 512.001 512.001;" xml:space="preserve">
<path style="fill:#6487C8;" d="M453.356,105.63c-0.409-17.611-11.577-33.168-28.132-39.188l-66.61-24.221H153.386L86.778,66.442
	c-16.554,6.02-27.724,21.577-28.132,39.188l-7.737,332.716c-0.081,3.492,1.969,6.682,5.179,8.058l54.522,23.375l0.002-0.021
	l-0.002,34.226h119.737l25.656-111.165l25.651,111.165h120.005l0.002-34.322l54.255-23.258c3.21-1.377,5.261-4.566,5.18-8.058
	L453.356,105.63z"/>
<g>
	<path style="fill:#5A7DBE;" d="M367.169,59.324c-5.564-27.817-25.604-41.156-38.93-47.08c-6.569-2.921-13.742-4.226-20.931-4.226
		H204.694c-7.187,0-14.357,1.305-20.925,4.224c-13.326,5.925-33.37,19.264-38.933,47.083l34.205,8.551l-25.657,25.653
		l102.614,196.676l-0.033-0.121l0.041,0.121L358.621,93.528l-25.657-25.653C332.964,67.875,367.168,59.324,367.169,59.324z"/>
	<path style="fill:#5A7DBE;" d="M65.864,82.987c-4.387,6.592-7.027,14.368-7.218,22.643l-7.738,332.716
		c-0.081,3.491,1.969,6.682,5.179,8.057l54.523,23.376V148.985c0-13.607-5.405-26.657-15.028-36.279L65.864,82.987z"/>
	<path style="fill:#5A7DBE;" d="M446.116,82.987c4.387,6.592,7.027,14.368,7.218,22.643l7.738,332.716
		c0.081,3.491-1.969,6.682-5.179,8.057l-54.523,23.376V148.985c0-13.607,5.405-26.657,15.028-36.279L446.116,82.987z"/>
</g>
<g>
	<path style="fill:#4D71B4;" d="M84.952,179.04v279.739l25.653,10.998V166.213c0-2.361-1.914-4.276-4.276-4.276h-4.276
		C92.608,161.937,84.952,169.594,84.952,179.04z"/>
	<path style="fill:#4D71B4;" d="M426.998,179.04v279.739l-25.653,10.998V166.213c0-2.361,1.914-4.276,4.276-4.276h4.276
		C419.34,161.937,426.998,169.594,426.998,179.04z"/>
	<path style="fill:#4D71B4;" d="M279.628,8.017h-47.255c-22.554,0-38.933,21.445-33,43.204l56.624,238.984
		c0.002,0,56.63-238.984,56.63-238.984C318.562,29.462,302.181,8.017,279.628,8.017z"/>
</g>
<path d="M461.495,110.789c-0.564-24.267-15.596-45.503-38.297-54.099l-56.714-21.478c-10.13-17.101-25.558-26.183-35.546-30.54
	C324.031,1.659,315.639,0,307.307,0H204.694c-8.33,0-16.721,1.659-23.627,4.672c-9.938,4.335-25.263,13.345-35.394,30.281
	L88.696,56.658C66.061,65.281,51.071,86.5,50.508,110.716l-7.615,327.443c-0.158,6.802,3.781,12.931,10.035,15.612l49.667,21.293
	l-0.002,28.919c0,2.126,0.844,4.165,2.347,5.669c1.504,1.504,3.542,2.348,5.669,2.348h119.737c3.733,0,6.971-2.577,7.811-6.213
	L256,428.472l17.841,77.315c0.84,3.637,4.078,6.213,7.811,6.213h120.005c4.427,0,8.017-3.588,8.017-8.017l0.002-29.038
	l49.396-21.175c6.255-2.681,10.195-8.81,10.036-15.612L461.495,110.789z M357.341,53.516l-26.322,6.58
	c-2.803,0.701-5.011,2.854-5.782,5.637c-0.771,2.783,0.015,5.767,2.058,7.809l21.495,21.492l-70.178,134.505l41.785-176.348
	c3.435-12.76,0.808-26.093-7.217-36.601c-0.055-0.072-0.114-0.138-0.17-0.21c4.155,0.493,8.118,1.503,11.514,2.984
	C336.318,24.512,350.922,34.514,357.341,53.516z M255.999,255.441L207.38,50.238h97.243L255.999,255.441z M279.627,16.033
	c8.23,0,15.815,3.752,20.811,10.291c1.849,2.421,3.232,5.084,4.137,7.88h-97.152c0.904-2.796,2.287-5.459,4.137-7.88
	c4.997-6.539,12.583-10.291,20.814-10.291H279.627z M187.479,19.367c3.395-1.481,7.358-2.492,11.511-2.984
	c-0.056,0.072-0.114,0.138-0.17,0.21c-8.025,10.507-10.653,23.84-7.217,36.599l41.78,176.336l-70.17-134.491l21.495-21.492
	c2.043-2.043,2.828-5.025,2.058-7.809c-0.771-2.783-2.98-4.937-5.782-5.637l-26.322-6.58
	C161.082,34.514,175.686,24.512,187.479,19.367z M223.97,495.967H118.627l0.02-325.478c0-4.427-3.588-8.017-8.017-8.017l0,0
	c-4.427,0-8.017,3.588-8.017,8.017l-0.018,287.133l-43.35-18.585c-0.202-0.087-0.329-0.284-0.324-0.505l7.615-327.443
	c0.41-17.671,11.35-33.156,27.867-39.448l43.131-16.431c-0.197,0.837-0.388,1.68-0.56,2.542c-0.839,4.196,1.765,8.312,5.917,9.35
	l20.467,5.117L147.716,87.86c-2.477,2.476-3.059,6.272-1.44,9.377l101.707,194.939v99.733L223.97,495.967z M452.755,439.035
	l-43.077,18.466l0.018-287.013c0-4.427-3.588-8.017-8.017-8.017l0,0c-4.427,0-8.017,3.588-8.017,8.017l-0.02,325.478H288.031
	L264.017,391.9v-99.721L365.728,97.237c1.62-3.105,1.037-6.902-1.44-9.377l-15.643-15.641l20.467-5.117
	c4.152-1.038,6.757-5.153,5.917-9.35c-0.159-0.798-0.338-1.578-0.518-2.355l43.008,16.287c16.566,6.273,27.536,21.769,27.947,39.479
	l7.614,327.37C453.084,438.751,452.957,438.949,452.755,439.035z"/>
<path d="M369.98,385.313l-68.409-25.653c-4.146-1.555-8.767,0.546-10.321,4.691c-1.555,4.145,0.546,8.767,4.691,10.321
	l68.409,25.653c0.928,0.347,1.878,0.512,2.813,0.512c3.246,0,6.301-1.985,7.507-5.204
	C376.226,391.488,374.126,386.867,369.98,385.313z"/>
<path d="M210.43,359.659l-68.409,25.653c-4.145,1.554-6.247,6.175-4.691,10.321c1.207,3.218,4.262,5.204,7.507,5.204
	c0.935,0,1.887-0.165,2.813-0.512l68.409-25.653c4.145-1.554,6.247-6.175,4.691-10.321
	C219.196,360.204,214.572,358.105,210.43,359.659z"/>
<path d="M238.898,84.443h34.198c4.427,0,8.017-3.589,8.017-8.017s-3.589-8.017-8.017-8.017h-34.198
	c-4.427,0-8.017,3.589-8.017,8.017S234.471,84.443,238.898,84.443z"/>
<g>
</g>
<g>
</g>
<g>
</g>
<g>
</g>
<g>
</g>
<g>
</g>
<g>
</g>
<g>
</g>
<g>
</g>
<g>
</g>
<g>
</g>
<g>
</g>
<g>
</g>
<g>
</g>
<g>
</g>
</svg>
