<?xml version="1.0" encoding="iso-8859-1"?>
<!-- Generator: Adobe Illustrator 19.0.0, SVG Export Plug-In . SVG Version: 6.00 Build 0)  -->
<svg version="1.1" id="Layer_1" xmlns="http://www.w3.org/2000/svg" xmlns:xlink="http://www.w3.org/1999/xlink" x="0px" y="0px"
	 viewBox="0 0 511.998 511.998" style="enable-background:new 0 0 511.998 511.998;" xml:space="preserve">
<path id="SVGCleanerId_0" style="fill:#FFDC64;" d="M259.145,74.055L214.14,61.78c-43.517-11.869-86.407,20.891-86.407,65.997
	v95.251c0,10.688-12.922,16.041-20.48,8.483l-22.275-22.275c-8.551-8.551-20.669-12.267-31.891-5.979
	c-9.765,5.474-13.071,18.044-8.584,28.298l80.127,204.648c-3.181,1.246-5.448,4.302-5.448,7.925v51.306
	c0,4.722,3.829,8.551,8.551,8.551h162.469c4.722,0,8.551-3.829,8.551-8.551v-51.306c0-4.722-3.829-8.551-8.551-8.551v-13.213
	c0-27.967,3.43-55.827,10.213-82.96l3.695-14.777c7.801-31.202,11.745-63.242,11.745-95.405v-80.917
	C315.855,113.597,292.627,83.186,259.145,74.055z"/>
<g>
	<path id="SVGCleanerId_0_1_" style="fill:#FFDC64;" d="M259.145,74.055L214.14,61.78c-43.517-11.869-86.407,20.891-86.407,65.997
		v95.251c0,10.688-12.922,16.041-20.48,8.483l-22.275-22.275c-8.551-8.551-20.669-12.267-31.891-5.979
		c-9.765,5.474-13.071,18.044-8.584,28.298l80.127,204.648c-3.181,1.246-5.448,4.302-5.448,7.925v51.306
		c0,4.722,3.829,8.551,8.551,8.551h162.469c4.722,0,8.551-3.829,8.551-8.551v-51.306c0-4.722-3.829-8.551-8.551-8.551v-13.213
		c0-27.967,3.43-55.827,10.213-82.96l3.695-14.777c7.801-31.202,11.745-63.242,11.745-95.405v-80.917
		C315.855,113.597,292.627,83.186,259.145,74.055z"/>
</g>
<g>
	<path style="fill:#FFC850;" d="M53.088,203.255c11.222-6.288,23.34-2.572,31.891,5.979l6.302,6.301
		c-14.879-1.112-33.995,3.556-43.816,23.58l-2.961-7.561C40.016,221.299,43.322,208.73,53.088,203.255z"/>
	<path style="fill:#FFC850;" d="M259.146,74.055L214.141,61.78c-12.938-3.528-25.793-3.037-37.509,0.476
		c-3.957,10.935-6.144,22.641-6.144,34.741v80.917c0,34.226,4.209,68.42,12.511,101.625l3.695,14.779
		c6.202,24.804,9.377,50.336,9.446,75.902c-5.319,6.032-8.55,13.946-8.55,22.6v17.102h-73.249l10.043,25.653h63.206v8.551
		c0,6.257,1.812,12.049,4.758,17.102h-73.166v17.102h179.571v-34.204c0-4.722-3.829-8.551-8.551-8.551v-13.213
		c0-27.967,3.43-55.827,10.213-82.96l3.695-14.777c7.801-31.202,11.745-63.242,11.745-95.405v-80.917
		C315.855,113.597,292.628,83.186,259.146,74.055z"/>
</g>
<path style="fill:#FF9BA9;" d="M458.909,151.949c-11.222-6.288-23.34-2.572-31.891,5.979l-22.275,22.275
	c-7.557,7.558-20.48,2.205-20.48-8.483V76.471c0-45.105-42.89-77.865-86.407-65.997l-45.005,12.275
	c-33.481,9.131-56.709,39.542-56.709,74.247v80.917c0,32.162,3.944,64.202,11.745,95.405l3.695,14.777
	c6.783,27.132,10.213,54.993,10.213,82.96v21.764h162.469l83.23-212.573C471.98,169.993,468.674,157.423,458.909,151.949z"/>
<path style="fill:#FF8B9B;" d="M221.675,367.167c0.015,1.298,0.119,2.591,0.119,3.889v21.764h162.469l10.044-25.653H221.675z"/>
<path style="fill:#FF9BA9;" d="M384.263,452.678H221.794c-4.722,0-8.551-3.829-8.551-8.551V392.82c0-4.722,3.829-8.551,8.551-8.551
	h162.469c4.722,0,8.551,3.829,8.551,8.551v51.306C392.814,448.849,388.986,452.678,384.263,452.678z"/>
<g>
	<rect x="213.239" y="409.925" style="fill:#FF8B9B;" width="179.571" height="17.102"/>
	<path style="fill:#FF8B9B;" d="M250.894,54.756l56.952-18.322c21.115-6.793,42.768-7.002,61.741-2.205
		c-16.246-20.576-43.827-31.367-71.73-23.758l-45.005,12.275c-32.519,8.868-55.299,37.825-56.585,71.28
		C207.558,76.806,226.678,62.546,250.894,54.756z"/>
	<path style="fill:#FF8B9B;" d="M458.909,151.949c-11.222-6.288-23.34-2.572-31.891,5.979l-6.302,6.301
		c14.879-1.112,33.995,3.556,43.816,23.58l2.961-7.561C471.98,169.993,468.674,157.423,458.909,151.949z"/>
</g>
<path d="M462.828,144.956c-13.511-7.569-29.404-4.771-41.48,7.305l-22.274,22.275c-1.697,1.697-3.601,1.168-4.339,0.864
	c-0.739-0.306-2.457-1.277-2.457-3.677V76.472c0-24.019-10.947-46.156-30.035-60.735C343.156,1.158,318.918-3.584,295.746,2.74
	l-45.004,12.275c-20.931,5.708-38.27,19.046-49.356,36.5c-20.224-1.421-40.332,5.342-55.76,18.912
	c-16.465,14.481-25.908,35.384-25.908,57.351v95.25c0,2.401-1.718,3.371-2.457,3.677c-0.739,0.304-2.64,0.835-4.337-0.864
	l-22.275-22.276c-12.076-12.075-27.968-14.872-41.479-7.304c-12.963,7.266-18.244,24.117-12.053,38.405l80.2,196.595
	c-3.747,3.04-6.149,7.676-6.149,12.865v51.306c0,9.136,7.432,16.568,16.568,16.568h162.469c9.136,0,16.568-7.432,16.568-16.568
	v-34.738h77.493c9.136,0,16.568-7.432,16.568-16.568v-51.306c0-5.19-2.403-9.825-6.149-12.865l80.199-196.592
	C481.075,169.075,475.794,152.223,462.828,144.956z M51.848,228.34c-2.995-6.844-0.729-14.791,5.158-18.091
	c10.493-5.885,19.724,2.074,22.303,4.654l22.275,22.276c5.743,5.742,14.304,7.447,21.809,4.339
	c7.505-3.109,12.355-10.367,12.355-18.49v-95.25c0-17.614,7.267-33.705,20.465-45.312c10.467-9.207,23.649-14.448,37.264-15.043
	c-3.463,9.281-5.353,19.259-5.353,29.573v80.918c0,32.787,4.032,65.539,11.984,97.349l3.695,14.777
	c6.617,26.472,9.974,53.729,9.974,81.015v7.276c-5.093,2.829-8.551,8.26-8.551,14.489v34.738h-72.106L51.926,228.526
	C51.901,228.464,51.874,228.401,51.848,228.34z M290.736,495.433c0,0.294-0.241,0.534-0.534,0.534H127.732
	c-0.295,0-0.534-0.241-0.534-0.534v-51.306c0-0.292,0.236-0.529,0.528-0.533c0.003,0,0.006,0.001,0.01,0.001
	c0.015,0,0.029-0.002,0.044-0.002h77.446v0.534c0,9.136,7.432,16.568,16.568,16.568h68.942V495.433z M384.797,444.126
	c0,0.294-0.241,0.534-0.534,0.534H221.794c-0.295,0-0.534-0.241-0.534-0.534V392.82c0-0.294,0.239-0.534,0.534-0.534h162.423
	c0.015,0,0.029,0.002,0.044,0.002c0.003,0,0.006-0.001,0.01-0.001c0.291,0.004,0.528,0.242,0.528,0.533v51.306H384.797z
	 M460.149,177.034c-0.027,0.062-0.053,0.123-0.078,0.186l-81.194,199.033H229.81v-5.197c0-28.596-3.517-57.162-10.453-84.905
	l-3.695-14.777c-7.635-30.538-11.505-61.983-11.505-93.46V96.995c0-31.004,20.89-58.354,50.803-66.513l45.005-12.275
	c18.309-4.993,37.464-1.251,52.547,10.27c15.083,11.52,23.734,29.015,23.734,47.994v95.25c0,8.123,4.849,15.381,12.354,18.489
	c7.509,3.111,16.067,1.406,21.811-4.339l22.275-22.275c2.578-2.579,11.805-10.537,22.302-4.654
	C460.878,162.243,463.144,170.189,460.149,177.034z"/>
<g>
</g>
<g>
</g>
<g>
</g>
<g>
</g>
<g>
</g>
<g>
</g>
<g>
</g>
<g>
</g>
<g>
</g>
<g>
</g>
<g>
</g>
<g>
</g>
<g>
</g>
<g>
</g>
<g>
</g>
</svg>
