<?xml version="1.0" encoding="iso-8859-1"?>
<!-- Generator: Adobe Illustrator 19.0.0, SVG Export Plug-In . SVG Version: 6.00 Build 0)  -->
<svg version="1.1" id="Layer_1" xmlns="http://www.w3.org/2000/svg" xmlns:xlink="http://www.w3.org/1999/xlink" x="0px" y="0px"
	 viewBox="0 0 512 512" style="enable-background:new 0 0 512 512;" xml:space="preserve">
<circle style="fill:#F5DCB4;" cx="191.866" cy="303.03" r="29.929"/>
<path style="fill:#FAEBC8;" d="M221.786,302.929c-0.059-16.445-13.37-29.756-29.814-29.814c-5.226,3.897-8.656,10.071-8.656,17.091
	c0,11.806,9.571,21.378,21.378,21.378C211.715,311.583,217.888,308.153,221.786,302.929z"/>
<circle style="fill:#F5DCB4;" cx="320.132" cy="303.03" r="29.929"/>
<path style="fill:#FAEBC8;" d="M350.053,302.929c-0.059-16.445-13.37-29.756-29.814-29.814c-5.226,3.897-8.656,10.071-8.656,17.091
	c0,11.806,9.571,21.378,21.378,21.378C339.982,311.583,346.154,308.153,350.053,302.929z"/>
<circle style="fill:#F5DCB4;" cx="255.999" cy="307.306" r="34.204"/>
<path style="fill:#FAEBC8;" d="M289.389,300.022c-2.834-13.03-13.071-23.269-26.102-26.102
	c-9.103,2.453-15.837,10.684-15.837,20.561c0,11.806,9.571,21.378,21.378,21.378C278.706,315.859,286.936,309.124,289.389,300.022z"
	/>
<g>
	<circle style="fill:#F5DCB4;" cx="140.559" cy="285.928" r="21.378"/>
	<circle style="fill:#F5DCB4;" cx="371.439" cy="285.928" r="21.378"/>
</g>
<path d="M507.653,163.363c-3.937-2.027-8.77-0.478-10.798,3.457c-21.117,41.008-57.657,76.326-103.212,99.88
	c-5.394-6.219-13.344-10.164-22.203-10.164c-11.975,0-22.294,7.202-26.87,17.499c-6.607-5.576-15.133-8.948-24.437-8.948
	c-12.795,0-24.122,6.372-30.999,16.101c-7.739-9.796-19.71-16.101-33.134-16.101c-13.424,0-25.396,6.305-33.134,16.101
	c-6.877-9.73-18.204-16.101-30.999-16.101c-9.303,0-17.829,3.37-24.437,8.948c-4.577-10.297-14.895-17.499-26.87-17.499
	c-8.86,0-16.809,3.945-22.204,10.165C72.8,243.145,36.262,207.826,15.146,166.82c-2.027-3.935-6.86-5.484-10.798-3.457
	c-3.937,2.027-5.483,6.861-3.457,10.798c22.716,44.113,61.908,81.988,110.657,107.062c-0.248,1.534-0.382,3.105-0.382,4.707
	c0,16.208,13.186,29.394,29.394,29.394c5.207,0,10.097-1.366,14.342-3.751c3.886,16.822,18.978,29.404,36.964,29.404
	c10.98,0,20.881-4.692,27.816-12.171c7.365,12.394,20.884,20.723,36.318,20.723c15.434,0,28.953-8.329,36.318-20.723
	c6.935,7.479,16.836,12.171,27.816,12.171c17.985,0,33.078-12.582,36.964-29.404c4.246,2.384,9.137,3.751,14.342,3.751
	c16.209,0,29.394-13.187,29.394-29.394c0-1.602-0.134-3.174-0.382-4.707c48.748-25.072,87.941-62.949,110.656-107.062
	C513.136,170.224,511.589,165.391,507.653,163.363z M140.562,299.291c-7.368,0-13.361-5.993-13.361-13.361
	c0-7.368,5.993-13.361,13.361-13.361c7.368,0,13.361,5.993,13.361,13.361C153.923,293.298,147.928,299.291,140.562,299.291z
	 M191.868,324.944c-12.083,0-21.912-9.829-21.912-21.912c0-12.083,9.829-21.912,21.912-21.912c12.083,0,21.912,9.829,21.912,21.912
	C213.78,315.115,203.95,324.944,191.868,324.944z M256.001,333.496c-14.44,0-26.188-11.747-26.188-26.188
	s11.748-26.188,26.188-26.188c14.44,0,26.188,11.747,26.188,26.188S270.441,333.496,256.001,333.496z M320.135,324.944
	c-12.083,0-21.912-9.829-21.912-21.912c0-12.083,9.829-21.912,21.912-21.912s21.912,9.829,21.912,21.912
	C342.047,315.115,332.216,324.944,320.135,324.944z M371.441,299.291c-7.368,0-13.361-5.993-13.361-13.361
	c0-7.368,5.993-13.361,13.361-13.361c7.368,0,13.361,5.993,13.361,13.361C384.802,293.298,378.808,299.291,371.441,299.291z"/>
<g>
</g>
<g>
</g>
<g>
</g>
<g>
</g>
<g>
</g>
<g>
</g>
<g>
</g>
<g>
</g>
<g>
</g>
<g>
</g>
<g>
</g>
<g>
</g>
<g>
</g>
<g>
</g>
<g>
</g>
</svg>
