<?xml version="1.0" encoding="iso-8859-1"?>
<!-- Generator: Adobe Illustrator 19.0.0, SVG Export Plug-In . SVG Version: 6.00 Build 0)  -->
<svg version="1.1" id="Layer_1" xmlns="http://www.w3.org/2000/svg" xmlns:xlink="http://www.w3.org/1999/xlink" x="0px" y="0px"
	 viewBox="0 0 512 512" style="enable-background:new 0 0 512 512;" xml:space="preserve">
<g>
	<path style="fill:#00AAF0;" d="M341.512,8.017h-17.102c-4.722,0-8.551,3.829-8.551,8.551v111.165h34.205V16.568
		C350.063,11.845,346.234,8.017,341.512,8.017z"/>
	<path style="fill:#00AAF0;" d="M187.591,8.017h-17.102c-4.722,0-8.551,3.829-8.551,8.551v111.165h34.205V16.568
		C196.142,11.845,192.313,8.017,187.591,8.017z"/>
</g>
<path style="fill:#00C3FF;" d="M392.818,503.983H289.139c-4.286,0-7.91-3.172-8.476-7.421l-14.982-112.37
	c-0.647-4.853-4.786-8.476-9.681-8.476l0,0c-4.896,0-9.034,3.624-9.681,8.476l-14.982,112.37c-0.567,4.248-4.19,7.421-8.476,7.421
	H119.182c-4.722,0-8.551-3.829-8.551-8.551V279.549c0-9.709,3.304-19.128,9.369-26.71l15.467-19.333
	c6.065-7.582,9.369-17.001,9.369-26.71v-70.513c0-4.722,3.829-8.551,8.551-8.551h205.228c4.722,0,8.551,3.829,8.551,8.551v70.514
	c0,9.709,3.304,19.128,9.369,26.71L392,252.84c6.065,7.582,9.369,17.001,9.369,26.71v215.882
	C401.37,500.155,397.541,503.983,392.818,503.983z"/>
<g>
	<path style="fill:#00AAF0;" d="M119.182,350.063c18.892,0,34.205-15.314,34.205-34.205v-42.756h-42.208
		c-0.325,2.126-0.547,4.275-0.547,6.447v70.514H119.182z"/>
	<path style="fill:#00AAF0;" d="M358.614,315.858c0,18.891,15.313,34.205,34.205,34.205h8.551v-70.514
		c0-2.172-0.222-4.32-0.547-6.447h-42.208V315.858z"/>
	<path style="fill:#00AAF0;" d="M119.182,503.983H222.86c4.286,0,7.91-3.174,8.476-7.421l3.572-26.783H110.631v25.653
		C110.631,500.155,114.459,503.983,119.182,503.983z"/>
	<path style="fill:#00AAF0;" d="M277.091,469.779l3.571,26.783c0.567,4.249,4.191,7.421,8.476,7.421h103.679
		c4.722,0,8.551-3.829,8.551-8.551v-25.653H277.091z"/>
	<path style="fill:#00AAF0;" d="M298.756,206.012c0,4.962-1.997,9.87-5.904,12.93c-9.028,7.071-22.181,11.533-36.852,11.533
		s-27.825-4.463-36.852-11.533c-3.907-3.06-5.903-7.968-5.903-12.93v-44.075h85.512V206.012z"/>
</g>
<path d="M398.26,247.83l-15.466-19.332c-4.909-6.135-7.613-13.842-7.613-21.702v-70.513c0-9.136-7.432-16.568-16.568-16.568h-0.534
	V16.568C358.079,7.432,350.647,0,341.512,0h-17.102c-9.136,0-16.568,7.432-16.568,16.568v103.148H204.159V16.568
	C204.159,7.432,196.727,0,187.591,0h-17.102c-9.136,0-16.568,7.432-16.568,16.568v103.148h-0.534
	c-9.136,0-16.568,7.432-16.568,16.568v70.514c0,7.86-2.703,15.566-7.613,21.702l-15.466,19.332
	c-7.175,8.967-11.126,20.232-11.126,31.717v215.883c0,9.136,7.432,16.568,16.568,16.568H222.86c8.27,0,15.331-6.181,16.422-14.378
	l14.983-112.371c0.114-0.866,0.862-1.519,1.735-1.519s1.62,0.653,1.735,1.519l14.982,112.372C273.81,505.82,280.871,512,289.139,512
	h103.679c9.136,0,16.568-7.432,16.568-16.568V279.549C409.386,268.064,405.436,256.798,398.26,247.83z M323.875,16.568
	c0-0.294,0.241-0.534,0.534-0.534h17.102c0.294,0,0.534,0.241,0.534,0.534v103.148h-18.171V16.568z M169.954,16.568
	c0-0.294,0.241-0.534,0.534-0.534h17.102c0.294,0,0.534,0.241,0.534,0.534v103.148h-18.171V16.568z M118.647,281.119h26.722v34.739
	c0,14.441-11.747,26.188-26.188,26.188h-0.534V281.119z M223.389,495.504c-0.034,0.264-0.262,0.463-0.529,0.463H119.182
	c-0.294,0-0.534-0.241-0.534-0.534v-17.637H225.75L223.389,495.504z M247.983,369.633c-5.082,2.586-8.816,7.542-9.611,13.499
	l-10.484,78.63H118.647V358.079h0.534c23.28,0,42.221-18.941,42.221-42.221v-34.739h86.58V369.633z M121.813,265.086
	c1.177-2.574,2.664-5.011,4.447-7.237l15.466-19.332c7.175-8.968,11.126-20.233,11.126-31.718v-70.514
	c0-0.294,0.241-0.534,0.534-0.534h205.228c0.294,0,0.534,0.24,0.534,0.534v70.514c0,11.485,3.951,22.75,11.126,31.718l15.466,19.332
	c1.782,2.228,3.27,4.664,4.447,7.237L121.813,265.086L121.813,265.086z M393.353,495.432c0,0.294-0.241,0.534-0.534,0.534H289.139
	c-0.266,0-0.495-0.2-0.529-0.464l-2.361-17.707h107.104V495.432z M393.353,461.762H284.111l-10.483-78.63
	c-0.795-5.957-4.531-10.913-9.611-13.499v-88.514h86.58v34.739c0,23.281,18.941,42.221,42.221,42.221h0.534V461.762z
	 M392.818,342.046c-14.441,0-26.188-11.747-26.188-26.188v-34.739h26.722v60.927H392.818z"/>
<path d="M179.125,169.954c4.428,0,8.017-3.588,8.017-8.017c0-4.428-3.588-8.017-8.017-8.017h-0.086
	c-4.428,0-7.974,3.588-7.974,8.017C171.066,166.366,174.698,169.954,179.125,169.954z"/>
<path d="M333.046,169.954c4.428,0,8.017-3.588,8.017-8.017c0-4.428-3.588-8.017-8.017-8.017h-0.086
	c-4.428,0-7.974,3.588-7.974,8.017C324.986,166.366,328.618,169.954,333.046,169.954z"/>
<path d="M214.203,225.253c10.743,8.413,25.977,13.239,41.797,13.239c15.82,0,31.053-4.826,41.797-13.239
	c5.705-4.468,8.975-11.481,8.975-19.241v-44.075c0-4.428-3.588-8.017-8.017-8.017h-85.511c-4.428,0-8.017,3.588-8.017,8.017v44.075
	C205.228,213.772,208.499,220.786,214.203,225.253z M221.261,169.954h69.478v36.058c0,2.757-1.057,5.231-2.828,6.619
	c-7.975,6.246-19.606,9.827-31.911,9.827s-23.936-3.583-31.91-9.827c-1.772-1.388-2.829-3.862-2.829-6.619V169.954z"/>
<g>
</g>
<g>
</g>
<g>
</g>
<g>
</g>
<g>
</g>
<g>
</g>
<g>
</g>
<g>
</g>
<g>
</g>
<g>
</g>
<g>
</g>
<g>
</g>
<g>
</g>
<g>
</g>
<g>
</g>
</svg>
