<?xml version="1.0" encoding="iso-8859-1"?>
<!-- Generator: Adobe Illustrator 19.0.0, SVG Export Plug-In . SVG Version: 6.00 Build 0)  -->
<svg version="1.1" id="Layer_1" xmlns="http://www.w3.org/2000/svg" xmlns:xlink="http://www.w3.org/1999/xlink" x="0px" y="0px"
	 viewBox="0 0 512 512" style="enable-background:new 0 0 512 512;" xml:space="preserve">
<path style="fill:#FAEBC8;" d="M387.177,269.818c-11.663-55.398-60.537-95.053-117.149-95.053h-28.056
	c-56.612,0-105.486,39.656-117.149,95.053l-14.193,67.418H401.37L387.177,269.818z"/>
<polygon style="fill:#FF9BA9;" points="110.63,337.236 401.37,337.236 394.177,303.071 117.823,303.071 "/>
<path style="fill:#FF8B9B;" d="M267.666,303.072L267.666,303.072H141.72c-3.482,11.119-2.411,23.535,3.712,34.165h118.523
	C270.076,326.605,271.147,314.188,267.666,303.072z"/>
<path style="fill:#FFAAB9;" d="M187.931,332.103c0.372,1.853,1.062,3.587,1.982,5.172h29.561c0.918-1.585,1.61-3.319,1.982-5.172
	c7.561,2.554,16.121-0.477,20.265-7.654c4.144-7.178,2.489-16.106-3.503-21.378c5.992-5.272,7.647-14.2,3.503-21.378
	c-4.144-7.178-12.704-10.209-20.265-7.654c-1.57-7.826-8.474-13.724-16.762-13.724s-15.192,5.897-16.762,13.724
	c-7.561-2.555-16.121,0.477-20.265,7.654c-4.144,7.178-2.489,16.106,3.503,21.378c-5.992,5.272-7.647,14.2-3.503,21.378
	C171.81,331.626,180.369,334.657,187.931,332.103z"/>
<circle style="fill:#FF9BA9;" cx="204.693" cy="303.074" r="17.102"/>
<path d="M503.983,329.219h-96.11l-12.853-61.053c-6.018-28.588-21.826-54.468-44.512-72.875s-51.266-28.544-80.48-28.544h-28.056
	c-29.214,0-57.796,10.136-80.481,28.544s-38.493,44.287-44.512,72.875l-12.852,61.053H8.017c-4.427,0-8.017,3.588-8.017,8.017
	c0,4.428,3.589,8.017,8.017,8.017h495.967c4.427,0,8.017-3.588,8.017-8.017C512,332.807,508.411,329.219,503.983,329.219z
	 M195.458,329.219c-0.651-1.712-1.865-3.168-3.474-4.098c-1.996-1.151-4.391-1.393-6.574-0.652
	c-4.079,1.375-8.604-0.335-10.758-4.068c-2.155-3.734-1.375-8.507,1.857-11.351c1.731-1.522,2.721-3.715,2.721-6.019
	c0-2.305-0.992-4.498-2.722-6.02c-3.231-2.842-4.012-7.616-1.856-11.35c2.156-3.734,6.681-5.443,10.758-4.068
	c2.182,0.735,4.577,0.501,6.574-0.652c1.996-1.151,3.399-3.106,3.852-5.367c0.847-4.22,4.59-7.282,8.902-7.282
	c4.312,0,8.055,3.062,8.902,7.282c0.453,2.26,1.857,4.215,3.852,5.367c1.996,1.152,4.39,1.388,6.574,0.652
	c4.079-1.376,8.602,0.335,10.758,4.068c2.156,3.734,1.376,8.507-1.856,11.35c-1.731,1.522-2.722,3.715-2.722,6.02
	c0,2.303,0.991,4.497,2.721,6.019c3.231,2.843,4.013,7.617,1.857,11.351s-6.684,5.444-10.758,4.068
	c-2.185-0.739-4.578-0.5-6.573,0.652c-1.61,0.929-2.824,2.386-3.475,4.098H195.458z M248.706,328.418
	c3.115-5.395,4.001-11.574,2.871-17.37h136.086l3.826,18.171H248.206C248.373,328.953,248.548,328.692,248.706,328.418z
	 M171.593,207.743c19.838-16.098,44.833-24.962,70.379-24.962h28.056c25.547,0,50.542,8.864,70.379,24.962
	c19.839,16.096,33.662,38.727,38.925,63.726l4.956,23.546H251.578c1.13-5.796,0.243-11.975-2.872-17.37
	c-4.623-8.008-13.178-12.633-22.067-12.551c-4.356-7.737-12.658-12.835-21.903-12.835c-9.245,0-17.548,5.098-21.903,12.835
	c-0.091-0.001-0.181-0.002-0.271-0.002c-8.78,0-17.22,4.628-21.796,12.553c-3.115,5.395-4.002,11.574-2.872,17.37h-30.182
	l4.956-23.546C137.931,246.47,151.755,223.838,171.593,207.743z M124.336,311.048h33.559c-1.13,5.796-0.243,11.975,2.871,17.37
	c0.158,0.275,0.332,0.536,0.5,0.802h-40.755L124.336,311.048z"/>
<path d="M204.736,294.972c-4.427,0-8.059,3.631-8.059,8.059c0,4.428,3.632,8.059,8.059,8.059c4.427,0,8.059-3.631,8.059-8.059
	C212.795,298.603,209.163,294.972,204.736,294.972z"/>
<g>
</g>
<g>
</g>
<g>
</g>
<g>
</g>
<g>
</g>
<g>
</g>
<g>
</g>
<g>
</g>
<g>
</g>
<g>
</g>
<g>
</g>
<g>
</g>
<g>
</g>
<g>
</g>
<g>
</g>
</svg>
