<?xml version="1.0" encoding="iso-8859-1"?>
<!-- Generator: Adobe Illustrator 19.0.0, SVG Export Plug-In . SVG Version: 6.00 Build 0)  -->
<svg version="1.1" id="Layer_1" xmlns="http://www.w3.org/2000/svg" xmlns:xlink="http://www.w3.org/1999/xlink" x="0px" y="0px"
	 viewBox="0 0 512 512" style="enable-background:new 0 0 512 512;" xml:space="preserve">
<path style="fill:#FFAAB9;" d="M309.176,503.983c9.696,0,18.937-4.115,25.424-11.323l57.99-64.433
	c5.652-6.281,8.78-14.431,8.78-22.881V170.489l35.763,14.305c3.998,1.599,8.56-0.024,10.65-3.787l36.252-65.253
	c1.716-3.088,1.355-6.914-0.906-9.628l-71.503-85.803c-6.499-7.798-16.125-12.306-26.277-12.306H126.651
	c-10.151,0-19.778,4.509-26.277,12.307l-71.503,85.803c-2.262,2.714-2.622,6.539-0.905,9.628l36.252,65.253
	c2.091,3.764,6.654,5.386,10.65,3.787l35.762-14.306v234.858c0,8.45,3.128,16.6,8.78,22.881l57.99,64.433
	c6.486,7.208,15.727,11.323,25.424,11.323H309.176z"/>
<g>
	<path style="fill:#FF8B9B;" d="M334.599,492.661l57.99-64.433c5.652-6.281,8.78-14.431,8.78-22.881v-0.614
		c-8.213-2.119-16.778-3.363-25.653-3.363c-56.673,0-102.614,45.941-102.614,102.614h36.074
		C318.872,503.983,328.113,499.868,334.599,492.661z"/>
	<path style="fill:#FF8B9B;" d="M136.284,401.37c-8.875,0-17.44,1.245-25.653,3.363v0.614c0,8.45,3.128,16.6,8.78,22.881
		l57.99,64.433c6.486,7.208,15.727,11.323,25.424,11.323h36.074C238.898,447.311,192.957,401.37,136.284,401.37z"/>
</g>
<g>
	<path style="fill:#FF9BA9;" d="M177.401,492.661c6.486,7.208,15.727,11.323,25.424,11.323h106.352
		c9.696,0,18.937-4.115,25.424-11.323l1.398-1.553c-18.807-23.411-47.63-38.432-79.997-38.432s-61.19,15.02-79.997,38.432
		L177.401,492.661z"/>
	<path style="fill:#FF9BA9;" d="M111.925,11.379c-4.395,2.098-8.357,5.113-11.55,8.946l-71.503,85.802
		c-2.262,2.714-2.622,6.539-0.906,9.626l36.252,65.253c2.091,3.764,6.654,5.386,10.65,3.786l35.763-14.304
		C140.785,98.871,117.797,27.333,111.925,11.379z"/>
	<path style="fill:#FF9BA9;" d="M411.626,20.324c-3.194-3.832-7.155-6.847-11.55-8.946c-5.872,15.955-28.86,87.492,1.294,159.109
		l0.001,0.001l35.762,14.304c3.998,1.599,8.56-0.022,10.65-3.786l36.252-65.253c1.716-3.088,1.355-6.913-0.906-9.626L411.626,20.324
		z"/>
	<path style="fill:#FF9BA9;" d="M153.386,8.017c0,56.672,45.941,102.614,102.614,102.614S358.614,64.688,358.614,8.017H153.386z"/>
</g>
<path style="fill:#FF8B9B;" d="M187.591,8.017c0,37.781,30.628,68.409,68.409,68.409s68.409-30.628,68.409-68.409H187.591z"/>
<g>
	<path style="fill:#FFAAB9;" d="M49.062,81.899l-20.19,24.229c-2.262,2.714-2.622,6.539-0.906,9.626l36.252,65.253
		c2.091,3.764,6.654,5.386,10.65,3.786l25.657-10.262L49.062,81.899z"/>
	<path style="fill:#FFAAB9;" d="M483.128,106.127l-20.19-24.229l-51.463,92.632l25.657,10.262c3.998,1.599,8.56-0.022,10.65-3.786
		l36.252-65.253C485.75,112.667,485.39,108.841,483.128,106.127z"/>
</g>
<path d="M489.287,100.994l-71.504-85.803C409.739,5.537,397.917,0,385.349,0H126.651c-12.568,0-24.39,5.537-32.435,15.191
	l-71.504,85.803c-4.347,5.217-5.054,12.713-1.756,18.653L57.209,184.9c4.041,7.273,12.911,10.426,20.635,7.336l24.769-9.907v223.017
	c0,10.447,3.85,20.479,10.84,28.244l57.99,64.433c7.994,8.882,19.432,13.976,31.382,13.976h106.351
	c11.95,0,23.388-5.094,31.383-13.976l57.989-64.433c6.99-7.766,10.84-17.797,10.84-28.244V182.33l24.768,9.907
	c7.725,3.094,16.596-0.063,20.637-7.335l36.252-65.255C494.341,113.708,493.634,106.212,489.287,100.994z M453.261,82.809
	l-45.364,81.656l-0.476-0.19c-24.881-59.164-8.04-118.579-1.217-137.934L453.261,82.809z M256,84.443
	c39.434,0,71.983-30.022,76.003-68.409h18.25c-4.083,48.423-44.793,86.58-94.254,86.58s-90.171-38.157-94.254-86.58h18.25
	C184.018,54.421,216.566,84.443,256,84.443z M196.156,16.033h119.688C311.908,45.555,286.581,68.409,256,68.409
	S200.092,45.555,196.156,16.033z M145.662,16.033C149.784,73.307,197.694,118.647,256,118.647s106.217-45.34,110.338-102.614h19.01
	c2.458,0,4.87,0.343,7.178,0.998c-2.755,7.117-8.576,23.93-11.914,46.462c-7.183,48.488,2.778,85.617,12.741,108.666v222.597
	c-5.813-0.931-11.713-1.403-17.638-1.403c-38.893,0-75.198,20.699-95.094,54.095c-8.01-1.831-16.263-2.788-24.621-2.788
	c-8.351,0-16.604,0.958-24.618,2.792c-19.897-33.4-56.201-54.099-95.098-54.099c-5.925,0-11.825,0.472-17.637,1.403V172.138
	c17.721-40.972,16.744-81.615,12.74-108.643c-3.338-22.531-9.159-39.345-11.914-46.462c2.308-0.655,4.719-0.998,7.178-0.998h19.011
	V16.033z M105.796,26.341c6.823,19.357,23.663,78.77-1.217,137.934l-0.475,0.19L58.74,82.809L105.796,26.341z M71.89,177.351
	c-0.251,0.097-0.534-0.003-0.664-0.237l-36.252-65.251c-0.109-0.197-0.087-0.432,0.057-0.603l12.704-15.243l41.362,74.452
	L71.89,177.351z M125.369,422.864c-3.07-3.41-5.139-7.531-6.099-11.943c5.589-1.013,11.285-1.535,17.014-1.535
	c31.958,0,61.869,16.343,79.26,42.96c-14.866,5.846-28.44,14.889-39.652,26.653L125.369,422.864z M202.825,495.967
	c-5.762,0-11.327-1.917-15.851-5.355c17.856-19.04,42.884-29.918,69.026-29.918c26.175,0,51.165,10.872,69.026,29.918
	c-4.524,3.439-10.088,5.355-15.851,5.355H202.825z M336.107,479.002c-11.217-11.772-24.78-20.821-39.644-26.666
	c17.391-26.61,47.297-42.95,79.252-42.95c5.728,0,11.425,0.522,17.015,1.535c-0.96,4.412-3.029,8.533-6.099,11.943L336.107,479.002z
	 M477.027,111.861l-36.252,65.253c-0.131,0.234-0.419,0.335-0.666,0.236l-17.205-6.882l41.362-74.452l12.704,15.243
	C477.112,111.431,477.135,111.667,477.027,111.861z"/>
<g>
</g>
<g>
</g>
<g>
</g>
<g>
</g>
<g>
</g>
<g>
</g>
<g>
</g>
<g>
</g>
<g>
</g>
<g>
</g>
<g>
</g>
<g>
</g>
<g>
</g>
<g>
</g>
<g>
</g>
</svg>
