<?xml version="1.0" encoding="iso-8859-1"?>
<!-- Generator: Adobe Illustrator 19.0.0, SVG Export Plug-In . SVG Version: 6.00 Build 0)  -->
<svg version="1.1" id="Layer_1" xmlns="http://www.w3.org/2000/svg" xmlns:xlink="http://www.w3.org/1999/xlink" x="0px" y="0px"
	 viewBox="0 0 511.999 511.999" style="enable-background:new 0 0 511.999 511.999;" xml:space="preserve">
<path style="fill:#F09846;" d="M502.873,362.033l-28.351-171.475c-2.73-16.514-17.01-28.627-33.748-28.627H71.225
	c-16.739,0-31.018,12.112-33.748,28.627L9.126,362.033c-8.435,52.012,31.721,99.205,84.414,99.205h324.92
	C471.152,461.238,511.308,414.045,502.873,362.033z"/>
<path style="fill:#DC8C46;" d="M502.873,362.033l-28.35-171.475c-2.731-16.514-17.01-28.627-33.748-28.627H71.224
	c-16.738,0-31.018,12.112-33.748,28.627L9.126,362.033c-8.435,52.012,31.721,99.205,84.414,99.205h324.92
	C471.152,461.238,511.308,414.045,502.873,362.033z M464.051,414.515c-11.393,13.39-28.011,21.069-45.591,21.069H93.539
	c-17.58,0-34.198-7.679-45.591-21.069c-11.393-13.389-16.313-31.021-13.512-48.296l26.858-162.45
	c8.055-1.432,15.773-5.126,22.06-11.281c3.274-3.207,7.399-4.902,11.934-4.902h321.428c4.526,0,8.661,1.695,11.925,4.894
	c6.138,6.017,13.798,9.925,22.087,11.454l26.819,162.206C480.363,383.493,475.444,401.125,464.051,414.515z"/>
<g>
	<path style="fill:#FAEBC8;" d="M458.557,179.035c-4.318,0-8.635-1.621-11.963-4.878c-8.055-7.884-18.669-12.227-29.88-12.227
		H95.285c-11.211,0-21.826,4.343-29.88,12.227c-6.748,6.615-17.571,6.489-24.189-0.267c-6.606-6.748-6.489-17.579,0.263-24.185
		c14.49-14.172,33.597-21.981,53.807-21.981h321.428c20.21,0,39.317,7.809,53.807,21.981c6.751,6.606,6.869,17.438,0.263,24.185
		C467.431,177.314,462.996,179.035,458.557,179.035z"/>
	<circle style="fill:#FAEBC8;" cx="234.624" cy="72.143" r="21.379"/>
	<circle style="fill:#FAEBC8;" cx="277.382" cy="72.143" r="21.379"/>
</g>
<path d="M510.787,360.75l-27.069-166.925c-0.947-5.843-2.649-11.49-5.045-16.85c3.303-4.397,5.067-9.725,5.006-15.317
	c-0.073-6.711-2.755-12.99-7.551-17.684c-15.998-15.649-37.098-24.266-59.412-24.266H293.527l-18.256-18.256
	c0.697,0.049,1.398,0.083,2.107,0.083c16.21,0,29.396-13.188,29.396-29.396s-13.187-29.396-29.396-29.396
	c-8.418,0-16.015,3.563-21.379,9.252c-5.364-5.69-12.961-9.252-21.379-9.252c-16.21,0-29.396,13.188-29.396,29.396
	s13.187,29.396,29.396,29.396c0.71,0,1.411-0.034,2.107-0.083l-18.256,18.256H95.285c-22.314,0-43.414,8.618-59.413,24.266
	c-4.796,4.694-7.478,10.973-7.55,17.684c-0.061,5.592,1.702,10.919,5.006,15.317c-2.397,5.361-4.098,11.007-5.047,16.85
	L1.212,360.75c-4.397,27.115,3.291,54.665,21.093,75.586s43.766,32.919,71.235,32.919H418.46c27.469,0,53.434-11.999,71.235-32.919
	S515.184,387.866,510.787,360.75z M277.379,58.778c7.368,0,13.362,5.994,13.362,13.362s-5.994,13.362-13.362,13.362
	s-13.362-5.994-13.362-13.362S270.01,58.778,277.379,58.778z M221.259,72.14c0-7.368,5.994-13.362,13.362-13.362
	s13.362,5.994,13.362,13.362s-5.994,13.362-13.362,13.362S221.259,79.507,221.259,72.14z M256,104.856l14.851,14.852h-29.703
	L256,104.856z M47.084,155.437c12.985-12.7,30.103-19.694,48.201-19.694h321.428c18.098,0,35.217,6.994,48.2,19.694
	c1.735,1.696,2.704,3.968,2.731,6.394c0.026,2.428-0.894,4.717-2.589,6.45c-1.729,1.764-4.036,2.737-6.498,2.737
	c-2.392,0-4.649-0.919-6.355-2.59c-9.563-9.359-22.166-14.513-35.488-14.513H95.285c-13.322,0-25.925,5.154-35.492,14.517
	c-1.732,1.697-4.043,2.603-6.442,2.59c-2.428-0.028-4.703-1.002-6.407-2.74c-1.696-1.733-2.616-4.024-2.59-6.45
	C44.381,159.405,45.35,157.133,47.084,155.437z M477.483,425.945c-14.749,17.334-36.263,27.276-59.023,27.276H93.539
	c-22.76,0-44.273-9.942-59.023-27.276c-14.75-17.334-21.12-40.162-17.477-62.629l27.069-166.925
	c0.569-3.507,1.49-6.924,2.744-10.211c2.036,0.551,4.155,0.85,6.319,0.874c0.096,0.002,0.192,0.002,0.29,0.002
	c6.605,0,12.83-2.541,17.551-7.168c6.547-6.409,15.168-9.939,24.273-9.939h321.428c9.104,0,17.725,3.53,24.273,9.939
	c4.722,4.62,10.961,7.164,17.571,7.164c2.259,0,4.467-0.301,6.587-0.873c1.255,3.288,2.176,6.703,2.746,10.212l27.069,166.925
	C498.603,385.783,492.233,408.611,477.483,425.945z"/>
<g>
</g>
<g>
</g>
<g>
</g>
<g>
</g>
<g>
</g>
<g>
</g>
<g>
</g>
<g>
</g>
<g>
</g>
<g>
</g>
<g>
</g>
<g>
</g>
<g>
</g>
<g>
</g>
<g>
</g>
</svg>
