<?xml version="1.0" encoding="iso-8859-1"?>
<!-- Generator: Adobe Illustrator 19.0.0, SVG Export Plug-In . SVG Version: 6.00 Build 0)  -->
<svg version="1.1" id="Layer_1" xmlns="http://www.w3.org/2000/svg" xmlns:xlink="http://www.w3.org/1999/xlink" x="0px" y="0px"
	 viewBox="0 0 512 512" style="enable-background:new 0 0 512 512;" xml:space="preserve">
<path style="fill:#EBC9A0;" d="M198.474,136.284h-46.642c-8.586,0-15.547,7.656-15.547,17.102v299.29h171.023V136.284H198.474z"/>
<path style="fill:#F5DCB4;" d="M153.386,136.284c-9.446,0-17.102,7.656-17.102,17.102v299.29h34.205v-299.29
	C170.489,143.94,162.832,136.284,153.386,136.284L153.386,136.284z"/>
<rect x="170.489" y="136.284" style="fill:#DCB991;" width="136.818" height="265.086"/>
<path style="fill:#C8A582;" d="M187.591,375.716c-9.446,0-17.102-7.656-17.102-17.102V153.386c0-9.445-7.658-17.102-17.102-17.102
	h51.307v222.33C204.693,368.06,197.037,375.716,187.591,375.716L187.591,375.716z"/>
<rect x="273.102" y="136.284" style="fill:#F5DCB4;" width="34.205" height="316.392"/>
<g>
	<rect x="273.102" y="136.284" style="fill:#EBC9A0;" width="34.205" height="265.086"/>
	<path style="fill:#EBC9A0;" d="M358.614,375.716c9.446,0,17.102-7.656,17.102-17.102V59.324H204.693v299.29
		c0,9.445-7.658,17.102-17.102,17.102H358.614z"/>
</g>
<g>
	<path style="fill:#F5DCB4;" d="M341.511,59.324v299.29c0,9.445-7.658,17.102-17.102,17.102h34.205
		c9.446,0,17.102-7.656,17.102-17.102V59.324H341.511z"/>
	<path style="fill:#F5DCB4;" d="M204.693,59.324v299.29c0,9.445-7.658,17.102-17.102,17.102h34.205
		c9.446,0,17.102-7.656,17.102-17.102V59.324H204.693z"/>
</g>
<path d="M375.716,0c-4.428,0-8.017,3.588-8.017,8.017v43.29h-18.171V8.017c0-4.428-3.588-8.017-8.017-8.017
	c-4.428,0-8.017,3.588-8.017,8.017v43.29h-18.171V8.017c0-4.428-3.588-8.017-8.017-8.017c-4.428,0-8.017,3.588-8.017,8.017v43.29
	h-18.171V8.017c0-4.428-3.588-8.017-8.017-8.017s-8.017,3.588-8.017,8.017v43.29h-18.171V8.017c0-4.428-3.588-8.017-8.017-8.017
	c-4.428,0-8.017,3.588-8.017,8.017v43.29H212.71V8.017c0-4.428-3.588-8.017-8.017-8.017s-8.017,3.588-8.017,8.017v120.251h-43.29
	c-13.851,0-25.119,11.268-25.119,25.119v350.597c0,4.428,3.588,8.017,8.017,8.017c4.428,0,8.017-3.588,8.017-8.017v-43.29h18.171
	v43.29c0,4.428,3.588,8.017,8.017,8.017c4.428,0,8.017-3.588,8.017-8.017v-43.29h18.171v43.29c0,4.428,3.588,8.017,8.017,8.017
	s8.017-3.588,8.017-8.017v-43.29h18.171v43.29c0,4.428,3.588,8.017,8.017,8.017c4.428,0,8.017-3.588,8.017-8.017v-43.29h18.171
	v43.29c0,4.428,3.588,8.017,8.017,8.017s8.017-3.588,8.017-8.017v-43.29h18.171v43.29c0,4.428,3.588,8.017,8.017,8.017
	c4.428,0,8.017-3.588,8.017-8.017V383.733h43.29c13.851,0,25.119-11.268,25.119-25.119V8.017C383.733,3.588,380.145,0,375.716,0z
	 M211.01,367.699c1.097-2.819,1.7-5.883,1.7-9.086V67.34h18.171v291.273c0,5.01-4.076,9.086-9.086,9.086H211.01z M176.798,144.301
	h19.878v214.313c0,5.01-4.076,9.086-9.086,9.086s-9.086-4.076-9.086-9.086V153.386C178.505,150.183,177.896,147.12,176.798,144.301z
	 M144.301,444.66V153.386c0-5.01,4.076-9.086,9.086-9.086c5.01,0,9.086,4.076,9.086,9.086v205.228v86.046H144.301z M178.505,444.66
	v-62.634c2.82,1.098,5.882,1.707,9.086,1.707h77.495v60.927H178.505z M281.119,383.733h18.171v60.927h-18.171V383.733z
	 M245.207,367.699c1.098-2.82,1.707-5.882,1.707-9.086V67.34h86.58v291.273c0,5.01-4.076,9.086-9.086,9.086H245.207z
	 M367.699,358.614c0,5.01-4.076,9.086-9.086,9.086h-10.793c1.098-2.82,1.707-5.882,1.707-9.086V67.34h18.171V358.614z"/>
<g>
</g>
<g>
</g>
<g>
</g>
<g>
</g>
<g>
</g>
<g>
</g>
<g>
</g>
<g>
</g>
<g>
</g>
<g>
</g>
<g>
</g>
<g>
</g>
<g>
</g>
<g>
</g>
<g>
</g>
</svg>
