<?xml version="1.0" encoding="iso-8859-1"?>
<!-- Generator: Adobe Illustrator 19.0.0, SVG Export Plug-In . SVG Version: 6.00 Build 0)  -->
<svg version="1.1" id="Layer_1" xmlns="http://www.w3.org/2000/svg" xmlns:xlink="http://www.w3.org/1999/xlink" x="0px" y="0px"
	 viewBox="0 0 512.001 512.001" style="enable-background:new 0 0 512.001 512.001;" xml:space="preserve">
<path style="fill:#B4E1FA;" d="M462.174,111.541c-0.572-21.167-14.09-39.809-34.031-46.931l-86.631-30.94H170.486L83.855,64.61
	c-19.941,7.122-33.46,25.764-34.031,46.931l-7.437,275.181c-0.098,3.647,2.128,6.955,5.544,8.237l62.679,23.512l0.021-0.134v44.871
	c0,3.875,2.605,7.264,6.348,8.263l121.919,32.511l17.103-128.267l17.101,128.267l121.925-32.514c3.74-0.997,6.344-4.384,6.348-8.254
	l0.044-44.756l62.647-23.501c3.416-1.282,5.643-4.59,5.544-8.237L462.174,111.541z"/>
<polygon style="fill:#91C5E6;" points="324.41,8.017 187.591,8.017 256,67.875 "/>
<path style="fill:#B4E1FA;" d="M53.632,384.267l-2.499,45.057c-0.213,3.721,2.01,7.151,5.492,8.478l54.006,20.582v-74.117H53.632z"
	/>
<g>
	<polygon style="fill:#A0D2F0;" points="84.978,448.608 110.631,458.384 110.631,384.267 84.978,384.267 	"/>
	<path style="fill:#A0D2F0;" d="M196.142,230.347h-34.205c-9.446,0-17.102-7.656-17.102-17.102v-59.858h68.409v59.858
		C213.245,222.69,205.588,230.347,196.142,230.347z"/>
</g>
<path style="fill:#91C5E6;" d="M213.245,170.489c0,9.446-7.656,17.102-17.102,17.102h-34.205c-9.446,0-17.102-7.656-17.102-17.102
	v42.756c0,9.446,7.656,17.102,17.102,17.102h34.205c9.446,0,17.102-7.656,17.102-17.102V170.489z"/>
<path style="fill:#A0D2F0;" d="M49.825,111.542l-7.437,275.18c-0.098,3.648,2.128,6.956,5.544,8.238l62.679,23.512l0.021-0.134
	V153.994c0-11.34-4.504-22.215-12.523-30.233L58.652,84.305C53.319,92.215,50.094,101.571,49.825,111.542z"/>
<path style="fill:#B4E1FA;" d="M458.37,384.267l2.499,45.057c0.213,3.721-2.01,7.151-5.492,8.478l-54.007,20.582v-74.117H458.37z"/>
<g>
	<path style="fill:#A0D2F0;" d="M462.177,111.542l7.437,275.18c0.098,3.648-2.128,6.956-5.544,8.238l-62.679,23.511l-0.021-0.134
		V153.994c0-11.34,4.504-22.215,12.523-30.233l39.456-39.456C458.682,92.215,461.908,101.571,462.177,111.542z"/>
	<path style="fill:#A0D2F0;" d="M187.591,8.017L256,67.875l-35.254,28.203c-3.994,3.196-9.882,2.192-12.594-2.145L170.489,33.67
		L187.591,8.017z"/>
	<path style="fill:#A0D2F0;" d="M324.41,8.017L256,67.875l35.254,28.203c3.994,3.196,9.882,2.192,12.594-2.145l37.664-60.262
		L324.41,8.017z"/>
</g>
<path style="fill:#91C5E6;" d="M84.978,161.937v246.919l25.632,9.616l0.021-0.134V153.993c0-1.844-0.143-3.668-0.397-5.472
	c-0.297-2.113-2.107-3.688-4.241-3.688h-3.913C92.635,144.835,84.978,152.492,84.978,161.937z"/>
<polygon style="fill:#A0D2F0;" points="427.023,448.608 401.37,458.384 401.37,384.267 427.023,384.267 "/>
<path style="fill:#91C5E6;" d="M427.023,161.937v246.919l-25.632,9.616l-0.021-0.134V153.993c0-1.844,0.143-3.668,0.397-5.472
	c0.297-2.113,2.107-3.688,4.241-3.688h3.912C419.367,144.835,427.023,152.492,427.023,161.937z"/>
<path d="M290.293,256.534h-0.086c-4.427,0-7.974,3.589-7.974,8.017c0,4.427,3.632,8.017,8.059,8.017
	c4.427,0,8.017-3.589,8.017-8.017C298.309,260.124,294.72,256.534,290.293,256.534z"/>
<path d="M290.378,376.251h-0.085c-4.427,0-7.974,3.589-7.974,8.017c0,4.427,3.632,8.017,8.059,8.017
	c4.427,0,8.017-3.589,8.017-8.017C298.395,379.84,294.806,376.251,290.378,376.251z"/>
<path d="M290.293,196.676h-0.086c-4.427,0-7.974,3.589-7.974,8.017s3.632,8.017,8.059,8.017c4.427,0,8.017-3.589,8.017-8.017
	S294.72,196.676,290.293,196.676z"/>
<path d="M290.293,332.426c4.427,0,8.017-3.589,8.017-8.017c0-4.427-3.589-8.017-8.017-8.017h-0.086
	c-4.427,0-7.974,3.589-7.974,8.017C282.233,328.837,285.865,332.426,290.293,332.426z"/>
<path d="M477.626,386.505l-7.437-275.179c-0.656-24.286-16.47-46.094-39.349-54.266L346.71,27.014L331.082,3.57
	c-1.281-1.921-3.326-3.196-5.615-3.5c-0.352-0.047-0.703-0.062-1.055-0.062V0H187.593v0.007c-0.351,0-0.702,0.015-1.055,0.062
	c-2.288,0.304-4.335,1.58-5.615,3.5l-15.628,23.443L81.16,57.061c-22.879,8.172-38.692,29.979-39.348,54.265l-7.437,275.179
	c-0.186,6.894,3.927,13.158,10.275,15.764l-1.52,26.598c-0.415,7.243,3.862,13.844,10.641,16.428l48.875,18.625
	c0.309,7.195,5.258,13.428,12.269,15.298l121.92,32.513c0.681,0.181,1.375,0.27,2.065,0.27c1.57,0,3.122-0.462,4.453-1.35
	c1.917-1.281,3.19-3.323,3.494-5.607l9.156-68.669l9.155,68.669c0.305,2.284,1.578,4.327,3.494,5.607
	c1.917,1.279,4.291,1.673,6.518,1.08l121.926-32.514c7.01-1.87,11.96-8.104,12.269-15.3l48.866-18.621
	c6.779-2.584,11.056-9.185,10.641-16.427l-1.52-26.598C473.699,399.664,477.813,393.4,477.626,386.505z M331.972,33.81
	L297.05,89.683c-0.034,0.056-0.127,0.203-0.362,0.244c-0.237,0.042-0.372-0.068-0.423-0.109l-27.773-22.219l54.32-47.53
	L331.972,33.81z M189.194,20.068l54.32,47.53l-27.773,22.219c-0.051,0.041-0.186,0.151-0.423,0.109
	c-0.236-0.041-0.328-0.187-0.363-0.244L180.033,33.81L189.194,20.068z M102.616,446.75l-43.135-16.437
	c-0.219-0.083-0.357-0.296-0.343-0.53l1.234-21.594l42.245,15.846V446.75z M247.986,375.192l-15.827,118.696l-113.111-30.163
	c-0.234-0.062-0.398-0.275-0.398-0.516V153.386c0-4.427-3.589-8.017-8.017-8.017c-4.427,0-8.017,3.589-8.017,8.017v253.524
	l-51.867-19.457c-0.214-0.08-0.353-0.286-0.346-0.515l7.437-275.179c0.479-17.722,12.019-33.636,28.714-39.599l80.558-28.771
	l34.245,54.793c2.503,4.006,6.61,6.759,11.267,7.552c0.924,0.157,1.852,0.235,2.778,0.235c3.736,0,7.398-1.264,10.354-3.63
	l22.23-17.784v290.639H247.986z M256.003,57.222L208.93,16.033h94.146L256.003,57.222z M452.521,430.312l-43.11,16.428l0.022-22.724
	l42.197-15.829l1.233,21.595C452.878,430.016,452.739,430.229,452.521,430.312z M461.253,387.454l-51.803,19.432l0.248-253.492
	c0.004-4.427-3.582-8.02-8.009-8.024c-0.002,0-0.005,0-0.007,0c-4.424,0-8.012,3.584-8.017,8.009l-0.302,309.829
	c0,0.242-0.164,0.454-0.397,0.515l-113.119,30.165l-15.827-118.711V84.554l22.23,17.784c2.957,2.365,6.619,3.63,10.354,3.63
	c0.925,0,1.853-0.078,2.778-0.235c4.657-0.793,8.764-3.546,11.267-7.551l34.245-54.793l80.555,28.77
	c16.696,5.963,28.235,21.877,28.714,39.599l7.437,275.179C461.605,387.167,461.466,387.373,461.253,387.454z"/>
<path d="M213.247,145.37h-68.409c-4.427,0-8.017,3.589-8.017,8.017v59.858c0,13.851,11.268,25.119,25.119,25.119h34.205
	c13.851,0,25.119-11.268,25.119-25.119v-59.858C221.264,148.959,217.674,145.37,213.247,145.37z M205.23,213.244
	c0,5.01-4.076,9.086-9.086,9.086H161.94c-5.01,0-9.086-4.076-9.086-9.086v-19.345c2.82,1.099,5.882,1.708,9.086,1.708h34.205
	c3.203,0,6.266-0.609,9.086-1.708V213.244z M205.23,170.489c0,5.01-4.076,9.086-9.086,9.086H161.94c-5.01,0-9.086-4.076-9.086-9.086
	v-9.086h52.376V170.489z"/>
<circle cx="290.205" cy="144.835" r="8.017"/>
<g>
</g>
<g>
</g>
<g>
</g>
<g>
</g>
<g>
</g>
<g>
</g>
<g>
</g>
<g>
</g>
<g>
</g>
<g>
</g>
<g>
</g>
<g>
</g>
<g>
</g>
<g>
</g>
<g>
</g>
</svg>
