<?xml version="1.0" encoding="iso-8859-1"?>
<!-- Generator: Adobe Illustrator 19.0.0, SVG Export Plug-In . SVG Version: 6.00 Build 0)  -->
<svg version="1.1" id="Layer_1" xmlns="http://www.w3.org/2000/svg" xmlns:xlink="http://www.w3.org/1999/xlink" x="0px" y="0px"
	 viewBox="0 0 512 512" style="enable-background:new 0 0 512 512;" xml:space="preserve">
<path style="fill:#E4EAF8;" d="M436.679,96.592c-0.668-17.366-11.78-32.6-28.113-38.539L341.512,33.67H170.489l-67.054,24.383
	C87.103,63.991,75.99,79.225,75.322,96.592l-6.899,179.355c-0.317,8.257,5.313,15.56,13.379,17.352l59.247,13.166l1.877,13.138
	c1.268,8.872,1.457,17.864,0.565,26.782l-14.82,148.195c-0.503,5.034,3.449,9.402,8.508,9.402h237.636
	c5.059,0,9.012-4.369,8.508-9.402l-14.817-148.194c-0.891-8.918-0.702-17.91,0.565-26.782l1.877-13.138l59.248-13.166
	c8.066-1.793,13.697-9.095,13.379-17.352L436.679,96.592z"/>
<polygon style="fill:#C7CFE2;" points="256.001,67.875 256.001,67.875 187.591,8.017 324.41,8.017 "/>
<path style="fill:#D5DCED;" d="M430.341,75.996c-27.508,32.632-37.522,77.39-37.522,77.39l-21.868,153.079l59.248-13.166
	c8.066-1.793,13.697-9.095,13.379-17.352l-6.899-179.355C436.392,89.122,434.077,82.107,430.341,75.996z"/>
<path style="fill:#E4EAF8;" d="M443.578,275.948l-1.08-28.057L377.1,263.421l-6.149,43.044l59.248-13.166
	C438.264,291.508,443.895,284.204,443.578,275.948z"/>
<path style="fill:#D5DCED;" d="M81.66,75.996c27.508,32.632,37.522,77.39,37.522,77.39l21.868,153.079L81.803,293.3
	c-8.066-1.793-13.697-9.095-13.379-17.352l6.899-179.355C75.609,89.122,77.924,82.107,81.66,75.996z"/>
<path style="fill:#E4EAF8;" d="M68.424,275.948l1.08-28.057l65.398,15.531l6.149,43.044L81.803,293.3
	C73.737,291.508,68.106,284.204,68.424,275.948z"/>
<g>
	<path style="fill:#D5DCED;" d="M187.591,8.017l68.409,59.858l-35.254,28.203c-3.994,3.196-9.882,2.192-12.594-2.145L170.489,33.67
		L187.591,8.017z"/>
	<path style="fill:#D5DCED;" d="M324.41,8.017l-68.409,59.858l35.254,28.203c3.994,3.196,9.882,2.192,12.594-2.145l37.664-60.262
		L324.41,8.017z"/>
</g>
<path style="fill:#C7CFE2;" d="M119.182,153.386c0,0-0.409-1.797-1.262-4.891c-0.595-2.158-2.562-3.66-4.8-3.66l0,0
	c-10.363,0-18.345,9.142-16.946,19.411l18.578,136.375l26.299,5.845L119.182,153.386z"/>
<polygon style="fill:#D5DCED;" points="108.84,257.232 114.751,300.621 141.051,306.466 134.901,263.421 "/>
<path style="fill:#C7CFE2;" d="M392.819,153.386c0,0,0.409-1.797,1.262-4.891c0.595-2.158,2.562-3.66,4.8-3.66l0,0
	c10.363,0,18.345,9.142,16.946,19.411L397.25,300.621l-26.299,5.845L392.819,153.386z"/>
<polygon style="fill:#D5DCED;" points="403.162,257.232 397.251,300.621 370.95,306.466 377.1,263.421 "/>
<path d="M444.69,96.284c-0.796-20.716-13.9-38.68-33.384-45.765l-64.583-23.485L331.08,3.57c-1.281-1.921-3.326-3.196-5.615-3.5
	c-0.352-0.047-0.703-0.062-1.055-0.062V0H187.591v0.007c-0.351,0-0.703,0.016-1.055,0.063c-2.289,0.304-4.335,1.58-5.615,3.5
	l-15.643,23.464l-64.584,23.485c-19.484,7.086-32.587,25.05-33.384,45.765l-6.913,179.732c-0.454,11.813,7.54,22.468,19.008,25.334
	l54.771,13.694l2.584,18.087l-16.065,160.654c-0.465,4.649,1.067,9.302,4.202,12.765c3.135,3.464,7.613,5.451,12.284,5.451h237.636
	c4.672,0,9.15-1.986,12.284-5.451c3.135-3.463,4.667-8.117,4.202-12.765L375.238,333.13l2.584-18.087l54.771-13.694
	c11.468-2.867,19.462-13.52,19.009-25.334L444.69,96.284z M331.971,33.81L297.05,89.683c-0.035,0.057-0.127,0.203-0.363,0.245
	c-0.236,0.034-0.372-0.068-0.423-0.11l-27.773-22.219l54.32-47.53L331.971,33.81z M189.192,20.068l54.32,47.53l-27.773,22.219
	c-0.051,0.041-0.186,0.143-0.423,0.11c-0.236-0.041-0.328-0.188-0.363-0.244L180.031,33.81L189.192,20.068z M83.294,285.795
	c-4.147-1.037-7.039-4.89-6.874-9.163l0.715-18.605l50.708,12.678l3.885,27.199L83.294,285.795z M247.984,495.967H137.182
	c-0.065,0-0.237,0-0.397-0.176c-0.159-0.175-0.142-0.346-0.136-0.412l16.163-161.621c0.064-0.643,0.05-1.291-0.041-1.932
	l-25.653-179.574c-0.626-4.384-4.692-7.422-9.07-6.802c-4.384,0.626-7.429,4.687-6.802,9.07l14.15,99.046l-47.63-11.909
	l5.568-144.757c0.545-14.174,9.51-26.465,22.841-31.312l60.956-22.166l34.225,54.76c2.503,4.005,6.61,6.756,11.267,7.55
	c0.925,0.157,1.852,0.235,2.778,0.235c3.736,0,7.398-1.264,10.354-3.63l22.228-17.782V495.967z M208.928,16.033h94.145
	l-47.072,41.189L208.928,16.033z M359.229,331.826c-0.091,0.64-0.105,1.288-0.041,1.932l16.163,161.621
	c0.006,0.065,0.023,0.236-0.136,0.412c-0.159,0.176-0.331,0.176-0.397,0.176H264.017V84.555l22.23,17.784
	c2.958,2.365,6.619,3.63,10.354,3.63c0.925,0,1.853-0.077,2.778-0.235c4.656-0.793,8.763-3.544,11.267-7.551l34.225-54.759
	l60.957,22.166c13.331,4.847,22.296,17.139,22.841,31.312l5.568,144.757l-47.63,11.909l14.15-99.046
	c0.625-4.384-2.42-8.443-6.802-9.07c-4.384-0.616-8.443,2.42-9.07,6.802L359.229,331.826z M428.706,285.795l-48.435,12.109
	l3.885-27.199l50.708-12.678l0.715,18.605C435.746,280.905,432.854,284.759,428.706,285.795z"/>
<path d="M290.205,272.568c4.427,0,8.017-3.588,8.017-8.017s-3.589-8.017-8.017-8.017h-0.085c-4.427,0-7.974,3.588-7.974,8.017
	S285.778,272.568,290.205,272.568z"/>
<path d="M290.291,376.251h-0.086c-4.427,0-7.974,3.588-7.974,8.017s3.632,8.017,8.059,8.017s8.017-3.588,8.017-8.017
	S294.718,376.251,290.291,376.251z"/>
<path d="M290.291,436.109h-0.086c-4.427,0-7.974,3.588-7.974,8.017s3.632,8.017,8.059,8.017s8.017-3.588,8.017-8.017
	S294.718,436.109,290.291,436.109z"/>
<path d="M290.205,212.71c4.427,0,8.017-3.588,8.017-8.017s-3.589-8.017-8.017-8.017h-0.085c-4.427,0-7.974,3.588-7.974,8.017
	S285.778,212.71,290.205,212.71z"/>
<path d="M290.205,332.426c4.427,0,8.017-3.588,8.017-8.017c0-4.428-3.589-8.017-8.017-8.017h-0.085
	c-4.427,0-7.974,3.588-7.974,8.017C282.146,328.838,285.778,332.426,290.205,332.426z"/>
<circle cx="290.205" cy="144.835" r="8.017"/>
<g>
</g>
<g>
</g>
<g>
</g>
<g>
</g>
<g>
</g>
<g>
</g>
<g>
</g>
<g>
</g>
<g>
</g>
<g>
</g>
<g>
</g>
<g>
</g>
<g>
</g>
<g>
</g>
<g>
</g>
</svg>
