<?xml version="1.0" encoding="iso-8859-1"?>
<!-- Generator: Adobe Illustrator 19.0.0, SVG Export Plug-In . SVG Version: 6.00 Build 0)  -->
<svg version="1.1" id="Layer_1" xmlns="http://www.w3.org/2000/svg" xmlns:xlink="http://www.w3.org/1999/xlink" x="0px" y="0px"
	 viewBox="0 0 512 512" style="enable-background:new 0 0 512 512;" xml:space="preserve">
<path style="fill:#EBC9A0;" d="M230.348,303.031c-237.825,0-104.098,0-196.66,0c-14.168,0-25.669-11.499-25.669-25.667v25.667
	c0,18.891,15.314,34.205,34.205,34.205H324.41c110.419,0,153.661-23.688,170.057-38.872
	C379.738,343.497,332.961,303.031,230.348,303.031z"/>
<path style="fill:#7DF5A5;" d="M485.885,260.036c-12.013-2.892-141.032-34.633-215.561-81.535c-3.462-2.178-7.91-1.71-10.72,1.263
	c-7.94,8.406-23.815,26.923-35.906,51.106C315.63,246.433,413.227,258.267,485.885,260.036z"/>
<path style="fill:#64DCA0;" d="M503.984,260.275c-128.565,0-355.286-37.753-474.409-70.688c-10.869-3.005-21.561,5.227-21.56,16.504
	l0.002,71.272c0,14.177,11.494,25.669,25.671,25.669h196.659c101.587,0,148.491,39.608,260.737-3.392l12.899-5.16V260.275z"/>
<path d="M512,294.421c0-0.011,0-0.021,0-0.032v-34.114c0-3.791-2.655-7.063-6.365-7.845c-1.61-0.339-161.826-34.463-236.637-84.337
	c-2.788-1.858-6.438-1.786-9.152,0.18c-0.945,0.685-23.206,17.109-40.612,53.702c-70.911-12.171-138.723-26.623-187.522-40.116
	c-7.586-2.099-15.529-0.564-21.795,4.205C3.615,190.861,0,198.159,0,206.09v96.941c0,23.28,18.941,42.221,42.221,42.221h273.637
	c120.629,0,189.501-42.179,192.374-43.974c2.419-1.511,3.764-4.117,3.766-6.798H512V294.421z M265.187,184.724
	c43.473,27.36,108.943,49.446,160.121,64.006c-47.23-3.71-102.052-10.28-160.844-19.373c-9.586-1.483-19.174-3.022-28.731-4.603
	C246.571,203.484,258.939,190.468,265.187,184.724z M315.858,329.219H42.221c-13.383,0-24.452-10.09-26.003-23.062
	c5.096,3.103,11.077,4.891,17.468,4.891H256c10.002,0,23.381,2.698,38.872,5.822c18.766,3.785,41.279,8.327,67.23,10.102
	C347.689,328.392,332.261,329.219,315.858,329.219z M298.043,301.154c-16.334-3.294-30.44-6.14-42.043-6.14H33.686
	c-9.733,0-17.653-7.918-17.653-17.651V206.09c0-2.88,1.31-5.528,3.594-7.266c2.248-1.711,5.094-2.263,7.813-1.51
	c118.961,32.891,337.873,69.456,468.527,70.925v20.904C411.067,323.944,343.221,310.266,298.043,301.154z"/>
<g>
</g>
<g>
</g>
<g>
</g>
<g>
</g>
<g>
</g>
<g>
</g>
<g>
</g>
<g>
</g>
<g>
</g>
<g>
</g>
<g>
</g>
<g>
</g>
<g>
</g>
<g>
</g>
<g>
</g>
</svg>
