<?xml version="1.0" encoding="iso-8859-1"?>
<!-- Generator: Adobe Illustrator 19.0.0, SVG Export Plug-In . SVG Version: 6.00 Build 0)  -->
<svg version="1.1" id="Layer_1" xmlns="http://www.w3.org/2000/svg" xmlns:xlink="http://www.w3.org/1999/xlink" x="0px" y="0px"
	 viewBox="0 0 512 512" style="enable-background:new 0 0 512 512;" xml:space="preserve">
<g>
	<rect x="187.591" y="42.221" style="fill:#F5DCB4;" width="34.205" height="68.409"/>
	<rect x="290.205" y="42.221" style="fill:#F5DCB4;" width="34.205" height="68.409"/>
</g>
<g>
	<polygon style="fill:#FAEBC8;" points="290.205,8.017 221.796,8.017 187.591,42.221 324.41,42.221 	"/>
	<path style="fill:#FAEBC8;" d="M368.633,503.983H143.368c-4.535,0-8.886-1.802-12.093-5.009l-32.737-32.737
		c-3.208-3.208-5.009-7.557-5.009-12.093V119.182c0-4.722,3.829-8.551,8.551-8.551h307.841c4.722,0,8.551,3.829,8.551,8.551v334.962
		c0,4.535-1.802,8.886-5.009,12.093l-32.737,32.737C377.519,502.181,373.168,503.983,368.633,503.983z"/>
</g>
<path style="fill:#F5DCB4;" d="M256.033,245.331c17.737,24.427,38.448,60.537,38.448,91.905c0,21.219-17.262,38.48-38.48,38.48
	s-38.48-17.262-38.48-38.48C217.52,306.021,238.279,269.833,256.033,245.331 M256.001,204.693c0,0-64.134,68.409-64.134,132.543
	c0,35.42,28.714,64.134,64.134,64.134s64.134-28.714,64.134-64.134C320.134,273.102,256.001,204.693,256.001,204.693
	L256.001,204.693z"/>
<path d="M409.921,102.614h-77.495V42.221c0-2.126-0.844-4.164-2.348-5.669L295.873,2.347C294.371,0.844,292.331,0,290.205,0h-68.409
	c-2.126,0-4.165,0.844-5.668,2.347l-34.205,34.205c-1.504,1.505-2.348,3.543-2.348,5.669v60.392H102.08
	c-9.136,0-16.568,7.432-16.568,16.568v334.962c0,6.708,2.612,13.017,7.357,17.762l32.737,32.737
	c4.744,4.744,11.052,7.357,17.762,7.357h225.264c6.709,0,13.018-2.612,17.762-7.357l32.737-32.737
	c4.745-4.745,7.357-11.053,7.357-17.762V119.182C426.489,110.046,419.057,102.614,409.921,102.614z M298.222,102.614V50.238h18.171
	v52.376H298.222z M229.813,102.614V50.238h52.376v52.376H229.813z M225.116,16.033h61.768l18.171,18.171h-98.111L225.116,16.033z
	 M195.608,50.238h18.171v52.376h-18.171V50.238z M410.456,454.144c0,2.427-0.945,4.707-2.662,6.424l-32.737,32.737
	c-1.716,1.717-3.998,2.662-6.425,2.662H143.368c-2.427,0-4.708-0.945-6.425-2.662l-32.736-32.737
	c-1.716-1.716-2.662-3.997-2.662-6.424V119.182c0-0.294,0.239-0.534,0.534-0.534h307.841c0.295,0,0.534,0.24,0.534,0.534V454.144z"
	/>
<path d="M384.268,136.818H127.733c-4.427,0-8.017,3.588-8.017,8.017c0,4.428,3.589,8.017,8.017,8.017h256.534
	c4.427,0,8.017-3.588,8.017-8.017C392.284,140.407,388.695,136.818,384.268,136.818z"/>
<path d="M256.001,196.676c-2.216,0-4.333,0.917-5.849,2.533c-2.706,2.888-66.301,71.488-66.301,138.026
	c0,37.074,28.11,67.692,64.134,71.694v35.195c0,4.428,3.589,8.017,8.017,8.017c4.427,0,8.017-3.588,8.017-8.017V408.93
	c36.024-4.002,64.134-34.62,64.134-71.694c0-66.539-63.595-135.138-66.301-138.026C260.334,197.594,258.216,196.676,256.001,196.676
	z M247.984,332.962v14.848l-42.937-42.937c9.344-31.173,29.341-60.52,42.937-78.057v106.141
	C247.984,332.959,247.984,332.961,247.984,332.962z M264.017,226.795c9.932,12.797,23.264,31.895,33.385,53.426l-33.385,33.385
	V226.795z M199.884,337.236c0-4.587,0.357-9.208,1.017-13.835l47.084,47.085v22.285
	C220.826,388.868,199.884,365.456,199.884,337.236z M264.017,392.771v-25.603c0-0.001,0-0.003,0-0.005v-30.881l40.071-40.071
	c4.876,13.424,8.03,27.374,8.03,41.025C312.117,365.456,291.175,388.868,264.017,392.771z"/>
<g>
</g>
<g>
</g>
<g>
</g>
<g>
</g>
<g>
</g>
<g>
</g>
<g>
</g>
<g>
</g>
<g>
</g>
<g>
</g>
<g>
</g>
<g>
</g>
<g>
</g>
<g>
</g>
<g>
</g>
</svg>
