<?xml version="1.0" encoding="iso-8859-1"?>
<!-- Generator: Adobe Illustrator 19.0.0, SVG Export Plug-In . SVG Version: 6.00 Build 0)  -->
<svg version="1.1" id="Layer_1" xmlns="http://www.w3.org/2000/svg" xmlns:xlink="http://www.w3.org/1999/xlink" x="0px" y="0px"
	 viewBox="0 0 512 512" style="enable-background:new 0 0 512 512;" xml:space="preserve">
<path style="fill:#6487C8;" d="M452.339,59.324H59.658c-4.852,0-8.732,4.032-8.545,8.879l16.76,435.78h162.472l8.258-222.963
	c0.341-9.193,7.892-16.47,17.091-16.47h0.609c9.199,0,16.751,7.277,17.091,16.47l8.258,222.963h162.472l16.76-435.78
	C461.071,63.355,457.191,59.324,452.339,59.324z"/>
<path style="fill:#5A7DBE;" d="M54.646,160.067h38.881v-40.885c0-4.722-3.829-8.551-8.551-8.551h-32.56L54.646,160.067z"/>
<g>
	<polygon style="fill:#4D71B4;" points="67.873,503.983 230.345,503.983 231.612,469.779 66.558,469.779 	"/>
	<polygon style="fill:#4D71B4;" points="280.385,469.779 281.652,503.983 444.124,503.983 445.44,469.779 	"/>
	<path style="fill:#4D71B4;" d="M452.675,153.386c-23.613,0-42.756-19.143-42.756-42.756V59.324h42.756V8.017H59.322v51.307h42.756
		v51.307c0,23.613-19.143,42.756-42.756,42.756h-4.933l0.987,25.653h3.946c37.781,0,68.409-30.628,68.409-68.409V59.324h111.139
		v205.228h25.653v-53.679c5.09-2.962,8.551-8.416,8.551-14.73V59.324h111.191v51.307c0,37.781,30.628,68.409,68.409,68.409h3.946
		l0.987-25.653H452.675z"/>
</g>
<path d="M464.278,56.386c-1.076-1.118-2.287-2.051-3.586-2.813V8.017c0-4.427-3.589-8.017-8.017-8.017H59.322
	c-4.427,0-8.017,3.589-8.017,8.017v45.557c-1.299,0.762-2.51,1.694-3.586,2.813c-3.152,3.276-4.792,7.582-4.618,12.124l0,0
	l16.761,435.779c0.166,4.304,3.703,7.709,8.01,7.709h162.472c4.312,0,7.852-3.411,8.011-7.721l8.258-222.963
	c0.182-4.906,4.17-8.75,9.08-8.75h0.609c4.909,0,8.897,3.843,9.08,8.749l8.258,222.963c0.159,4.31,3.698,7.721,8.011,7.721h162.472
	c4.308,0,7.845-3.404,8.011-7.709l16.761-435.78C469.07,63.968,467.43,59.662,464.278,56.386z M392.283,67.34h60.058
	c0.062,0,0.227,0,0.385,0.164c0.157,0.165,0.152,0.329,0.149,0.391l-3.961,102.999c-31.554-1.951-56.63-28.227-56.63-60.263V67.34z
	 M444.658,51.307H375.18V16.033h69.478V51.307z M238.362,51.307V16.033h120.785v35.273H238.362z M61.075,118.647h23.9
	c0.295,0,0.534,0.239,0.534,0.534v45.862c-6.857,3.314-14.435,5.356-22.425,5.85L61.075,118.647z M84.976,102.614H60.458
	l-1.335-34.719c-0.002-0.062-0.009-0.227,0.149-0.391c0.158-0.164,0.323-0.164,0.385-0.164h60.058v43.29
	c0,16.88-6.969,32.156-18.171,43.126v-34.574C101.544,110.046,94.111,102.614,84.976,102.614z M63.701,186.923
	c40.11-2.279,72.047-35.621,72.047-76.292V67.34h95.132v210.429c-0.149,0.967-0.25,1.952-0.288,2.954l-6.705,181.039H74.273
	L63.701,186.923z M152.85,51.307V16.033h69.478v35.273H152.85z M246.913,67.34h18.171v128.802c0,5.01-4.076,9.086-9.086,9.086
	h-9.086V67.34z M136.817,16.033v35.273H67.339V16.033H136.817z M75.588,495.967l-0.699-18.171h148.404l-0.673,18.171H75.588z
	 M256.303,256.534h-0.609c-3.091,0-6.048,0.557-8.781,1.568v-36.842h9.086c13.851,0,25.119-11.268,25.119-25.119V67.34h95.132v43.29
	c0,40.671,31.936,74.013,72.047,76.292l-10.571,274.839H288.11l-6.705-181.039C280.903,267.159,269.876,256.534,256.303,256.534z
	 M289.378,495.967l-0.673-18.171h148.404l-0.699,18.171H289.378z"/>
<path d="M256.084,25.653h-0.086c-4.427,0-7.974,3.589-7.974,8.017s3.632,8.017,8.059,8.017c4.427,0,8.017-3.589,8.017-8.017
	S260.512,25.653,256.084,25.653z"/>
<g>
</g>
<g>
</g>
<g>
</g>
<g>
</g>
<g>
</g>
<g>
</g>
<g>
</g>
<g>
</g>
<g>
</g>
<g>
</g>
<g>
</g>
<g>
</g>
<g>
</g>
<g>
</g>
<g>
</g>
</svg>
