<?xml version="1.0" encoding="iso-8859-1"?>
<!-- Generator: Adobe Illustrator 19.0.0, SVG Export Plug-In . SVG Version: 6.00 Build 0)  -->
<svg version="1.1" id="Layer_1" xmlns="http://www.w3.org/2000/svg" xmlns:xlink="http://www.w3.org/1999/xlink" x="0px" y="0px"
	 viewBox="0 0 512 512" style="enable-background:new 0 0 512 512;" xml:space="preserve">
<path style="fill:#A0FFB4;" d="M256,503.983h188.125c0,0-17.102-213.779-59.858-444.66V16.568c0-4.722-3.829-8.551-8.551-8.551
	H136.284c-4.722,0-8.551,3.829-8.551,8.551v42.756c-42.756,230.881-59.858,444.66-59.858,444.66H256z"/>
<path style="fill:#FFC850;" d="M388.919,84.977c-1.52-8.524-3.062-17.071-4.652-25.653v-8.551H127.733v8.551
	c-1.588,8.582-3.132,17.129-4.651,25.653H388.919z"/>
<path style="fill:#7DF5A5;" d="M375.716,8.017H136.284c-4.722,0-8.551,3.829-8.551,8.551v34.205h256.534V16.568
	C384.267,11.845,380.438,8.017,375.716,8.017z"/>
<rect x="238.898" y="50.772" style="fill:#FFF082;" width="34.205" height="34.205"/>
<g>
	<path style="fill:#FFDC64;" d="M238.898,84.977l-32.528,6.505c-5.291,1.058-10.228-2.989-10.228-8.385V52.652
		c0-5.396,4.937-9.444,10.228-8.385l32.528,6.506V84.977z"/>
	<path style="fill:#FFDC64;" d="M273.102,84.977l32.527,6.505c5.291,1.058,10.228-2.989,10.228-8.385V52.652
		c0-5.396-4.937-9.444-10.228-8.385l-32.527,6.506V84.977z"/>
</g>
<path d="M452.117,503.344c-0.171-2.139-17.586-216.379-59.833-444.756v-42.02C392.284,7.432,384.852,0,375.716,0H136.284
	c-9.136,0-16.568,7.432-16.568,16.568v42.02C77.47,286.965,60.055,501.204,59.883,503.344c-0.177,2.23,0.584,4.433,2.101,6.078
	c1.518,1.645,3.653,2.578,5.891,2.578h376.251c2.237,0,4.373-0.935,5.891-2.579S452.295,505.574,452.117,503.344z M135.616,60.784
	c0.089-0.482,0.134-0.971,0.134-1.46v-0.534h52.376V76.96h-55.466C133.632,71.577,134.615,66.185,135.616,60.784z M230.881,78.405
	L204.8,83.622c-0.076,0.015-0.249,0.05-0.446-0.111c-0.196-0.159-0.196-0.337-0.196-0.413V52.652c0-0.076,0-0.253,0.196-0.414
	c0.123-0.1,0.238-0.125,0.325-0.125c0.051,0,0.093,0.009,0.12,0.014l26.082,5.217V78.405z M191.42,92.994
	c0.796,1.066,1.715,2.051,2.77,2.916c1.391,1.141,2.936,2.02,4.567,2.649c-11.958,188.506-17.739,359.505-18.942,397.408h-43.587
	c2.368-39.663,13.433-213.165,36.247-402.973H191.42z M214.86,97.961l24.831-4.967h8.291v402.973h-52.127
	C197.094,457.055,202.897,286.07,214.86,97.961z M265.086,76.96h-18.171V58.789h18.171V76.96z M264.017,92.994h8.291l24.828,4.966
	c11.962,188.099,17.765,359.094,19.003,398.007h-52.122V92.994z M307.841,83.098c0,0.076,0,0.253-0.196,0.414
	c-0.197,0.16-0.372,0.126-0.445,0.111l-26.082-5.217V57.344l26.081-5.216c0.076-0.016,0.249-0.049,0.446,0.111
	c0.196,0.159,0.196,0.338,0.196,0.413V83.098z M313.239,98.559c1.633-0.629,3.181-1.509,4.572-2.65
	c1.054-0.865,1.972-1.85,2.77-2.916h18.944c22.813,189.808,33.879,363.309,36.246,402.973h-43.589
	C330.979,458.064,325.198,287.065,313.239,98.559z M323.875,76.96V58.789h52.376v0.534c0,0.49,0.045,0.978,0.134,1.46
	c1,5.402,1.984,10.794,2.957,16.177H323.875z M136.284,16.033h239.432c0.294,0,0.534,0.239,0.534,0.534v26.188h-55.67
	c-0.796-1.066-1.715-2.051-2.77-2.916c-3.852-3.16-8.865-4.413-13.753-3.434l-31.749,6.35h-32.616l-31.75-6.35
	c-4.886-0.976-9.899,0.275-13.752,3.434c-1.054,0.865-1.972,1.85-2.77,2.916h-55.67V16.568
	C135.749,16.273,135.99,16.033,136.284,16.033z M129.798,92.994h26.528c-22.892,191.003-33.912,365.12-36.161,402.973H76.603
	C80.117,455.9,96.361,282.626,129.798,92.994z M391.833,495.967c-2.249-37.853-13.268-211.97-36.16-402.973h26.529
	c33.437,189.632,49.681,362.906,53.195,402.973H391.833z"/>
<g>
</g>
<g>
</g>
<g>
</g>
<g>
</g>
<g>
</g>
<g>
</g>
<g>
</g>
<g>
</g>
<g>
</g>
<g>
</g>
<g>
</g>
<g>
</g>
<g>
</g>
<g>
</g>
<g>
</g>
</svg>
