<?xml version="1.0" encoding="iso-8859-1"?>
<!-- Generator: Adobe Illustrator 19.0.0, SVG Export Plug-In . SVG Version: 6.00 Build 0)  -->
<svg version="1.1" id="Layer_1" xmlns="http://www.w3.org/2000/svg" xmlns:xlink="http://www.w3.org/1999/xlink" x="0px" y="0px"
	 viewBox="0 0 512 512" style="enable-background:new 0 0 512 512;" xml:space="preserve">
<path style="fill:#FF9BA9;" d="M324.326,388.34L212.888,265.747c-5.677-6.274-8.827-14.431-8.841-22.893l-0.384-192.081H67.914
	v218.053c0,25.047,8.497,48.835,25.092,67.595L221.17,480.628c25.643,28.987,70.072,31.313,98.602,5.162l0,0
	C347.818,460.081,349.852,416.554,324.326,388.34z"/>
<path style="fill:#FF8B9B;" d="M212.888,265.747c-5.678-6.275-8.827-14.431-8.841-22.893l-0.384-192.081h-60.389v174.229
	c0,31.334,11.838,62.192,32.599,85.662L304.61,454.914c7.149,8.081,15.594,14.724,24.84,19.877
	c18.399-25.9,17.048-61.945-5.123-86.451L212.888,265.747z"/>
<path style="fill:#FFDC64;" d="M221.17,480.628c25.643,28.987,70.073,31.313,98.601,5.162l0,0
	c28.047-25.709,30.082-69.235,4.556-97.448l-6.024-6.627L211.992,470.3L221.17,480.628z"/>
<g>
	<path style="fill:#FFC850;" d="M318.302,381.714l-45.243,37.701l31.55,35.499c7.149,8.081,15.594,14.724,24.84,19.877
		c18.399-25.9,17.048-61.945-5.123-86.451L318.302,381.714z"/>
	<path style="fill:#FFC850;" d="M319.771,485.79L319.771,485.79c23.791-21.807,28.787-56.407,14.198-83.634l-104.044,86.699
		C256.063,509.722,294.258,509.178,319.771,485.79z"/>
</g>
<path style="fill:#FFDC64;" d="M152.762,311.581c0-44.866-36.37-81.236-81.236-81.236c-1.444,0-2.186-0.074-3.611,0v37.411
	c0,25.047,8.497,49.904,25.091,68.664l32.098,36.115C142.027,357.649,152.762,335.892,152.762,311.581z"/>
<path style="fill:#FFC850;" d="M71.526,230.346c-1.444,0-2.186-0.074-3.611,0v27.791l7.886,0.359
	c28.292,0,51.307,23.014,51.307,51.307c0,14.405-6.087,28.183-16.726,37.895l-4.258,3.481l18.981,21.356
	c16.923-14.887,27.658-36.644,27.658-60.954C152.762,266.716,116.39,230.346,71.526,230.346z"/>
<rect x="67.917" y="50.772" style="fill:#FFDC64;" width="135.749" height="68.409"/>
<rect x="142.74" y="50.772" style="fill:#FFC850;" width="60.927" height="68.409"/>
<path style="fill:#F5B44B;" d="M290.163,438.659l14.447,16.255c7.113,8.042,15.511,14.665,24.705,19.809
	c15.164-21.368,16.983-49.56,4.654-72.567L290.163,438.659z"/>
<path style="fill:#FF9BA9;" d="M426.939,345.585L315.005,223.487c-5.677-6.274-8.827-14.431-8.841-22.893l0.112-192.576H169.864
	v217.66c0,25.047,9.16,49.229,25.756,67.989l128.164,144.207c25.643,28.987,70.072,31.313,98.602,5.162l0,0
	C450.431,417.325,452.465,373.798,426.939,345.585z"/>
<path style="fill:#FFDC64;" d="M323.784,437.873c25.643,28.987,70.073,31.313,98.601,5.162l0,0
	c28.047-25.709,30.082-69.235,4.556-97.448l-6.024-6.627l-106.311,88.586L323.784,437.873z"/>
<path style="fill:#FFC850;" d="M422.384,443.034L422.384,443.034c23.791-21.807,28.787-56.407,14.198-83.634l-104.043,86.699
	C358.677,466.967,396.871,466.423,422.384,443.034z"/>
<path style="fill:#FFDC64;" d="M255.375,268.826c0-44.866-36.37-81.236-81.236-81.236c-1.444,0-2.851,0.142-4.276,0.216v37.871
	c0,25.047,9.16,49.229,25.756,67.989l32.098,36.115C244.64,314.894,255.375,293.136,255.375,268.826z"/>
<path style="fill:#FFC850;" d="M174.139,187.59c-1.444,0-2.851,0.142-4.276,0.216v27.934h8.551
	c28.292,0,51.307,23.014,51.307,51.307c0,14.405-6.087,28.183-16.726,37.895l-4.258,3.481l18.981,21.356
	c16.923-14.888,27.658-36.644,27.658-60.954C255.375,223.96,219.004,187.59,174.139,187.59z"/>
<rect x="169.868" y="8.017" style="fill:#FFDC64;" width="136.412" height="68.409"/>
<path d="M432.884,340.207c-0.004-0.005-0.009-0.01-0.013-0.015l-111.425-122.58c-4.355-4.812-6.759-11.036-6.769-17.527
	L314.341,8.359c-0.007-4.415-3.583-7.992-7.995-8.003L169.885,0c-0.007,0-0.014,0-0.021,0c-2.122,0-4.159,0.841-5.661,2.34
	c-1.508,1.504-2.356,3.547-2.356,5.677v34.986l-94.575-0.247c-0.007,0-0.014,0-0.021,0c-2.122,0-4.159,0.841-5.661,2.34
	c-1.508,1.504-2.356,3.547-2.356,5.677v217.66c0,27.026,9.862,53.059,27.779,73.315l128.153,144.192
	c13.837,15.644,32.944,24.86,53.803,25.952c1.386,0.073,2.765,0.11,4.143,0.109c19.346,0,37.703-7.125,52.076-20.3
	c8.748-8.019,15.47-17.854,19.74-28.781c8.324,3.597,17.311,5.728,26.654,6.218c1.386,0.073,2.765,0.109,4.143,0.109
	c19.346,0,37.703-7.125,52.076-20.301C458.986,420.358,461.267,371.579,432.884,340.207z M409.352,338.154l-93.914,78.261
	l-78.244-88.039c16.673-15.991,26.198-38.166,26.198-61.329c0-46.857-38.12-84.977-84.977-84.977c-0.177,0-0.356,0.006-0.534,0.007
	V84.442h120.56l0.202,115.669c0.017,10.463,3.893,20.499,10.926,28.272L409.352,338.154z M134.58,371.131
	c16.673-15.991,26.198-38.166,26.198-61.329c0-46.857-38.12-84.977-84.977-84.977c-0.177,0-0.356,0.006-0.534,0.007v-97.636h86.58
	v98.479c0,27.026,9.862,53.059,27.78,73.315l91.656,103.129l-68.459,57.05L134.58,371.131z M109.472,111.164V58.899l18.171,0.047
	v52.218H109.472z M226.542,316.391l-24.918-28.037c-15.311-17.307-23.743-39.568-23.743-62.678v-27.558
	c0.179-0.001,0.357-0.015,0.534-0.015c38.015,0,68.943,30.928,68.943,68.943C247.358,285.637,239.799,303.448,226.542,316.391z
	 M246.289,68.409V16.233l18.171,0.047v52.129H246.289z M230.256,68.409h-18.171V16.143l18.171,0.047V68.409z M298.413,68.409
	h-17.919V16.322l17.828,0.046L298.413,68.409z M196.052,16.102v52.307H177.88V51.081c0-0.006,0.001-0.013,0.001-0.019
	c0-0.007-0.001-0.014-0.001-0.021V16.055L196.052,16.102z M161.847,111.164h-18.171V58.989l18.171,0.047V111.164z M93.438,58.857
	v52.307H75.267V58.81L93.438,58.857z M75.267,268.432v-27.558c0.179-0.001,0.357-0.015,0.534-0.015
	c38.015,0,68.943,30.928,68.943,68.943c0,18.59-7.559,36.401-20.817,49.344L99.01,331.11
	C83.7,313.801,75.267,291.542,75.267,268.432z M314.354,479.88c-12.199,11.183-28.039,16.88-44.547,16
	c-16.527-0.865-31.667-8.168-42.644-20.577l-3.681-4.142l68.459-57.051l25.839,29.074c3.936,4.45,8.311,8.36,13.018,11.73
	C327.487,464.435,321.861,472.999,314.354,479.88z M416.967,437.124c-12.2,11.183-28.028,16.879-44.547,16
	c-16.527-0.865-31.667-8.168-42.644-20.577l-3.681-4.142l94.052-78.376l0.855,0.941
	C443.486,375.828,441.677,414.475,416.967,437.124z"/>
<g>
</g>
<g>
</g>
<g>
</g>
<g>
</g>
<g>
</g>
<g>
</g>
<g>
</g>
<g>
</g>
<g>
</g>
<g>
</g>
<g>
</g>
<g>
</g>
<g>
</g>
<g>
</g>
<g>
</g>
</svg>
