<?xml version="1.0" encoding="iso-8859-1"?>
<!-- Generator: Adobe Illustrator 19.0.0, SVG Export Plug-In . SVG Version: 6.00 Build 0)  -->
<svg version="1.1" id="Layer_1" xmlns="http://www.w3.org/2000/svg" xmlns:xlink="http://www.w3.org/1999/xlink" x="0px" y="0px"
	 viewBox="0 0 512 512" style="enable-background:new 0 0 512 512;" xml:space="preserve">
<g>
	<path style="fill:#464655;" d="M170.489,503.983h-17.102c-4.722,0-8.551-3.829-8.551-8.551v-25.653h34.205v25.653
		C179.04,500.155,175.211,503.983,170.489,503.983z"/>
	<path style="fill:#464655;" d="M358.614,503.983h-17.102c-4.722,0-8.551-3.829-8.551-8.551v-25.653h34.205v25.653
		C367.165,500.155,363.336,503.983,358.614,503.983z"/>
</g>
<path style="fill:#FF5A64;" d="M367.165,469.779h-222.33c-9.446,0-17.102-7.656-17.102-17.102V187.591
	c0-23.613,19.143-42.756,42.756-42.756h171.023c23.613,0,42.756,19.143,42.756,42.756v265.086
	C384.267,462.122,376.611,469.779,367.165,469.779z"/>
<g>
	<path style="fill:#D74B55;" d="M341.511,273.102H170.489c-4.722,0-8.551,3.829-8.551,8.551v111.165
		c0,4.722,3.829,8.551,8.551,8.551h171.023c4.722,0,8.551-3.829,8.551-8.551V281.653
		C350.063,276.931,346.234,273.102,341.511,273.102z"/>
	<path style="fill:#D74B55;" d="M341.511,238.898H170.489c-4.722,0-8.551-3.829-8.551-8.551v-42.756
		c0-4.722,3.829-8.551,8.551-8.551h171.023c4.722,0,8.551,3.829,8.551,8.551v42.756
		C350.063,235.069,346.234,238.898,341.511,238.898z"/>
</g>
<path style="fill:#707487;" d="M298.756,42.221h-85.511c-4.722,0-8.551-3.829-8.551-8.551V16.568c0-4.722,3.829-8.551,8.551-8.551
	h85.511c4.722,0,8.551,3.829,8.551,8.551V33.67C307.307,38.393,303.478,42.221,298.756,42.221z"/>
<path style="fill:#5B5D6E;" d="M127.733,435.574h256.534v17.102c0,9.446-7.656,17.102-17.102,17.102h-222.33
	c-9.446,0-17.102-7.656-17.102-17.102V435.574z"/>
<path d="M341.511,136.818h-43.289v-86.58h0.533c9.136,0,16.568-7.432,16.568-16.568V16.568C315.324,7.432,307.892,0,298.756,0
	h-85.511c-9.136,0-16.568,7.432-16.568,16.568V33.67c0,9.136,7.432,16.568,16.568,16.568h0.533v86.58h-43.289
	c-27.995,0-50.772,22.777-50.772,50.772v265.086c0,11.048,7.172,20.446,17.102,23.8v18.956c0,9.136,7.432,16.568,16.568,16.568
	h17.102c9.136,0,16.568-7.432,16.568-16.568v-17.637h137.887v17.637c0,9.136,7.432,16.568,16.568,16.568h17.102
	c9.136,0,16.568-7.432,16.568-16.568v-18.956c9.93-3.354,17.102-12.752,17.102-23.8V187.591
	C392.284,159.595,369.507,136.818,341.511,136.818z M212.71,33.67V16.568c0-0.294,0.239-0.534,0.534-0.534h85.511
	c0.295,0,0.534,0.241,0.534,0.534V33.67c0,0.294-0.239,0.534-0.534,0.534h-85.511C212.949,34.205,212.71,33.964,212.71,33.67z
	 M229.811,50.238h52.378v86.58h-52.378L229.811,50.238L229.811,50.238z M170.489,152.852h171.023
	c19.155,0,34.739,15.583,34.739,34.739v239.967H135.749V187.591C135.749,168.435,151.334,152.852,170.489,152.852z M171.023,495.432
	c0,0.294-0.239,0.534-0.534,0.534h-17.102c-0.295,0-0.534-0.241-0.534-0.534v-17.637h18.171V495.432z M358.614,495.967h-17.102
	c-0.295,0-0.534-0.241-0.534-0.534v-17.637h18.171v17.637C359.148,495.726,358.909,495.967,358.614,495.967z M367.165,461.762
	h-222.33c-5.01,0-9.086-4.076-9.086-9.086v-9.086h240.501v9.086C376.251,457.686,372.175,461.762,367.165,461.762z"/>
<path d="M170.489,409.386h171.023c9.136,0,16.568-7.432,16.568-16.568V281.653c0-9.136-7.432-16.568-16.568-16.568H170.489
	c-9.136,0-16.568,7.432-16.568,16.568v111.165C153.921,401.954,161.353,409.386,170.489,409.386z M169.954,281.653
	c0-0.294,0.239-0.534,0.534-0.534h171.023c0.295,0,0.534,0.24,0.534,0.534v111.165c0,0.294-0.239,0.534-0.534,0.534H170.489
	c-0.295,0-0.534-0.241-0.534-0.534V281.653z"/>
<path d="M170.489,246.914h171.023c9.136,0,16.568-7.432,16.568-16.568v-42.756c0-9.136-7.432-16.568-16.568-16.568H170.489
	c-9.136,0-16.568,7.432-16.568,16.568v42.756C153.921,239.482,161.353,246.914,170.489,246.914z M169.954,187.591
	c0-0.294,0.239-0.534,0.534-0.534h171.023c0.295,0,0.534,0.241,0.534,0.534v42.756c0,0.294-0.239,0.534-0.534,0.534H170.489
	c-0.295,0-0.534-0.241-0.534-0.534V187.591z"/>
<path d="M196.142,315.324h119.716c4.427,0,8.017-3.588,8.017-8.017c0-4.428-3.589-8.017-8.017-8.017H196.142
	c-4.427,0-8.017,3.588-8.017,8.017C188.125,311.735,191.715,315.324,196.142,315.324z"/>
<g>
</g>
<g>
</g>
<g>
</g>
<g>
</g>
<g>
</g>
<g>
</g>
<g>
</g>
<g>
</g>
<g>
</g>
<g>
</g>
<g>
</g>
<g>
</g>
<g>
</g>
<g>
</g>
<g>
</g>
</svg>
