<?xml version="1.0" encoding="iso-8859-1"?>
<!-- Generator: Adobe Illustrator 19.0.0, SVG Export Plug-In . SVG Version: 6.00 Build 0)  -->
<svg version="1.1" id="Layer_1" xmlns="http://www.w3.org/2000/svg" xmlns:xlink="http://www.w3.org/1999/xlink" x="0px" y="0px"
	 viewBox="0 0 512 512" style="enable-background:new 0 0 512 512;" xml:space="preserve">
<polygon style="fill:#707487;" points="290.205,196.142 273.102,127.733 238.898,127.733 221.795,196.142 213.244,461.228 
	256,503.983 298.756,461.228 "/>
<polygon style="fill:#959CB5;" points="217.115,341.24 297.477,421.602 295.759,368.309 218.734,291.054 "/>
<path style="fill:#5B5D6E;" d="M273.102,127.733h-34.205c-4.722,0-8.551-3.829-8.551-8.551V84.977h51.307v34.205
	C281.653,123.904,277.825,127.733,273.102,127.733z"/>
<g>
	<path style="fill:#E4EAF8;" d="M170.489,8.017L256,84.977l-44.161,36.801c-3.846,3.205-9.609,2.435-12.479-1.665l-54.524-77.891
		L170.489,8.017z"/>
	<path style="fill:#E4EAF8;" d="M341.511,8.017L256,84.977l44.161,36.801c3.846,3.205,9.609,2.435,12.479-1.665l54.524-77.891
		L341.511,8.017z"/>
</g>
<polygon style="fill:#D5DCED;" points="341.511,8.017 170.489,8.017 256,84.977 "/>
<polygon style="fill:#5B5D6E;" points="216.451,361.819 298.186,443.552 296.77,399.648 217.786,320.428 "/>
<polygon style="fill:#959CB5;" points="292.917,280.222 291.198,226.916 228.852,164.384 221.795,196.142 221.39,208.697 "/>
<polygon style="fill:#5B5D6E;" points="293.625,302.186 292.2,257.991 223.351,189.144 221.795,196.142 220.727,229.278 "/>
<path d="M373.578,37.411L347.925,3.207c-1.351-1.801-3.396-2.95-5.634-3.169c-0.26-0.025-0.519-0.034-0.779-0.034V0H170.489v0.003
	c-0.259,0-0.518,0.009-0.779,0.034c-2.238,0.219-4.283,1.368-5.634,3.169l-25.653,34.205c-2.079,2.773-2.142,6.568-0.155,9.407
	l54.524,77.891c2.65,3.787,6.798,6.31,11.381,6.921c0.726,0.097,1.453,0.145,2.178,0.145c3.853,0,7.632-1.349,10.622-3.839
	l5.838-4.866c0.959,3.963,3.337,7.372,6.576,9.654l-15.367,61.472c-0.138,0.553-0.216,1.118-0.235,1.686l-8.551,265.086
	c-0.071,2.215,0.777,4.361,2.343,5.928l42.756,42.756c1.566,1.565,3.618,2.347,5.669,2.347c2.051,0,4.104-0.782,5.669-2.347
	l42.756-42.756c1.567-1.567,2.415-3.713,2.343-5.928l-8.551-265.086c-0.019-0.568-0.097-1.134-0.235-1.686l-15.367-61.472
	c3.239-2.282,5.617-5.691,6.576-9.654l5.838,4.866c2.99,2.491,6.767,3.839,10.622,3.839c0.725,0,1.453-0.048,2.178-0.145
	c4.582-0.61,8.731-3.134,11.381-6.921l54.524-77.891C375.72,43.98,375.657,40.184,373.578,37.411z M256,74.191l-64.619-58.157
	H320.62L256,74.191z M206.707,115.619c-0.048,0.042-0.179,0.15-0.414,0.12c-0.232-0.031-0.33-0.171-0.367-0.223l-51.194-73.133
	l16.908-22.543l72.115,64.904L206.707,115.619z M266.843,135.749l15.376,61.506l1.314,40.734l-51.149-51.149l12.773-51.092H266.843z
	 M284.289,261.422l0.669,20.757l-56.107-56.114l0.627-19.453L284.289,261.422z M225.203,339.155l63.647,63.647l0.669,20.749
	l-64.945-64.945L225.203,339.155z M225.912,317.188l2.231-69.155l57.572,57.579l2.379,73.759L225.912,317.188z M256,492.647
	l-34.631-34.631l2.498-77.44l66.408,66.408l0.356,11.031L256,492.647z M273.637,119.182c0,0.294-0.241,0.534-0.534,0.534h-34.205
	c-0.294,0-0.534-0.241-0.534-0.534v-9.072L256,95.413l17.637,14.697V119.182z M306.073,115.515
	c-0.036,0.052-0.135,0.192-0.367,0.223c-0.236,0.029-0.366-0.078-0.414-0.12l-37.05-30.875l72.115-64.904l16.908,22.543
	L306.073,115.515z"/>
<g>
</g>
<g>
</g>
<g>
</g>
<g>
</g>
<g>
</g>
<g>
</g>
<g>
</g>
<g>
</g>
<g>
</g>
<g>
</g>
<g>
</g>
<g>
</g>
<g>
</g>
<g>
</g>
<g>
</g>
</svg>
