<?xml version="1.0" encoding="iso-8859-1"?>
<!-- Generator: Adobe Illustrator 19.0.0, SVG Export Plug-In . SVG Version: 6.00 Build 0)  -->
<svg version="1.1" id="Layer_1" xmlns="http://www.w3.org/2000/svg" xmlns:xlink="http://www.w3.org/1999/xlink" x="0px" y="0px"
	 viewBox="0 0 512 512" style="enable-background:new 0 0 512 512;" xml:space="preserve">
<path style="fill:#FFDC64;" d="M392.814,358.615l-8.055-265.831c-0.302-9.976-6.363-18.87-15.536-22.802l-44.817-19.208H187.588
	l-44.592,19.286c-9.295,3.877-15.461,12.833-15.767,22.9l-8.05,265.654l41.055,15.214l-6.85,130.155H358.61l-6.851-130.155
	L392.814,358.615z"/>
<g>
	<polygon style="fill:#FAEBC8;" points="255.992,8.018 255.994,8.018 255.997,8.018 	"/>
	<path style="fill:#FAEBC8;" d="M307.298,76.428l25.653-8.551c0,0-8.546-59.858-76.957-59.859
		c-68.413,0.001-76.958,59.859-76.958,59.859l25.653,8.551l-17.102,25.653l67.993,83.104l68.819-83.104L307.298,76.428z"/>
</g>
<path style="fill:#EBC9A0;" d="M285.281,90.299c3.257-9.18,4.921-18.849,4.921-28.59V14.321c-9.309-3.837-20.511-6.302-34.207-6.302
	c-13.694,0-24.894,2.463-34.202,6.299V61.71c0,9.741,1.664,19.409,4.921,28.59l29.283,80.19L285.281,90.299z"/>
<polygon style="fill:#FAEBC8;" points="255.992,8.018 255.994,8.018 255.997,8.018 "/>
<path style="fill:#FFC850;" d="M170.485,179.042v-43.793c0-10.356-3.759-20.361-10.579-28.155L133.53,76.949
	c-3.8,4.379-6.118,9.983-6.301,16.012l-8.05,265.654l41.055,15.214L170.485,179.042z"/>
<polygon style="fill:#FFDC64;" points="119.179,358.615 160.234,373.829 162.349,333.632 120.406,318.148 "/>
<path style="fill:#FFC850;" d="M341.509,179.042v-43.793c0-10.356,3.759-20.361,10.579-28.155l26.377-30.145
	c3.8,4.379,6.118,9.983,6.301,16.012l8.05,265.654l-41.055,15.214L341.509,179.042z"/>
<polygon style="fill:#FFDC64;" points="392.815,358.615 351.762,373.829 349.645,333.632 391.589,318.148 "/>
<path style="fill:#F5DCB4;" d="M221.792,14.317v27.907h68.409V14.321c-9.309-3.837-20.511-6.302-34.207-6.302
	C242.302,8.018,231.1,10.481,221.792,14.317z"/>
<path d="M392.773,92.542c-0.395-13.04-8.399-24.788-20.392-29.928L334.244,46.27c-1.946-4.123-4.428-8.551-7.592-12.982
	c-10.845-15.184-31.907-33.284-70.654-33.286c-0.004-0.003,0-0.001-0.002,0c0,0-0.001,0-0.002,0l0,0
	c-38.746,0.002-59.809,18.102-70.654,33.286c-3.36,4.703-5.952,9.406-7.948,13.742l-37.48,15.634
	c-12.171,5.076-20.294,16.873-20.694,30.055l-8.05,265.653c-0.102,3.365,1.91,6.436,5.036,7.686l35.662,14.265l-6.486,123.238
	c-0.115,2.197,0.677,4.343,2.19,5.94c1.514,1.595,3.616,2.499,5.816,2.499h205.227c2.2,0,4.302-0.904,5.816-2.499
	c1.514-1.596,2.306-3.743,2.19-5.94l-6.486-123.238l35.662-14.265c3.125-1.251,5.137-4.322,5.036-7.686L392.773,92.542z
	 M323.481,62.583l-18.717,6.239c-2.371,0.79-4.237,2.64-5.048,5.005c-0.81,2.363-0.474,4.968,0.913,7.048l13.792,20.688
	l-43.596,52.644l22.011-61.228c3.571-10.068,5.382-20.588,5.382-31.269V27.591C314.158,38.314,320.859,53.884,323.481,62.583z
	 M229.81,50.241h52.376v11.47c0,8.849-1.501,17.567-4.448,25.877l-21.884,60.875l-21.584-60.844
	c-2.959-8.342-4.459-17.058-4.459-25.908V50.241z M255.992,16.036c10.133,0,18.784,1.445,26.192,3.838v14.333h-52.376V19.871
	C237.216,17.479,245.864,16.035,255.992,16.036z M213.777,27.588v34.123c0,10.681,1.811,21.201,5.382,31.269l21.937,61.838
	l-43.547-53.224l13.812-20.719c1.386-2.079,1.723-4.685,0.913-7.048c-0.811-2.364-2.678-4.214-5.048-5.005l-18.715-6.238
	C191.137,53.873,197.842,38.306,213.777,27.588z M127.362,353.253l0.712-23.474l25.906,10.362l-1.225,23.27L127.362,353.253z
	 M169.234,355.377l30.491-15.246c3.96-1.981,5.566-6.795,3.585-10.756c-1.98-3.959-6.794-5.565-10.755-3.585l-22.353,11.176
	l8.289-157.504c0.233-4.422-3.163-8.194-7.585-8.427c-4.428-0.265-8.194,3.162-8.427,7.584l-7.61,144.609l-26.279-10.511
	l6.652-219.512c0.21-6.905,4.464-13.084,10.84-15.744l24.991-10.424c-0.394,3.728,1.848,7.251,5.43,8.445l15.697,5.232
	l-11.28,16.921c-1.955,2.932-1.766,6.796,0.466,9.523l63.816,77.997l-11.205,13.531c-7.524,9.087-11.667,20.587-11.667,32.383
	v264.898h-60.494L169.234,355.377z M238.361,495.967v-264.9c0-8.071,2.835-15.94,7.982-22.157l84.232-101.717
	c2.259-2.728,2.461-6.613,0.496-9.559l-11.28-16.921l15.697-5.232c3.675-1.225,5.948-4.903,5.401-8.738
	c-0.004-0.031-0.015-0.104-0.03-0.197l25.207,10.802c6.282,2.693,10.475,8.846,10.682,15.677l6.657,219.69l-26.279,10.511
	l-7.61-144.609c-0.233-4.421-4-7.848-8.427-7.584c-4.422,0.233-7.817,4.005-7.585,8.427l8.289,157.504l-22.353-11.176
	c-3.959-1.981-8.775-0.375-10.755,3.585c-1.981,3.96-0.375,8.776,3.585,10.756l30.491,15.246l7.4,140.59H238.361z M359.241,363.411
	l-1.225-23.27l25.906-10.362l0.711,23.474L359.241,363.411z"/>
<path d="M264.634,247.985h-0.086c-4.427,0-7.974,3.588-7.974,8.017s3.632,8.017,8.059,8.017s8.017-3.588,8.017-8.017
	S269.062,247.985,264.634,247.985z"/>
<path d="M264.634,350.598h-0.086c-4.427,0-7.974,3.588-7.974,8.017c0,4.428,3.632,8.017,8.059,8.017s8.017-3.588,8.017-8.017
	C272.651,354.187,269.062,350.598,264.634,350.598z"/>
<path d="M264.634,299.292h-0.086c-4.427,0-7.974,3.588-7.974,8.017c0,4.428,3.632,8.017,8.059,8.017s8.017-3.588,8.017-8.017
	C272.651,302.88,269.062,299.292,264.634,299.292z"/>
<g>
</g>
<g>
</g>
<g>
</g>
<g>
</g>
<g>
</g>
<g>
</g>
<g>
</g>
<g>
</g>
<g>
</g>
<g>
</g>
<g>
</g>
<g>
</g>
<g>
</g>
<g>
</g>
<g>
</g>
</svg>
