<?xml version="1.0" encoding="iso-8859-1"?>
<!-- Generator: Adobe Illustrator 19.0.0, SVG Export Plug-In . SVG Version: 6.00 Build 0)  -->
<svg version="1.1" id="Layer_1" xmlns="http://www.w3.org/2000/svg" xmlns:xlink="http://www.w3.org/1999/xlink" x="0px" y="0px"
	 viewBox="0 0 512 512" style="enable-background:new 0 0 512 512;" xml:space="preserve">
<path style="fill:#5B5D6E;" d="M251.863,462.869c0-32.114-33.099-173.77-33.099-248.242c0-57.923,8.275-82.747,8.275-82.747
	l-8.275-41.374h66.198l-8.275,41.374c0,0,8.275,24.824,8.275,82.747C284.962,289.099,251.863,430.754,251.863,462.869z"/>
<path d="M272.549,0c-15.685,0-28.444,12.761-28.444,28.444v54.303h-25.341c-2.324,0-4.525,1.043-5.999,2.839
	c-1.473,1.797-2.064,4.16-1.607,6.44l7.899,39.496c-2.002,7.231-8.05,33.215-8.05,83.103c0,45.621,12.051,115.005,21.735,170.754
	c6.098,35.108,11.364,65.427,11.364,77.489v41.374c0,4.285,3.473,7.758,7.758,7.758c4.284,0,7.758-3.472,7.758-7.758v-41.374
	c0-12.061,5.266-42.381,11.364-77.489c9.684-55.749,21.735-125.133,21.735-170.754c0-49.888-6.048-75.872-8.049-83.104l7.899-39.496
	c0.455-2.279-0.134-4.642-1.607-6.44c-1.474-1.797-3.675-2.839-5.999-2.839H259.62V28.444c0-7.13,5.8-12.929,12.929-12.929
	s12.929,5.8,12.929,12.929v20.687c0,4.285,3.473,7.758,7.758,7.758c4.284,0,7.758-3.472,7.758-7.758V28.444
	C300.994,12.761,288.234,0,272.549,0z M259.62,360.038V164.978c0-4.285-3.473-7.758-7.758-7.758c-4.284,0-7.758,3.472-7.758,7.758
	v195.061c-8.626-50.346-17.584-107.03-17.584-145.412c0-41.007,4.252-65.094,6.508-74.99h37.666
	c2.259,9.91,6.509,33.996,6.509,74.99C277.204,253.009,268.247,309.693,259.62,360.038z M270.327,124.121h-36.929l-5.172-25.859
	h47.273L270.327,124.121z"/>
<g>
</g>
<g>
</g>
<g>
</g>
<g>
</g>
<g>
</g>
<g>
</g>
<g>
</g>
<g>
</g>
<g>
</g>
<g>
</g>
<g>
</g>
<g>
</g>
<g>
</g>
<g>
</g>
<g>
</g>
</svg>
