<?xml version="1.0" encoding="iso-8859-1"?>
<!-- Generator: Adobe Illustrator 19.0.0, SVG Export Plug-In . SVG Version: 6.00 Build 0)  -->
<svg version="1.1" id="Layer_1" xmlns="http://www.w3.org/2000/svg" xmlns:xlink="http://www.w3.org/1999/xlink" x="0px" y="0px"
	 viewBox="0 0 512.001 512.001" style="enable-background:new 0 0 512.001 512.001;" xml:space="preserve">
<rect x="42.222" y="46.497" style="fill:#91C5E6;" width="427.557" height="51.307"/>
<polygon style="fill:#B4E1FA;" points="256,362.89 275.24,465.503 503.984,465.503 478.33,97.804 33.67,97.804 8.017,465.503 
	236.76,465.503 "/>
<g>
	<polygon style="fill:#A0D2F0;" points="275.24,465.503 503.984,465.503 501.598,431.299 268.827,431.299 	"/>
	<polygon style="fill:#A0D2F0;" points="243.174,431.299 10.404,431.299 8.017,465.503 236.76,465.503 	"/>
	<path style="fill:#A0D2F0;" d="M480.119,123.457l-1.79-25.653H33.669l-1.789,25.653h134.194l31.661,196.295
		c4.009,24.861,25.471,43.137,50.653,43.137h15.224c25.183,0,46.642-18.276,50.653-43.137l31.66-196.295H480.119z"/>
</g>
<path d="M511.981,464.945L486.328,97.246c-0.293-4.201-3.786-7.459-7.997-7.459h-0.534v-43.29c0-4.427-3.589-8.017-8.017-8.017
	H42.222c-4.427,0-8.017,3.589-8.017,8.017v43.29H33.67c-4.21,0-7.705,3.258-7.997,7.459L0.02,464.945
	c-0.155,2.218,0.619,4.4,2.135,6.025s3.641,2.549,5.863,2.549H236.76c3.858,0,7.169-2.747,7.88-6.539L256,406.39l11.36,60.59
	c0.711,3.791,4.022,6.539,7.88,6.539h228.743c2.223,0,4.346-0.924,5.863-2.549C511.363,469.345,512.136,467.163,511.981,464.945z
	 M493.002,423.282H275.481l-9.83-52.422c28.372-0.949,51.975-21.606,56.528-49.832l34.71-215.208h113.963L493.002,423.282z
	 M340.65,105.821l-34.299,212.655c-3.38,20.956-21.15,36.196-42.334,36.388V105.821H340.65z M247.984,354.864
	c-21.183-0.192-38.954-15.432-42.334-36.388l-34.299-212.655h76.632V354.864z M50.238,54.514h411.524v35.273H50.238V54.514z
	 M41.147,105.821h113.963l34.711,215.208c4.552,28.226,28.157,48.883,56.528,49.832l-9.83,52.422H18.999L41.147,105.821z
	 M16.613,457.487l1.268-18.171h215.633l-3.408,18.171H16.613z M281.894,457.487l-3.408-18.171H494.12l1.268,18.171H281.894z"/>
<g>
</g>
<g>
</g>
<g>
</g>
<g>
</g>
<g>
</g>
<g>
</g>
<g>
</g>
<g>
</g>
<g>
</g>
<g>
</g>
<g>
</g>
<g>
</g>
<g>
</g>
<g>
</g>
<g>
</g>
</svg>
