<?xml version="1.0" encoding="iso-8859-1"?>
<!-- Generator: Adobe Illustrator 19.0.0, SVG Export Plug-In . SVG Version: 6.00 Build 0)  -->
<svg version="1.1" id="Layer_1" xmlns="http://www.w3.org/2000/svg" xmlns:xlink="http://www.w3.org/1999/xlink" x="0px" y="0px"
	 viewBox="0 0 511.999 511.999" style="enable-background:new 0 0 511.999 511.999;" xml:space="preserve">
<g>
	<polygon style="fill:#00AAF0;" points="174.153,93.529 161.937,8.017 119.181,16.568 128.801,93.529 	"/>
	<polygon style="fill:#00AAF0;" points="383.198,93.529 392.818,16.568 350.062,8.017 337.846,93.529 	"/>
</g>
<path style="fill:#00C3FF;" d="M418.471,153.856c0-31.658-28.465-63.858-42.991-78.228c-4.964-4.91-12.3-6.404-18.723-3.664
	c-16.49,7.031-50.81,23.81-90.115,55.475c-6.189,4.986-15.098,4.986-21.287,0c-39.304-31.665-73.625-48.443-90.115-55.475
	c-6.423-2.74-13.759-1.246-18.723,3.664c-14.525,14.37-42.99,46.57-42.99,78.228c0,23.092,10.215,43.758,26.32,57.865
	l14.938,157.419c0.925,9.34,5.635,17.846,13.034,23.621c20.512,16.011,62.715,53.28,79.128,99.938
	c2.387,6.786,8.821,11.284,16.014,11.284h26.075c7.194,0,13.627-4.498,16.014-11.284c16.413-46.657,58.616-83.927,79.128-99.938
	c7.399-5.775,12.109-14.281,13.034-23.621l14.938-157.419C408.256,197.613,418.471,176.948,418.471,153.856z"/>
<g>
	<path style="fill:#00AAF0;" d="M349.269,230.38c15.981-1.44,30.508-7.172,42.6-15.941l-2.848,30.001
		c-9.293,4.91-18.65,7.666-27.015,9.211c-10.412,1.923-19.937-6.312-19.923-16.899l0.009-6.404
		C342.091,230.347,344.567,230.807,349.269,230.38z"/>
	<path style="fill:#00AAF0;" d="M162.706,230.38c-15.981-1.44-30.508-7.172-42.6-15.941l2.848,30.001
		c9.293,4.91,18.652,7.666,27.018,9.211c10.412,1.923,19.937-6.312,19.923-16.899l-0.009-6.404
		C169.887,230.347,167.407,230.807,162.706,230.38z"/>
</g>
<path d="M426.488,153.856c0-27.045-18.015-53.589-33.911-71.751l8.194-64.528c0.53-4.172-2.255-8.046-6.381-8.871l-42.756-8.551
	c-2.185-0.436-4.453,0.055-6.259,1.359c-1.807,1.303-2.991,3.299-3.268,5.508l-8.366,66.934c-18.69,9.58-44.178,24.724-72.127,47.24
	c-3.253,2.622-7.975,2.62-11.229,0c-27.948-22.516-53.437-37.659-72.127-47.239l-8.367-66.934c-0.276-2.209-1.46-4.206-3.268-5.508
	s-4.076-1.794-6.259-1.359l-42.756,8.551c-4.125,0.824-6.91,4.699-6.381,8.871l8.194,64.528
	c-15.895,18.161-33.911,44.704-33.911,71.749c0,23.923,9.887,45.681,25.966,61.198l15.331,154.875
	c1.131,11.433,6.992,22.058,16.078,29.151c17.669,13.792,60.494,50.783,76.499,96.28c3.502,9.954,12.976,16.639,23.577,16.639
	h26.075c10.6,0,20.075-6.687,23.577-16.639c16.005-45.496,58.83-82.488,76.499-96.28c9.087-7.094,14.947-17.718,16.078-29.15
	l15.331-154.876C416.601,199.537,426.488,177.78,426.488,153.856z M356.947,17.57l26.977,5.396l-5.654,44.53
	c-7.108-5.232-16.425-6.414-24.656-2.906c-0.85,0.362-1.755,0.756-2.689,1.166L356.947,17.57z M155.052,17.57l6.023,48.188
	c-0.934-0.41-1.84-0.804-2.689-1.166c-8.232-3.512-17.548-2.327-24.656,2.905l-5.654-44.53L155.052,17.57z M369.236,368.351
	c-0.702,7.089-4.343,13.683-9.989,18.091c-54.352,42.425-74.554,83.118-81.759,103.597c-1.247,3.546-4.643,5.928-8.452,5.928
	h-26.075c-3.808,0-7.204-2.383-8.452-5.928c-7.204-20.479-27.406-61.172-81.759-103.597c-5.646-4.408-9.287-11.002-9.989-18.092
	l-13.895-140.36c9.668,5.422,20.536,9.036,32.188,10.324c4.402,0.486,8.362-2.686,8.849-7.087c0.486-4.401-2.687-8.362-7.087-8.848
	c-34.931-3.862-61.274-33.321-61.274-68.524c0-29.198,28.402-60.449,40.612-72.529c2.672-2.643,6.574-3.426,9.941-1.988
	c16.483,7.028,49.864,23.434,88.23,54.344c9.081,7.316,22.264,7.317,31.345,0c38.367-30.909,71.747-47.316,88.23-54.345
	c3.367-1.433,7.268-0.654,9.94,1.989c12.212,12.081,40.614,43.331,40.614,72.529c0,35.203-26.343,64.661-61.274,68.522
	c-4.401,0.486-7.573,4.448-7.087,8.848c0.453,4.101,3.925,7.137,7.958,7.137c0.294,0,0.591-0.017,0.89-0.05
	c11.653-1.288,22.519-4.902,32.188-10.324L369.236,368.351z"/>
<g>
</g>
<g>
</g>
<g>
</g>
<g>
</g>
<g>
</g>
<g>
</g>
<g>
</g>
<g>
</g>
<g>
</g>
<g>
</g>
<g>
</g>
<g>
</g>
<g>
</g>
<g>
</g>
<g>
</g>
</svg>
