<?xml version="1.0" encoding="iso-8859-1"?>
<!-- Generator: Adobe Illustrator 19.0.0, SVG Export Plug-In . SVG Version: 6.00 Build 0)  -->
<svg version="1.1" id="Layer_1" xmlns="http://www.w3.org/2000/svg" xmlns:xlink="http://www.w3.org/1999/xlink" x="0px" y="0px"
	 viewBox="0 0 512 512" style="enable-background:new 0 0 512 512;" xml:space="preserve">
<path style="fill:#C7CFE2;" d="M435.573,179.039l-0.001-0.001c-28.219-14.108-51.306-51.464-51.306-83.013V50.772l-34.205-8.551
	L315.857,8.017H196.141l-34.205,34.205l-34.205,8.551v45.252c0,31.548-23.087,68.904-51.305,83.013
	c-0.001,0-0.001,0.001-0.001,0.001l0,316.394c0,4.722,3.829,8.551,8.551,8.551h85.511c47.227,0,85.511-38.285,85.511-85.511
	c0,47.227,38.285,85.511,85.511,85.511h85.512c4.722,0,8.551-3.829,8.551-8.551L435.573,179.039z"/>
<path style="fill:#A1A8C0;" d="M136.284,435.574h42.756c9.446,0,17.102-7.656,17.102-17.102v-76.96h-76.96v76.96
	C119.182,427.918,126.838,435.574,136.284,435.574z"/>
<rect x="119.182" y="341.511" style="fill:#AFB9D2;" width="76.96" height="34.205"/>
<path style="fill:#A1A8C0;" d="M332.96,435.574h42.756c9.446,0,17.102-7.656,17.102-17.102v-76.96h-76.96v76.96
	C315.858,427.918,323.515,435.574,332.96,435.574z"/>
<rect x="315.858" y="341.511" style="fill:#AFB9D2;" width="76.96" height="34.205"/>
<polygon style="fill:#7F8499;" points="196.116,8.017 255.974,247.449 315.832,8.017 "/>
<polygon style="fill:#959CB5;" points="307.281,42.221 315.832,8.017 196.116,8.017 204.667,42.221 "/>
<g>
	<path style="fill:#AFB9D2;" d="M88.434,201.716c36.467-18.547,64.952-64.835,64.952-105.691V44.359l-25.653,6.413v45.252
		c0,31.548-23.087,68.904-51.305,83.013v0.001v29.345L88.434,201.716z"/>
	<path style="fill:#AFB9D2;" d="M423.543,201.716c-36.467-18.547-64.952-64.835-64.952-105.691V44.359l25.653,6.413v45.252
		c0,31.548,23.087,68.904,51.305,83.013v0.001v29.345L423.543,201.716z"/>
	<polygon style="fill:#AFB9D2;" points="255.999,298.687 350.037,42.221 315.832,8.017 255.974,247.449 196.141,8.017 
		161.936,42.221 255.974,298.687 255.974,298.756 255.987,298.722 255.999,298.756 	"/>
</g>
<path d="M443.59,179.04c0-3.037-1.716-5.813-4.432-7.17c-25.408-12.705-46.874-47.437-46.874-75.844V50.772
	c0-3.679-2.503-6.885-6.072-7.777l-32.05-8.012L321.526,2.348c-1.523-1.523-3.571-2.345-5.668-2.346V0H196.142v0.002
	c-2.097,0-4.145,0.822-5.668,2.346l-32.634,32.634l-32.05,8.012c-3.57,0.893-6.073,4.098-6.073,7.777v45.253
	c0,28.407-21.467,63.14-46.875,75.844c-2.716,1.357-4.432,4.133-4.432,7.17v316.392c0,9.136,7.432,16.568,16.568,16.568h85.511
	c38.101,0,70.948-22.903,85.511-55.663C270.564,489.097,303.411,512,341.511,512h85.512c9.136,0,16.568-7.432,16.568-16.568
	L443.59,179.04z M340.773,44.269l-75.975,207.204c0.709-6.893,1.893-13.737,3.574-20.463l51.829-207.313L340.773,44.269z
	 M301.047,34.205h-90.096l-4.543-18.171h99.182L301.047,34.205z M297.039,50.238L256,214.395L214.961,50.238H297.039z
	 M191.799,23.697l51.829,207.313c1.681,6.727,2.866,13.57,3.574,20.463L171.227,44.269L191.799,23.697z M170.489,495.967H84.977
	c-0.295,0-0.534-0.239-0.534-0.534l0.001-311.633c28.67-16.869,51.306-55.081,51.306-87.774V57.032l21.142-5.286l91.092,248.432
	v118.293C247.983,461.203,213.22,495.967,170.489,495.967z M427.557,495.432c0,0.295-0.239,0.534-0.534,0.534h-85.512
	c-42.731,0-77.495-34.764-77.495-77.495V300.178l91.092-248.432l21.142,5.286v38.993c0,32.694,22.636,70.906,51.307,87.774V495.432z
	"/>
<path d="M196.142,333.495h-76.96c-4.427,0-8.017,3.589-8.017,8.017v76.96c0,13.851,11.268,25.119,25.119,25.119h42.756
	c13.851,0,25.119-11.268,25.119-25.119v-76.96C204.159,337.084,200.569,333.495,196.142,333.495z M188.125,349.528v18.171h-60.927
	v-18.171H188.125z M179.04,427.557h-42.756c-5.01,0-9.086-4.076-9.086-9.086v-34.739h60.927v34.739
	C188.125,423.482,184.05,427.557,179.04,427.557z"/>
<path d="M392.818,333.495h-76.96c-4.427,0-8.017,3.589-8.017,8.017v76.96c0,13.851,11.268,25.119,25.119,25.119h42.756
	c13.851,0,25.119-11.268,25.119-25.119v-76.96C400.835,337.084,397.246,333.495,392.818,333.495z M384.802,349.528v18.171h-60.927
	v-18.171H384.802z M375.716,427.557H332.96c-5.01,0-9.086-4.076-9.086-9.086v-34.739h60.927v34.739
	C384.802,423.482,380.726,427.557,375.716,427.557z"/>
<g>
</g>
<g>
</g>
<g>
</g>
<g>
</g>
<g>
</g>
<g>
</g>
<g>
</g>
<g>
</g>
<g>
</g>
<g>
</g>
<g>
</g>
<g>
</g>
<g>
</g>
<g>
</g>
<g>
</g>
</svg>
