<?xml version="1.0" encoding="iso-8859-1"?>
<!-- Generator: Adobe Illustrator 19.0.0, SVG Export Plug-In . SVG Version: 6.00 Build 0)  -->
<svg version="1.1" id="Layer_1" xmlns="http://www.w3.org/2000/svg" xmlns:xlink="http://www.w3.org/1999/xlink" x="0px" y="0px"
	 viewBox="0 0 512 512" style="enable-background:new 0 0 512 512;" xml:space="preserve">
<path style="fill:#9B5A50;" d="M435.574,435.574H59.324c-28.336,0-51.307-22.971-51.307-51.307V127.733
	c0-28.336,22.971-51.307,51.307-51.307h376.251c28.336,0,51.307,22.971,51.307,51.307v256.534
	C486.881,412.604,463.91,435.574,435.574,435.574z"/>
<path style="fill:#915046;" d="M486.881,170.489h-42.756v-42.756c0-4.722-3.829-8.551-8.551-8.551H59.324
	c-4.722,0-8.551,3.829-8.551,8.551v256.534c0,4.722,3.829,8.551,8.551,8.551h376.251c4.722,0,8.551-3.829,8.551-8.551v-42.756
	h42.756V170.489z M418.472,367.165H76.426v-222.33h342.046v25.653H401.37c-33.059,0-59.858,26.799-59.858,59.858v51.307
	c0,33.059,26.799,59.858,59.858,59.858h17.102V367.165z"/>
<path style="fill:#AA6455;" d="M401.37,315.858h85.511c9.446,0,17.102-7.656,17.102-17.102v-85.511
	c0-9.446-7.656-17.102-17.102-17.102H401.37c-18.891,0-34.205,15.314-34.205,34.205v51.307
	C367.165,300.544,382.479,315.858,401.37,315.858z"/>
<circle style="fill:#EBC9A0;" cx="418.472" cy="256" r="17.102"/>
<path d="M494.898,189.444v-61.711c0-32.711-26.612-59.324-59.324-59.324H59.324C26.612,68.409,0,95.021,0,127.733v256.534
	c0,32.711,26.612,59.324,59.324,59.324h376.251c32.711,0,59.324-26.612,59.324-59.324v-61.712c9.93-3.354,17.102-12.752,17.102-23.8
	v-85.511C512,202.196,504.828,192.798,494.898,189.444z M435.574,427.557H59.324c-23.871,0-43.29-19.42-43.29-43.29V127.733
	c0-23.871,19.42-43.29,43.29-43.29h376.251c23.871,0,43.29,19.42,43.29,43.29v60.392h-26.722v-60.392
	c0-9.136-7.432-16.568-16.568-16.568H59.324c-9.136,0-16.568,7.432-16.568,16.568v256.534c0,9.136,7.432,16.568,16.568,16.568
	h376.251c9.136,0,16.568-7.432,16.568-16.568v-60.392h26.722v60.392C478.864,408.138,459.445,427.557,435.574,427.557z
	 M401.37,188.125c-23.281,0-42.221,18.941-42.221,42.221v51.307c0,23.281,18.941,42.221,42.221,42.221h34.739v60.392
	c0,0.294-0.241,0.534-0.534,0.534H59.324c-0.294,0-0.534-0.241-0.534-0.534V127.733c0-0.294,0.24-0.534,0.534-0.534h376.251
	c0.294,0,0.534,0.241,0.534,0.534v60.392H401.37z M495.967,298.756c0,5.01-4.076,9.086-9.086,9.086H401.37
	c-14.441,0-26.188-11.747-26.188-26.188v-51.307c0-14.441,11.747-26.188,26.188-26.188h85.511c5.01,0,9.086,4.076,9.086,9.086
	V298.756z"/>
<path d="M418.472,230.881c-13.851,0-25.119,11.268-25.119,25.119c0,13.851,11.268,25.119,25.119,25.119s25.119-11.268,25.119-25.119
	C443.591,242.149,432.323,230.881,418.472,230.881z M418.472,265.086c-5.01,0-9.086-4.076-9.086-9.086
	c0-5.01,4.076-9.086,9.086-9.086s9.086,4.076,9.086,9.086C427.557,261.01,423.482,265.086,418.472,265.086z"/>
<g>
</g>
<g>
</g>
<g>
</g>
<g>
</g>
<g>
</g>
<g>
</g>
<g>
</g>
<g>
</g>
<g>
</g>
<g>
</g>
<g>
</g>
<g>
</g>
<g>
</g>
<g>
</g>
<g>
</g>
</svg>
